hudum.ufo
<glyph name="_A.init" format="2">
  <advance width="492"/>
  <outline>
    <contour>
      <point x="200" y="437" type="curve"/>
      <point x="226" y="74" type="line"/>
      <point x="292" y="74" type="line"/>
      <point x="302" y="219" type="line"/>
      <point x="305" y="292"/>
      <point x="325" y="336"/>
      <point x="362" y="351" type="curve"/>
      <point x="381" y="360"/>
      <point x="409" y="364"/>
      <point x="445" y="364" type="curve"/>
      <point x="522" y="364" type="line"/>
      <point x="522" y="444" type="line"/>
      <point x="444" y="444" type="line"/>
      <point x="360" y="444"/>
      <point x="307" y="416"/>
      <point x="285" y="361" type="curve"/>
      <point x="281" y="361" type="line"/>
      <point x="278" y="445" type="line"/>
      <point x="277" y="536"/>
      <point x="258" y="597"/>
      <point x="223" y="628" type="curve"/>
      <point x="204" y="645"/>
      <point x="176" y="653"/>
      <point x="139" y="653" type="curve"/>
      <point x="100" y="653"/>
      <point x="57" y="643"/>
      <point x="10" y="623" type="curve"/>
      <point x="10" y="550" type="line"/>
      <point x="51" y="567"/>
      <point x="87" y="575"/>
      <point x="118" y="575" type="curve"/>
      <point x="147" y="575"/>
      <point x="168" y="564"/>
      <point x="180" y="542" type="curve"/>
      <point x="191" y="519"/>
      <point x="198" y="484"/>
    </contour>
  </outline>
</glyph>
<glyph name="_Aa.isol" format="2">
  <advance width="470"/>
  <outline>
    <contour>
      <point x="164" y="-264" type="curve"/>
      <point x="246" y="-264" type="line"/>
      <point x="232" y="-239"/>
      <point x="225" y="-214"/>
      <point x="225" y="-187" type="curve"/>
      <point x="225" y="-157"/>
      <point x="230" y="-131"/>
      <point x="241" y="-109" type="curve"/>
      <point x="251" y="-87"/>
      <point x="268" y="-61"/>
      <point x="292" y="-31" type="curve"/>
      <point x="339" y="27"/>
      <point x="373" y="78"/>
      <point x="394" y="123" type="curve"/>
      <point x="415" y="164"/>
      <point x="425" y="205"/>
      <point x="425" y="245" type="curve"/>
      <point x="424" y="378"/>
      <point x="347" y="444"/>
      <point x="194" y="444" type="curve"/>
      <point x="118" y="444" type="line"/>
      <point x="100" y="364" type="line"/>
      <point x="193" y="364" type="line"/>
      <point x="296" y="365"/>
      <point x="347" y="325"/>
      <point x="347" y="245" type="curve"/>
      <point x="347" y="214"/>
      <point x="339" y="183"/>
      <point x="323" y="152" type="curve"/>
      <point x="306" y="119"/>
      <point x="278" y="77"/>
      <point x="240" y="28" type="curve"/>
      <point x="209" y="-11"/>
      <point x="185" y="-48"/>
      <point x="169" y="-82" type="curve"/>
      <point x="153" y="-117"/>
      <point x="145" y="-152"/>
      <point x="145" y="-187" type="curve"/>
      <point x="145" y="-218"/>
      <point x="151" y="-243"/>
    </contour>
  </outline>
</glyph>
<glyph name="_B2.fina" format="2">
  <advance width="820"/>
  <outline>
    <contour>
      <point x="197" y="123" type="curve"/>
      <point x="118" y="124"/>
      <point x="79" y="166"/>
      <point x="79" y="251" type="curve"/>
      <point x="79" y="294"/>
      <point x="86" y="332"/>
      <point x="99" y="364" type="curve"/>
      <point x="296" y="364" type="line"/>
      <point x="309" y="332"/>
      <point x="316" y="294"/>
      <point x="316" y="251" type="curve"/>
      <point x="316" y="209"/>
      <point x="306" y="177"/>
      <point x="285" y="156" type="curve"/>
      <point x="264" y="134"/>
      <point x="235" y="123"/>
    </contour>
    <contour>
      <point x="514" y="-264" type="curve"/>
      <point x="596" y="-264" type="line"/>
      <point x="582" y="-239"/>
      <point x="575" y="-214"/>
      <point x="575" y="-187" type="curve"/>
      <point x="575" y="-160"/>
      <point x="580" y="-134"/>
      <point x="591" y="-111" type="curve"/>
      <point x="601" y="-88"/>
      <point x="618" y="-62"/>
      <point x="642" y="-31" type="curve"/>
      <point x="686" y="24"/>
      <point x="719" y="74"/>
      <point x="742" y="117" type="curve"/>
      <point x="764" y="160"/>
      <point x="775" y="203"/>
      <point x="775" y="245" type="curve"/>
      <point x="774" y="378"/>
      <point x="697" y="444"/>
      <point x="544" y="444" type="curve"/>
      <point x="0" y="444" type="line"/>
      <point x="0" y="364" type="line"/>
      <point x="20" y="364" type="line"/>
      <point x="7" y="333"/>
      <point x="0" y="294"/>
      <point x="0" y="249" type="curve"/>
      <point x="3" y="110"/>
      <point x="69" y="40"/>
      <point x="197" y="40" type="curve"/>
      <point x="260" y="40"/>
      <point x="308" y="59"/>
      <point x="343" y="97" type="curve"/>
      <point x="378" y="134"/>
      <point x="395" y="185"/>
      <point x="395" y="249" type="curve"/>
      <point x="395" y="294"/>
      <point x="388" y="333"/>
      <point x="373" y="364" type="curve"/>
      <point x="543" y="364" type="line"/>
      <point x="646" y="367"/>
      <point x="697" y="326"/>
      <point x="697" y="243" type="curve"/>
      <point x="697" y="212"/>
      <point x="689" y="181"/>
      <point x="672" y="150" type="curve"/>
      <point x="655" y="119"/>
      <point x="628" y="79"/>
      <point x="590" y="28" type="curve"/>
      <point x="558" y="-13"/>
      <point x="534" y="-50"/>
      <point x="519" y="-83" type="curve"/>
      <point x="503" y="-116"/>
      <point x="495" y="-151"/>
      <point x="495" y="-187" type="curve"/>
      <point x="495" y="-218"/>
      <point x="501" y="-243"/>
    </contour>
  </outline>
</glyph>
<glyph name="_BA.medi" format="2">
  <advance width="817"/>
  <outline>
    <contour>
      <point x="218" y="123" type="curve"/>
      <point x="127" y="123"/>
      <point x="81" y="203"/>
      <point x="78" y="364" type="curve"/>
      <point x="316" y="364" type="line"/>
      <point x="323" y="346"/>
      <point x="326" y="316"/>
      <point x="326" y="275" type="curve"/>
      <point x="326" y="230"/>
      <point x="317" y="194"/>
      <point x="299" y="166" type="curve"/>
      <point x="280" y="137"/>
      <point x="253" y="123"/>
    </contour>
    <contour>
      <point x="225" y="40" type="curve"/>
      <point x="294" y="40"/>
      <point x="347" y="77"/>
      <point x="382" y="152" type="curve"/>
      <point x="397" y="187"/>
      <point x="405" y="228"/>
      <point x="405" y="275" type="curve"/>
      <point x="405" y="295"/>
      <point x="403" y="324"/>
      <point x="398" y="361" type="curve"/>
      <point x="393" y="398"/>
      <point x="388" y="425"/>
      <point x="382" y="444" type="curve"/>
      <point x="78" y="444" type="line"/>
      <point x="80" y="546"/>
      <point x="115" y="620"/>
      <point x="182" y="666" type="curve"/>
      <point x="216" y="688"/>
      <point x="257" y="699"/>
      <point x="306" y="699" type="curve"/>
      <point x="376" y="699"/>
      <point x="429" y="671"/>
      <point x="466" y="616" type="curve"/>
      <point x="503" y="561"/>
      <point x="525" y="477"/>
      <point x="533" y="364" type="curve"/>
      <point x="552" y="96" type="line"/>
      <point x="618" y="96" type="line"/>
      <point x="637" y="364" type="line"/>
      <point x="847" y="364" type="line"/>
      <point x="847" y="444" type="line"/>
      <point x="606" y="444" type="line"/>
      <point x="589" y="579"/>
      <point x="540" y="677"/>
      <point x="460" y="738" type="curve"/>
      <point x="419" y="767"/>
      <point x="367" y="782"/>
      <point x="306" y="782" type="curve"/>
      <point x="174" y="782"/>
      <point x="83" y="722"/>
      <point x="34" y="603" type="curve"/>
      <point x="11" y="547"/>
      <point x="-1" y="482"/>
      <point x="-1" y="408" type="curve"/>
      <point x="-1" y="163"/>
      <point x="74" y="40"/>
    </contour>
  </outline>
</glyph>
<glyph name="_BL.init" format="2">
  <advance width="863"/>
  <outline>
    <contour>
      <point x="264" y="123" type="curve"/>
      <point x="173" y="123"/>
      <point x="127" y="203"/>
      <point x="124" y="364" type="curve"/>
      <point x="362" y="364" type="line"/>
      <point x="369" y="346"/>
      <point x="372" y="316"/>
      <point x="372" y="275" type="curve"/>
      <point x="372" y="224"/>
      <point x="362" y="186"/>
      <point x="342" y="161" type="curve"/>
      <point x="321" y="136"/>
      <point x="295" y="123"/>
    </contour>
    <contour>
      <point x="348" y="659" type="curve"/>
      <point x="417" y="659"/>
      <point x="471" y="634"/>
      <point x="510" y="585" type="curve"/>
      <point x="549" y="535"/>
      <point x="572" y="461"/>
      <point x="579" y="364" type="curve"/>
      <point x="598" y="96" type="line"/>
      <point x="664" y="96" type="line"/>
      <point x="683" y="364" type="line"/>
      <point x="893" y="364" type="line"/>
      <point x="893" y="444" type="line"/>
      <point x="652" y="444" type="line"/>
      <point x="640" y="509"/>
      <point x="620" y="565"/>
      <point x="593" y="611" type="curve"/>
      <point x="594" y="653"/>
      <point x="602" y="693"/>
      <point x="616" y="731" type="curve"/>
      <point x="629" y="768"/>
      <point x="649" y="807"/>
      <point x="675" y="848" type="curve"/>
      <point x="675" y="914" type="line"/>
      <point x="555" y="914" type="line"/>
      <point x="506" y="914"/>
      <point x="469" y="917"/>
      <point x="443" y="922" type="curve"/>
      <point x="418" y="927"/>
      <point x="395" y="936"/>
      <point x="375" y="950" type="curve"/>
      <point x="375" y="872" type="line"/>
      <point x="391" y="859"/>
      <point x="411" y="849"/>
      <point x="435" y="843" type="curve"/>
      <point x="459" y="837"/>
      <point x="499" y="834"/>
      <point x="555" y="834" type="curve"/>
      <point x="583" y="834" type="line"/>
      <point x="557" y="787"/>
      <point x="539" y="736"/>
      <point x="530" y="683" type="curve"/>
      <point x="483" y="722"/>
      <point x="422" y="742"/>
      <point x="348" y="742" type="curve"/>
      <point x="253" y="742"/>
      <point x="179" y="712"/>
      <point x="125" y="653" type="curve"/>
      <point x="72" y="594"/>
      <point x="45" y="512"/>
      <point x="45" y="408" type="curve"/>
      <point x="45" y="285"/>
      <point x="64" y="193"/>
      <point x="101" y="132" type="curve"/>
      <point x="139" y="71"/>
      <point x="195" y="40"/>
      <point x="270" y="40" type="curve"/>
      <point x="305" y="40"/>
      <point x="337" y="50"/>
      <point x="364" y="69" type="curve"/>
      <point x="391" y="88"/>
      <point x="413" y="116"/>
      <point x="428" y="153" type="curve"/>
      <point x="443" y="190"/>
      <point x="451" y="230"/>
      <point x="451" y="275" type="curve"/>
      <point x="451" y="296"/>
      <point x="449" y="325"/>
      <point x="445" y="360" type="curve"/>
      <point x="440" y="396"/>
      <point x="435" y="424"/>
      <point x="428" y="444" type="curve"/>
      <point x="124" y="444" type="line"/>
      <point x="125" y="511"/>
      <point x="146" y="563"/>
      <point x="187" y="602" type="curve"/>
      <point x="228" y="640"/>
      <point x="281" y="659"/>
    </contour>
  </outline>
</glyph>
<glyph name="_BO.fina" format="2">
  <advance width="751"/>
  <outline>
    <contour>
      <point x="622" y="444" type="curve"/>
      <point x="81" y="444" type="line"/>
      <point x="90" y="527"/>
      <point x="118" y="590"/>
      <point x="165" y="634" type="curve"/>
      <point x="211" y="677"/>
      <point x="276" y="699"/>
      <point x="359" y="699" type="curve"/>
      <point x="459" y="699"/>
      <point x="532" y="659"/>
      <point x="579" y="578" type="curve"/>
      <point x="601" y="539"/>
      <point x="615" y="495"/>
    </contour>
    <contour>
      <point x="203" y="123" type="curve"/>
      <point x="170" y="123"/>
      <point x="144" y="133"/>
      <point x="125" y="153" type="curve"/>
      <point x="106" y="172"/>
      <point x="94" y="201"/>
      <point x="88" y="239" type="curve"/>
      <point x="81" y="276"/>
      <point x="78" y="317"/>
      <point x="78" y="364" type="curve"/>
      <point x="313" y="364" type="line"/>
      <point x="313" y="286" type="line"/>
      <point x="313" y="238"/>
      <point x="304" y="199"/>
      <point x="285" y="169" type="curve"/>
      <point x="266" y="138"/>
      <point x="239" y="123"/>
    </contour>
    <contour>
      <point x="492" y="123" type="curve"/>
      <point x="425" y="123"/>
      <point x="392" y="177"/>
      <point x="392" y="286" type="curve"/>
      <point x="392" y="364" type="line"/>
      <point x="627" y="364" type="line"/>
      <point x="626" y="247"/>
      <point x="607" y="175"/>
      <point x="571" y="147" type="curve"/>
      <point x="552" y="131"/>
      <point x="525" y="123"/>
    </contour>
    <contour>
      <point x="203" y="40" type="curve"/>
      <point x="236" y="40"/>
      <point x="265" y="48"/>
      <point x="292" y="65" type="curve"/>
      <point x="318" y="81"/>
      <point x="337" y="104"/>
      <point x="350" y="135" type="curve"/>
      <point x="380" y="72"/>
      <point x="427" y="40"/>
      <point x="492" y="40" type="curve"/>
      <point x="565" y="40"/>
      <point x="619" y="67"/>
      <point x="654" y="122" type="curve"/>
      <point x="689" y="176"/>
      <point x="706" y="260"/>
      <point x="706" y="375" type="curve"/>
      <point x="706" y="453"/>
      <point x="693" y="523"/>
      <point x="666" y="584" type="curve"/>
      <point x="639" y="645"/>
      <point x="601" y="694"/>
      <point x="550" y="729" type="curve"/>
      <point x="499" y="764"/>
      <point x="435" y="782"/>
      <point x="359" y="782" type="curve"/>
      <point x="284" y="782"/>
      <point x="220" y="765"/>
      <point x="167" y="732" type="curve"/>
      <point x="113" y="698"/>
      <point x="71" y="650"/>
      <point x="42" y="588" type="curve"/>
      <point x="13" y="527"/>
      <point x="-1" y="456"/>
      <point x="-1" y="375" type="curve"/>
      <point x="-1" y="264"/>
      <point x="16" y="180"/>
      <point x="49" y="124" type="curve"/>
      <point x="82" y="68"/>
      <point x="133" y="40"/>
    </contour>
  </outline>
</glyph>
<glyph name="_BO.isol" format="2">
  <advance width="797"/>
  <outline>
    <contour>
      <point x="668" y="444" type="curve"/>
      <point x="127" y="444" type="line"/>
      <point x="136" y="527"/>
      <point x="164" y="590"/>
      <point x="211" y="634" type="curve"/>
      <point x="257" y="677"/>
      <point x="322" y="699"/>
      <point x="405" y="699" type="curve"/>
      <point x="505" y="699"/>
      <point x="578" y="659"/>
      <point x="625" y="578" type="curve"/>
      <point x="647" y="539"/>
      <point x="661" y="495"/>
    </contour>
    <contour>
      <point x="249" y="123" type="curve"/>
      <point x="216" y="123"/>
      <point x="190" y="133"/>
      <point x="171" y="153" type="curve"/>
      <point x="152" y="172"/>
      <point x="140" y="201"/>
      <point x="134" y="239" type="curve"/>
      <point x="127" y="276"/>
      <point x="124" y="317"/>
      <point x="124" y="364" type="curve"/>
      <point x="359" y="364" type="line"/>
      <point x="359" y="286" type="line"/>
      <point x="359" y="238"/>
      <point x="350" y="199"/>
      <point x="331" y="169" type="curve"/>
      <point x="312" y="138"/>
      <point x="285" y="123"/>
    </contour>
    <contour>
      <point x="538" y="123" type="curve"/>
      <point x="471" y="123"/>
      <point x="438" y="177"/>
      <point x="438" y="286" type="curve"/>
      <point x="438" y="364" type="line"/>
      <point x="673" y="364" type="line"/>
      <point x="672" y="247"/>
      <point x="653" y="175"/>
      <point x="617" y="147" type="curve"/>
      <point x="598" y="131"/>
      <point x="571" y="123"/>
    </contour>
    <contour>
      <point x="249" y="40" type="curve"/>
      <point x="282" y="40"/>
      <point x="311" y="48"/>
      <point x="338" y="65" type="curve"/>
      <point x="364" y="81"/>
      <point x="383" y="104"/>
      <point x="396" y="135" type="curve"/>
      <point x="426" y="72"/>
      <point x="473" y="40"/>
      <point x="538" y="40" type="curve"/>
      <point x="611" y="40"/>
      <point x="665" y="67"/>
      <point x="700" y="122" type="curve"/>
      <point x="735" y="176"/>
      <point x="752" y="260"/>
      <point x="752" y="375" type="curve"/>
      <point x="752" y="453"/>
      <point x="739" y="523"/>
      <point x="712" y="584" type="curve"/>
      <point x="685" y="645"/>
      <point x="647" y="694"/>
      <point x="596" y="729" type="curve"/>
      <point x="545" y="764"/>
      <point x="481" y="782"/>
      <point x="405" y="782" type="curve"/>
      <point x="330" y="782"/>
      <point x="266" y="765"/>
      <point x="213" y="732" type="curve"/>
      <point x="159" y="698"/>
      <point x="117" y="650"/>
      <point x="88" y="588" type="curve"/>
      <point x="59" y="527"/>
      <point x="45" y="456"/>
      <point x="45" y="375" type="curve"/>
      <point x="45" y="264"/>
      <point x="62" y="180"/>
      <point x="95" y="124" type="curve"/>
      <point x="128" y="68"/>
      <point x="179" y="40"/>
    </contour>
  </outline>
</glyph>
<glyph name="_BW.init" format="2">
  <advance width="1006"/>
  <outline>
    <contour>
      <point x="264" y="123" type="curve"/>
      <point x="173" y="123"/>
      <point x="127" y="203"/>
      <point x="124" y="364" type="curve"/>
      <point x="362" y="364" type="line"/>
      <point x="369" y="346"/>
      <point x="372" y="316"/>
      <point x="372" y="275" type="curve"/>
      <point x="372" y="230"/>
      <point x="363" y="194"/>
      <point x="345" y="166" type="curve"/>
      <point x="326" y="137"/>
      <point x="299" y="123"/>
    </contour>
    <contour>
      <point x="858" y="-119" type="curve"/>
      <point x="897" y="-119"/>
      <point x="925" y="-108"/>
      <point x="940" y="-85" type="curve"/>
      <point x="940" y="6" type="line"/>
      <point x="921" y="-22"/>
      <point x="893" y="-36"/>
      <point x="855" y="-36" type="curve"/>
      <point x="820" y="-36"/>
      <point x="784" y="-3"/>
      <point x="747" y="63" type="curve"/>
      <point x="730" y="92"/>
      <point x="715" y="125"/>
      <point x="701" y="161" type="curve"/>
      <point x="672" y="234"/>
      <point x="652" y="301"/>
      <point x="641" y="364" type="curve"/>
      <point x="1036" y="364" type="line"/>
      <point x="1036" y="444" type="line"/>
      <point x="626" y="444" type="line"/>
      <point x="603" y="588"/>
      <point x="554" y="687"/>
      <point x="480" y="740" type="curve"/>
      <point x="441" y="768"/>
      <point x="391" y="782"/>
      <point x="330" y="782" type="curve"/>
      <point x="267" y="782"/>
      <point x="215" y="766"/>
      <point x="172" y="735" type="curve"/>
      <point x="129" y="704"/>
      <point x="97" y="659"/>
      <point x="76" y="601" type="curve"/>
      <point x="55" y="544"/>
      <point x="45" y="480"/>
      <point x="45" y="408" type="curve"/>
      <point x="45" y="163"/>
      <point x="120" y="40"/>
      <point x="271" y="40" type="curve"/>
      <point x="342" y="40"/>
      <point x="395" y="78"/>
      <point x="429" y="154" type="curve"/>
      <point x="444" y="190"/>
      <point x="451" y="230"/>
      <point x="451" y="275" type="curve"/>
      <point x="451" y="295"/>
      <point x="449" y="324"/>
      <point x="444" y="361" type="curve"/>
      <point x="439" y="398"/>
      <point x="434" y="425"/>
      <point x="428" y="444" type="curve"/>
      <point x="124" y="444" type="line"/>
      <point x="125" y="545"/>
      <point x="156" y="619"/>
      <point x="217" y="666" type="curve"/>
      <point x="248" y="688"/>
      <point x="285" y="699"/>
      <point x="330" y="699" type="curve"/>
      <point x="375" y="699"/>
      <point x="413" y="688"/>
      <point x="442" y="666" type="curve"/>
      <point x="471" y="643"/>
      <point x="495" y="610"/>
      <point x="513" y="567" type="curve"/>
      <point x="530" y="525"/>
      <point x="543" y="475"/>
      <point x="552" y="418" type="curve"/>
      <point x="577" y="276"/>
      <point x="615" y="150"/>
      <point x="667" y="41" type="curve"/>
      <point x="692" y="-12"/>
      <point x="719" y="-52"/>
      <point x="748" y="-79" type="curve"/>
      <point x="777" y="-106"/>
      <point x="814" y="-119"/>
    </contour>
  </outline>
</glyph>
<glyph name="_BW.isol" format="2">
  <advance width="1256"/>
  <outline>
    <contour>
      <point x="264" y="123" type="curve"/>
      <point x="173" y="123"/>
      <point x="127" y="203"/>
      <point x="124" y="364" type="curve"/>
      <point x="362" y="364" type="line"/>
      <point x="369" y="346"/>
      <point x="372" y="316"/>
      <point x="372" y="275" type="curve"/>
      <point x="372" y="230"/>
      <point x="363" y="194"/>
      <point x="345" y="166" type="curve"/>
      <point x="326" y="137"/>
      <point x="299" y="123"/>
    </contour>
    <contour>
      <point x="858" y="-119" type="curve"/>
      <point x="897" y="-119"/>
      <point x="925" y="-108"/>
      <point x="940" y="-85" type="curve"/>
      <point x="940" y="6" type="line"/>
      <point x="921" y="-22"/>
      <point x="894" y="-36"/>
      <point x="858" y="-36" type="curve"/>
      <point x="834" y="-36"/>
      <point x="811" y="-24"/>
      <point x="790" y="-1" type="curve"/>
      <point x="769" y="22"/>
      <point x="747" y="57"/>
      <point x="725" y="106" type="curve"/>
      <point x="686" y="189"/>
      <point x="658" y="275"/>
      <point x="641" y="364" type="curve"/>
      <point x="1036" y="364" type="line"/>
      <point x="1071" y="364"/>
      <point x="1096" y="357"/>
      <point x="1111" y="343" type="curve"/>
      <point x="1126" y="328"/>
      <point x="1134" y="307"/>
      <point x="1134" y="279" type="curve"/>
      <point x="1134" y="236"/>
      <point x="1127" y="197"/>
      <point x="1112" y="162" type="curve"/>
      <point x="1186" y="162" type="line"/>
      <point x="1203" y="196"/>
      <point x="1211" y="235"/>
      <point x="1211" y="279" type="curve"/>
      <point x="1212" y="389"/>
      <point x="1153" y="444"/>
      <point x="1036" y="444" type="curve"/>
      <point x="626" y="444" type="line"/>
      <point x="600" y="590"/>
      <point x="551" y="689"/>
      <point x="480" y="740" type="curve"/>
      <point x="441" y="768"/>
      <point x="391" y="782"/>
      <point x="330" y="782" type="curve"/>
      <point x="267" y="782"/>
      <point x="215" y="766"/>
      <point x="172" y="735" type="curve"/>
      <point x="129" y="704"/>
      <point x="97" y="659"/>
      <point x="76" y="601" type="curve"/>
      <point x="55" y="544"/>
      <point x="45" y="480"/>
      <point x="45" y="408" type="curve"/>
      <point x="45" y="163"/>
      <point x="120" y="40"/>
      <point x="271" y="40" type="curve"/>
      <point x="340" y="40"/>
      <point x="393" y="78"/>
      <point x="428" y="153" type="curve"/>
      <point x="443" y="188"/>
      <point x="451" y="229"/>
      <point x="451" y="275" type="curve"/>
      <point x="451" y="295"/>
      <point x="449" y="324"/>
      <point x="444" y="361" type="curve"/>
      <point x="439" y="398"/>
      <point x="434" y="425"/>
      <point x="428" y="444" type="curve"/>
      <point x="124" y="444" type="line"/>
      <point x="125" y="545"/>
      <point x="156" y="619"/>
      <point x="217" y="666" type="curve"/>
      <point x="248" y="688"/>
      <point x="285" y="699"/>
      <point x="330" y="699" type="curve"/>
      <point x="375" y="699"/>
      <point x="413" y="688"/>
      <point x="442" y="666" type="curve"/>
      <point x="471" y="643"/>
      <point x="495" y="610"/>
      <point x="512" y="567" type="curve"/>
      <point x="529" y="525"/>
      <point x="542" y="475"/>
      <point x="552" y="418" type="curve"/>
      <point x="577" y="276"/>
      <point x="615" y="150"/>
      <point x="667" y="41" type="curve"/>
      <point x="692" y="-12"/>
      <point x="719" y="-52"/>
      <point x="748" y="-79" type="curve"/>
      <point x="777" y="-106"/>
      <point x="814" y="-119"/>
    </contour>
  </outline>
</glyph>
<glyph name="_BW.medi" format="2">
  <advance width="960"/>
  <outline>
    <contour>
      <point x="218" y="123" type="curve"/>
      <point x="127" y="123"/>
      <point x="81" y="203"/>
      <point x="78" y="364" type="curve"/>
      <point x="316" y="364" type="line"/>
      <point x="323" y="346"/>
      <point x="326" y="316"/>
      <point x="326" y="275" type="curve"/>
      <point x="326" y="230"/>
      <point x="317" y="194"/>
      <point x="299" y="166" type="curve"/>
      <point x="280" y="137"/>
      <point x="253" y="123"/>
    </contour>
    <contour>
      <point x="812" y="-119" type="curve"/>
      <point x="851" y="-119"/>
      <point x="879" y="-108"/>
      <point x="894" y="-85" type="curve"/>
      <point x="894" y="6" type="line"/>
      <point x="875" y="-22"/>
      <point x="847" y="-36"/>
      <point x="809" y="-36" type="curve"/>
      <point x="774" y="-36"/>
      <point x="738" y="-3"/>
      <point x="701" y="63" type="curve"/>
      <point x="684" y="92"/>
      <point x="669" y="125"/>
      <point x="655" y="161" type="curve"/>
      <point x="626" y="234"/>
      <point x="606" y="301"/>
      <point x="595" y="364" type="curve"/>
      <point x="990" y="364" type="line"/>
      <point x="990" y="444" type="line"/>
      <point x="580" y="444" type="line"/>
      <point x="557" y="588"/>
      <point x="508" y="687"/>
      <point x="434" y="740" type="curve"/>
      <point x="395" y="768"/>
      <point x="345" y="782"/>
      <point x="284" y="782" type="curve"/>
      <point x="221" y="782"/>
      <point x="169" y="766"/>
      <point x="126" y="735" type="curve"/>
      <point x="83" y="704"/>
      <point x="51" y="659"/>
      <point x="30" y="601" type="curve"/>
      <point x="9" y="544"/>
      <point x="-1" y="480"/>
      <point x="-1" y="408" type="curve"/>
      <point x="-1" y="163"/>
      <point x="74" y="40"/>
      <point x="225" y="40" type="curve"/>
      <point x="296" y="40"/>
      <point x="349" y="78"/>
      <point x="383" y="154" type="curve"/>
      <point x="398" y="190"/>
      <point x="405" y="230"/>
      <point x="405" y="275" type="curve"/>
      <point x="405" y="295"/>
      <point x="403" y="324"/>
      <point x="398" y="361" type="curve"/>
      <point x="393" y="398"/>
      <point x="388" y="425"/>
      <point x="382" y="444" type="curve"/>
      <point x="78" y="444" type="line"/>
      <point x="79" y="545"/>
      <point x="110" y="619"/>
      <point x="171" y="666" type="curve"/>
      <point x="202" y="688"/>
      <point x="239" y="699"/>
      <point x="284" y="699" type="curve"/>
      <point x="329" y="699"/>
      <point x="367" y="688"/>
      <point x="396" y="666" type="curve"/>
      <point x="425" y="643"/>
      <point x="449" y="610"/>
      <point x="467" y="567" type="curve"/>
      <point x="484" y="525"/>
      <point x="497" y="475"/>
      <point x="506" y="418" type="curve"/>
      <point x="531" y="276"/>
      <point x="569" y="150"/>
      <point x="621" y="41" type="curve"/>
      <point x="646" y="-12"/>
      <point x="673" y="-52"/>
      <point x="702" y="-79" type="curve"/>
      <point x="731" y="-106"/>
      <point x="768" y="-119"/>
    </contour>
  </outline>
</glyph>
<glyph name="_C.fina" format="2">
  <advance width="905"/>
  <outline>
    <contour>
      <point x="427" y="-99" type="curve"/>
      <point x="407" y="-99"/>
      <point x="390" y="-90"/>
      <point x="377" y="-73" type="curve"/>
      <point x="364" y="-56"/>
      <point x="355" y="-34"/>
      <point x="350" y="-8" type="curve"/>
      <point x="366" y="22"/>
      <point x="390" y="37"/>
      <point x="423" y="37" type="curve"/>
      <point x="445" y="37"/>
      <point x="462" y="31"/>
      <point x="475" y="18" type="curve"/>
      <point x="488" y="5"/>
      <point x="494" y="-11"/>
      <point x="494" y="-32" type="curve"/>
      <point x="491" y="-77"/>
      <point x="468" y="-99"/>
    </contour>
    <contour>
      <point x="423" y="-171" type="curve"/>
      <point x="465" y="-171"/>
      <point x="499" y="-158"/>
      <point x="525" y="-133" type="curve"/>
      <point x="551" y="-108"/>
      <point x="564" y="-75"/>
      <point x="564" y="-32" type="curve"/>
      <point x="564" y="6"/>
      <point x="552" y="38"/>
      <point x="529" y="63" type="curve"/>
      <point x="505" y="88"/>
      <point x="473" y="100"/>
      <point x="433" y="100" type="curve"/>
      <point x="396" y="100"/>
      <point x="366" y="87"/>
      <point x="342" y="62" type="curve"/>
      <point x="339" y="63" type="line"/>
      <point x="336" y="82"/>
      <point x="335" y="102"/>
      <point x="335" y="125" type="curve"/>
      <point x="335" y="212"/>
      <point x="346" y="292"/>
      <point x="369" y="364" type="curve"/>
      <point x="685" y="364" type="line"/>
      <point x="720" y="364"/>
      <point x="745" y="357"/>
      <point x="760" y="343" type="curve"/>
      <point x="775" y="328"/>
      <point x="783" y="307"/>
      <point x="783" y="279" type="curve"/>
      <point x="783" y="235"/>
      <point x="776" y="196"/>
      <point x="761" y="162" type="curve"/>
      <point x="835" y="162" type="line"/>
      <point x="852" y="196"/>
      <point x="860" y="235"/>
      <point x="860" y="279" type="curve"/>
      <point x="861" y="389"/>
      <point x="802" y="444"/>
      <point x="685" y="444" type="curve"/>
      <point x="0" y="444" type="line"/>
      <point x="0" y="364" type="line"/>
      <point x="294" y="364" type="line"/>
      <point x="275" y="298"/>
      <point x="266" y="224"/>
      <point x="266" y="143" type="curve"/>
      <point x="235" y="143" type="line"/>
      <point x="178" y="143"/>
      <point x="131" y="140"/>
      <point x="95" y="135" type="curve"/>
      <point x="59" y="130"/>
      <point x="27" y="118"/>
      <point x="0" y="101" type="curve"/>
      <point x="0" y="16" type="line"/>
      <point x="31" y="35"/>
      <point x="64" y="48"/>
      <point x="100" y="54" type="curve"/>
      <point x="135" y="60"/>
      <point x="180" y="63"/>
      <point x="235" y="63" type="curve"/>
      <point x="267" y="63" type="line"/>
      <point x="272" y="-24"/>
      <point x="296" y="-91"/>
      <point x="340" y="-138" type="curve"/>
      <point x="363" y="-160"/>
      <point x="390" y="-171"/>
    </contour>
  </outline>
</glyph>
<glyph name="_C.init" format="2">
  <advance width="817"/>
  <outline>
    <contour>
      <point x="589" y="-99" type="curve"/>
      <point x="569" y="-99"/>
      <point x="552" y="-90"/>
      <point x="539" y="-73" type="curve"/>
      <point x="526" y="-56"/>
      <point x="517" y="-34"/>
      <point x="512" y="-8" type="curve"/>
      <point x="528" y="22"/>
      <point x="552" y="37"/>
      <point x="585" y="37" type="curve"/>
      <point x="607" y="37"/>
      <point x="624" y="31"/>
      <point x="637" y="18" type="curve"/>
      <point x="650" y="5"/>
      <point x="656" y="-12"/>
      <point x="656" y="-32" type="curve"/>
      <point x="653" y="-77"/>
      <point x="630" y="-99"/>
    </contour>
    <contour>
      <point x="585" y="-171" type="curve"/>
      <point x="627" y="-171"/>
      <point x="661" y="-159"/>
      <point x="687" y="-134" type="curve"/>
      <point x="713" y="-109"/>
      <point x="726" y="-75"/>
      <point x="726" y="-32" type="curve"/>
      <point x="726" y="6"/>
      <point x="714" y="38"/>
      <point x="691" y="63" type="curve"/>
      <point x="667" y="88"/>
      <point x="635" y="100"/>
      <point x="595" y="100" type="curve"/>
      <point x="558" y="100"/>
      <point x="528" y="87"/>
      <point x="504" y="62" type="curve"/>
      <point x="501" y="63" type="line"/>
      <point x="499" y="93" type="line"/>
      <point x="497" y="125" type="line"/>
      <point x="497" y="212"/>
      <point x="508" y="292"/>
      <point x="531" y="364" type="curve"/>
      <point x="847" y="364" type="line"/>
      <point x="847" y="444" type="line"/>
      <point x="63" y="444" type="line"/>
      <point x="45" y="364" type="line"/>
      <point x="456" y="364" type="line"/>
      <point x="437" y="291"/>
      <point x="428" y="217"/>
      <point x="428" y="143" type="curve"/>
      <point x="397" y="143" type="line"/>
      <point x="341" y="143"/>
      <point x="295" y="140"/>
      <point x="259" y="135" type="curve"/>
      <point x="222" y="130"/>
      <point x="190" y="118"/>
      <point x="162" y="101" type="curve"/>
      <point x="162" y="16" type="line"/>
      <point x="193" y="35"/>
      <point x="226" y="48"/>
      <point x="262" y="54" type="curve"/>
      <point x="297" y="60"/>
      <point x="342" y="63"/>
      <point x="397" y="63" type="curve"/>
      <point x="429" y="63" type="line"/>
      <point x="434" y="-24"/>
      <point x="459" y="-91"/>
      <point x="502" y="-138" type="curve"/>
      <point x="525" y="-160"/>
      <point x="552" y="-171"/>
    </contour>
  </outline>
</glyph>
<glyph name="_Ch.fina" format="2">
  <advance width="780"/>
  <outline>
    <contour>
      <point x="0" y="101" type="curve"/>
      <point x="0" y="16" type="line"/>
      <point x="31" y="35"/>
      <point x="64" y="48"/>
      <point x="100" y="54" type="curve"/>
      <point x="135" y="60"/>
      <point x="180" y="63"/>
      <point x="235" y="63" type="curve"/>
      <point x="356" y="63" type="line"/>
      <point x="356" y="129" type="line"/>
      <point x="329" y="205"/>
      <point x="315" y="283"/>
      <point x="315" y="364" type="curve"/>
      <point x="560" y="364" type="line"/>
      <point x="595" y="364"/>
      <point x="620" y="357"/>
      <point x="635" y="343" type="curve"/>
      <point x="650" y="328"/>
      <point x="658" y="307"/>
      <point x="658" y="279" type="curve"/>
      <point x="658" y="235"/>
      <point x="651" y="196"/>
      <point x="636" y="162" type="curve"/>
      <point x="710" y="162" type="line"/>
      <point x="727" y="196"/>
      <point x="735" y="235"/>
      <point x="735" y="279" type="curve"/>
      <point x="736" y="389"/>
      <point x="677" y="444"/>
      <point x="560" y="444" type="curve"/>
      <point x="0" y="444" type="line"/>
      <point x="0" y="364" type="line"/>
      <point x="241" y="364" type="line"/>
      <point x="241" y="280"/>
      <point x="251" y="206"/>
      <point x="271" y="143" type="curve"/>
      <point x="235" y="143" type="line"/>
      <point x="178" y="143"/>
      <point x="131" y="140"/>
      <point x="95" y="135" type="curve"/>
      <point x="59" y="130"/>
      <point x="27" y="118"/>
    </contour>
  </outline>
</glyph>
<glyph name="_Ch.init" format="2">
  <advance width="692"/>
  <outline>
    <contour>
      <point x="162" y="101" type="curve"/>
      <point x="162" y="16" type="line"/>
      <point x="193" y="35"/>
      <point x="226" y="48"/>
      <point x="262" y="54" type="curve"/>
      <point x="297" y="60"/>
      <point x="342" y="63"/>
      <point x="397" y="63" type="curve"/>
      <point x="518" y="63" type="line"/>
      <point x="518" y="129" type="line"/>
      <point x="491" y="205"/>
      <point x="477" y="283"/>
      <point x="477" y="364" type="curve"/>
      <point x="722" y="364" type="line"/>
      <point x="722" y="444" type="line"/>
      <point x="63" y="444" type="line"/>
      <point x="45" y="364" type="line"/>
      <point x="403" y="364" type="line"/>
      <point x="403" y="281"/>
      <point x="413" y="208"/>
      <point x="433" y="143" type="curve"/>
      <point x="397" y="143" type="line"/>
      <point x="341" y="143"/>
      <point x="295" y="140"/>
      <point x="259" y="135" type="curve"/>
      <point x="222" y="130"/>
      <point x="190" y="118"/>
    </contour>
  </outline>
</glyph>
<glyph name="_Ch.medi" format="2">
  <advance width="530"/>
  <outline>
    <contour>
      <point x="0" y="101" type="curve"/>
      <point x="0" y="16" type="line"/>
      <point x="31" y="35"/>
      <point x="64" y="48"/>
      <point x="100" y="54" type="curve"/>
      <point x="135" y="60"/>
      <point x="180" y="63"/>
      <point x="235" y="63" type="curve"/>
      <point x="356" y="63" type="line"/>
      <point x="356" y="129" type="line"/>
      <point x="329" y="205"/>
      <point x="315" y="283"/>
      <point x="315" y="364" type="curve"/>
      <point x="560" y="364" type="line"/>
      <point x="560" y="444" type="line"/>
      <point x="0" y="444" type="line"/>
      <point x="0" y="364" type="line"/>
      <point x="241" y="364" type="line"/>
      <point x="241" y="280"/>
      <point x="251" y="206"/>
      <point x="271" y="143" type="curve"/>
      <point x="235" y="143" type="line"/>
      <point x="178" y="143"/>
      <point x="131" y="140"/>
      <point x="95" y="135" type="curve"/>
      <point x="59" y="130"/>
      <point x="27" y="118"/>
    </contour>
  </outline>
</glyph>
<glyph name="_Cr.init" format="2">
  <advance width="1102"/>
  <outline>
    <contour>
      <point x="726" y="123" type="curve"/>
      <point x="647" y="124"/>
      <point x="608" y="166"/>
      <point x="608" y="251" type="curve"/>
      <point x="608" y="294"/>
      <point x="615" y="332"/>
      <point x="628" y="364" type="curve"/>
      <point x="825" y="364" type="line"/>
      <point x="838" y="332"/>
      <point x="845" y="294"/>
      <point x="845" y="251" type="curve"/>
      <point x="845" y="209"/>
      <point x="835" y="177"/>
      <point x="814" y="156" type="curve"/>
      <point x="793" y="134"/>
      <point x="763" y="123"/>
    </contour>
    <contour>
      <point x="242" y="123" type="curve"/>
      <point x="163" y="123"/>
      <point x="124" y="169"/>
      <point x="124" y="262" type="curve"/>
      <point x="124" y="301"/>
      <point x="131" y="335"/>
      <point x="144" y="364" type="curve"/>
      <point x="341" y="364" type="line"/>
      <point x="354" y="332"/>
      <point x="361" y="294"/>
      <point x="361" y="251" type="curve"/>
      <point x="361" y="209"/>
      <point x="351" y="177"/>
      <point x="330" y="156" type="curve"/>
      <point x="309" y="134"/>
      <point x="279" y="123"/>
    </contour>
    <contour>
      <point x="242" y="40" type="curve"/>
      <point x="305" y="40"/>
      <point x="353" y="59"/>
      <point x="388" y="97" type="curve"/>
      <point x="423" y="134"/>
      <point x="440" y="185"/>
      <point x="440" y="249" type="curve"/>
      <point x="440" y="294"/>
      <point x="433" y="333"/>
      <point x="420" y="364" type="curve"/>
      <point x="549" y="364" type="line"/>
      <point x="536" y="331"/>
      <point x="529" y="292"/>
      <point x="529" y="249" type="curve"/>
      <point x="532" y="110"/>
      <point x="598" y="40"/>
      <point x="726" y="40" type="curve"/>
      <point x="789" y="40"/>
      <point x="837" y="59"/>
      <point x="872" y="97" type="curve"/>
      <point x="907" y="134"/>
      <point x="924" y="185"/>
      <point x="924" y="249" type="curve"/>
      <point x="924" y="296"/>
      <point x="917" y="335"/>
      <point x="902" y="364" type="curve"/>
      <point x="1132" y="364" type="line"/>
      <point x="1132" y="444" type="line"/>
      <point x="90" y="444" type="line"/>
      <point x="60" y="397"/>
      <point x="45" y="336"/>
      <point x="45" y="260" type="curve"/>
      <point x="45" y="190"/>
      <point x="62" y="136"/>
      <point x="95" y="98" type="curve"/>
      <point x="128" y="59"/>
      <point x="177" y="40"/>
    </contour>
  </outline>
</glyph>
<glyph name="_D.init" format="2">
  <advance width="673"/>
  <outline>
    <contour>
      <point x="379" y="-77" type="curve"/>
      <point x="322" y="-77"/>
      <point x="273" y="-26"/>
      <point x="232" y="76" type="curve"/>
      <point x="260" y="127"/>
      <point x="299" y="153"/>
      <point x="350" y="153" type="curve"/>
      <point x="390" y="153"/>
      <point x="421" y="142"/>
      <point x="442" y="120" type="curve"/>
      <point x="463" y="97"/>
      <point x="473" y="66"/>
      <point x="473" y="27" type="curve"/>
      <point x="473" y="-5"/>
      <point x="465" y="-30"/>
      <point x="448" y="-49" type="curve"/>
      <point x="431" y="-68"/>
      <point x="408" y="-77"/>
    </contour>
    <contour>
      <point x="379" y="-157" type="curve"/>
      <point x="430" y="-157"/>
      <point x="471" y="-140"/>
      <point x="503" y="-106" type="curve"/>
      <point x="535" y="-73"/>
      <point x="551" y="-28"/>
      <point x="551" y="27" type="curve"/>
      <point x="551" y="90"/>
      <point x="533" y="140"/>
      <point x="497" y="177" type="curve"/>
      <point x="461" y="214"/>
      <point x="412" y="232"/>
      <point x="350" y="232" type="curve"/>
      <point x="290" y="232"/>
      <point x="241" y="206"/>
      <point x="202" y="154" type="curve"/>
      <point x="177" y="225"/>
      <point x="156" y="295"/>
      <point x="139" y="364" type="curve"/>
      <point x="703" y="364" type="line"/>
      <point x="703" y="444" type="line"/>
      <point x="45" y="444" type="line"/>
      <point x="63" y="338"/>
      <point x="91" y="234"/>
      <point x="128" y="131" type="curve"/>
      <point x="170" y="9"/>
      <point x="217" y="-74"/>
      <point x="270" y="-119" type="curve"/>
      <point x="300" y="-144"/>
      <point x="336" y="-157"/>
    </contour>
  </outline>
</glyph>
<glyph name="_D.medi" format="2">
  <advance width="613"/>
  <outline>
    <contour>
      <point x="319" y="-77" type="curve"/>
      <point x="262" y="-77"/>
      <point x="213" y="-26"/>
      <point x="172" y="76" type="curve"/>
      <point x="200" y="127"/>
      <point x="239" y="153"/>
      <point x="290" y="153" type="curve"/>
      <point x="330" y="153"/>
      <point x="361" y="142"/>
      <point x="382" y="120" type="curve"/>
      <point x="403" y="97"/>
      <point x="413" y="66"/>
      <point x="413" y="27" type="curve"/>
      <point x="413" y="-5"/>
      <point x="405" y="-30"/>
      <point x="388" y="-49" type="curve"/>
      <point x="371" y="-68"/>
      <point x="348" y="-77"/>
    </contour>
    <contour>
      <point x="319" y="-157" type="curve"/>
      <point x="386" y="-157"/>
      <point x="436" y="-128"/>
      <point x="469" y="-70" type="curve"/>
      <point x="484" y="-42"/>
      <point x="491" y="-10"/>
      <point x="491" y="27" type="curve"/>
      <point x="491" y="90"/>
      <point x="473" y="140"/>
      <point x="437" y="177" type="curve"/>
      <point x="401" y="214"/>
      <point x="352" y="232"/>
      <point x="290" y="232" type="curve"/>
      <point x="230" y="232"/>
      <point x="181" y="206"/>
      <point x="142" y="154" type="curve"/>
      <point x="117" y="225"/>
      <point x="96" y="295"/>
      <point x="79" y="364" type="curve"/>
      <point x="643" y="364" type="line"/>
      <point x="643" y="444" type="line"/>
      <point x="0" y="444" type="line"/>
      <point x="0" y="364" type="line"/>
      <point x="23" y="267"/>
      <point x="51" y="175"/>
      <point x="84" y="88" type="curve"/>
      <point x="125" y="-17"/>
      <point x="169" y="-88"/>
      <point x="218" y="-126" type="curve"/>
      <point x="247" y="-147"/>
      <point x="280" y="-157"/>
    </contour>
  </outline>
</glyph>
<glyph name="_E2.medi" format="2">
  <advance width="458"/>
  <outline>
    <contour>
      <point x="309" y="-119" type="curve"/>
      <point x="348" y="-119"/>
      <point x="376" y="-108"/>
      <point x="392" y="-85" type="curve"/>
      <point x="392" y="6" type="line"/>
      <point x="374" y="-22"/>
      <point x="346" y="-36"/>
      <point x="309" y="-36" type="curve"/>
      <point x="288" y="-36"/>
      <point x="269" y="-28"/>
      <point x="252" y="-12" type="curve"/>
      <point x="235" y="4"/>
      <point x="218" y="27"/>
      <point x="202" y="58" type="curve"/>
      <point x="187" y="87"/>
      <point x="171" y="118"/>
      <point x="156" y="152" type="curve"/>
      <point x="126" y="220"/>
      <point x="100" y="291"/>
      <point x="79" y="364" type="curve"/>
      <point x="488" y="364" type="line"/>
      <point x="488" y="444" type="line"/>
      <point x="0" y="444" type="line"/>
      <point x="0" y="364" type="line"/>
      <point x="19" y="295"/>
      <point x="42" y="226"/>
      <point x="68" y="157" type="curve"/>
      <point x="115" y="35"/>
      <point x="162" y="-45"/>
      <point x="207" y="-84" type="curve"/>
      <point x="234" y="-107"/>
      <point x="268" y="-119"/>
    </contour>
  </outline>
</glyph>
<glyph name="_F.fina" format="2">
  <advance width="747"/>
  <outline>
    <contour>
      <point x="218" y="123" type="curve"/>
      <point x="127" y="123"/>
      <point x="81" y="203"/>
      <point x="78" y="364" type="curve"/>
      <point x="316" y="364" type="line"/>
      <point x="323" y="344"/>
      <point x="326" y="314"/>
      <point x="326" y="275" type="curve"/>
      <point x="326" y="230"/>
      <point x="317" y="194"/>
      <point x="299" y="166" type="curve"/>
      <point x="280" y="137"/>
      <point x="253" y="123"/>
    </contour>
    <contour>
      <point x="397" y="-264" type="curve"/>
      <point x="479" y="-264" type="line"/>
      <point x="465" y="-237"/>
      <point x="458" y="-212"/>
      <point x="458" y="-187" type="curve"/>
      <point x="458" y="-143"/>
      <point x="469" y="-104"/>
      <point x="492" y="-71" type="curve"/>
      <point x="503" y="-52"/>
      <point x="518" y="-31"/>
      <point x="536" y="-7" type="curve"/>
      <point x="593" y="68"/>
      <point x="636" y="137"/>
      <point x="663" y="199" type="curve"/>
      <point x="689" y="258"/>
      <point x="702" y="321"/>
      <point x="702" y="390" type="curve"/>
      <point x="702" y="553"/>
      <point x="647" y="668"/>
      <point x="537" y="735" type="curve"/>
      <point x="484" y="766"/>
      <point x="419" y="782"/>
      <point x="344" y="782" type="curve"/>
      <point x="197" y="782"/>
      <point x="96" y="724"/>
      <point x="39" y="608" type="curve"/>
      <point x="12" y="552"/>
      <point x="-1" y="485"/>
      <point x="-1" y="408" type="curve"/>
      <point x="-1" y="202"/>
      <point x="51" y="83"/>
      <point x="155" y="50" type="curve"/>
      <point x="134" y="13"/>
      <point x="123" y="-25"/>
      <point x="123" y="-64" type="curve"/>
      <point x="123" y="-113"/>
      <point x="133" y="-152"/>
      <point x="153" y="-182" type="curve"/>
      <point x="243" y="-182" type="line"/>
      <point x="218" y="-147"/>
      <point x="205" y="-108"/>
      <point x="205" y="-63" type="curve"/>
      <point x="205" y="-26"/>
      <point x="212" y="9"/>
      <point x="225" y="40" type="curve"/>
      <point x="228" y="40" type="line"/>
      <point x="296" y="40"/>
      <point x="347" y="78"/>
      <point x="382" y="154" type="curve"/>
      <point x="397" y="190"/>
      <point x="405" y="230"/>
      <point x="405" y="275" type="curve"/>
      <point x="405" y="296"/>
      <point x="403" y="325"/>
      <point x="398" y="362" type="curve"/>
      <point x="393" y="398"/>
      <point x="388" y="425"/>
      <point x="382" y="444" type="curve"/>
      <point x="78" y="444" type="line"/>
      <point x="81" y="525"/>
      <point x="105" y="588"/>
      <point x="152" y="633" type="curve"/>
      <point x="199" y="677"/>
      <point x="263" y="699"/>
      <point x="344" y="699" type="curve"/>
      <point x="433" y="699"/>
      <point x="501" y="672"/>
      <point x="550" y="617" type="curve"/>
      <point x="599" y="562"/>
      <point x="623" y="486"/>
      <point x="623" y="388" type="curve"/>
      <point x="623" y="331"/>
      <point x="613" y="279"/>
      <point x="594" y="230" type="curve"/>
      <point x="575" y="183"/>
      <point x="539" y="123"/>
      <point x="484" y="50" type="curve"/>
      <point x="447" y="3"/>
      <point x="421" y="-39"/>
      <point x="404" y="-74" type="curve"/>
      <point x="387" y="-110"/>
      <point x="378" y="-148"/>
      <point x="378" y="-187" type="curve"/>
      <point x="378" y="-214"/>
      <point x="384" y="-239"/>
    </contour>
  </outline>
</glyph>
<glyph name="_F.init" format="2">
  <advance width="557"/>
  <outline>
    <contour>
      <point x="264" y="123" type="curve"/>
      <point x="173" y="123"/>
      <point x="127" y="203"/>
      <point x="124" y="364" type="curve"/>
      <point x="362" y="364" type="line"/>
      <point x="369" y="346"/>
      <point x="372" y="316"/>
      <point x="372" y="275" type="curve"/>
      <point x="372" y="230"/>
      <point x="363" y="194"/>
      <point x="345" y="166" type="curve"/>
      <point x="326" y="137"/>
      <point x="299" y="123"/>
    </contour>
    <contour>
      <point x="199" y="-182" type="curve"/>
      <point x="289" y="-182" type="line"/>
      <point x="264" y="-147"/>
      <point x="251" y="-108"/>
      <point x="251" y="-63" type="curve"/>
      <point x="251" y="-26"/>
      <point x="258" y="9"/>
      <point x="271" y="40" type="curve"/>
      <point x="275" y="40" type="line"/>
      <point x="342" y="40"/>
      <point x="393" y="78"/>
      <point x="428" y="153" type="curve"/>
      <point x="443" y="189"/>
      <point x="451" y="229"/>
      <point x="451" y="274" type="curve"/>
      <point x="451" y="294"/>
      <point x="449" y="323"/>
      <point x="444" y="360" type="curve"/>
      <point x="439" y="397"/>
      <point x="434" y="425"/>
      <point x="428" y="444" type="curve"/>
      <point x="124" y="444" type="line"/>
      <point x="126" y="545"/>
      <point x="158" y="619"/>
      <point x="220" y="666" type="curve"/>
      <point x="252" y="688"/>
      <point x="290" y="699"/>
      <point x="335" y="699" type="curve"/>
      <point x="402" y="699"/>
      <point x="455" y="670"/>
      <point x="494" y="611" type="curve"/>
      <point x="533" y="552"/>
      <point x="554" y="470"/>
      <point x="557" y="364" type="curve"/>
      <point x="631" y="364" type="line"/>
      <point x="631" y="476"/>
      <point x="606" y="574"/>
      <point x="557" y="657" type="curve"/>
      <point x="532" y="697"/>
      <point x="501" y="728"/>
      <point x="464" y="750" type="curve"/>
      <point x="427" y="771"/>
      <point x="384" y="782"/>
      <point x="336" y="782" type="curve"/>
      <point x="273" y="782"/>
      <point x="219" y="766"/>
      <point x="176" y="735" type="curve"/>
      <point x="132" y="704"/>
      <point x="99" y="659"/>
      <point x="77" y="601" type="curve"/>
      <point x="56" y="544"/>
      <point x="45" y="480"/>
      <point x="45" y="408" type="curve"/>
      <point x="45" y="202"/>
      <point x="97" y="83"/>
      <point x="201" y="50" type="curve"/>
      <point x="180" y="13"/>
      <point x="169" y="-25"/>
      <point x="169" y="-64" type="curve"/>
      <point x="169" y="-113"/>
      <point x="179" y="-152"/>
    </contour>
  </outline>
</glyph>
<glyph name="_F.medi" format="2">
  <advance width="511"/>
  <outline>
    <contour>
      <point x="218" y="123" type="curve"/>
      <point x="127" y="123"/>
      <point x="81" y="203"/>
      <point x="78" y="364" type="curve"/>
      <point x="316" y="364" type="line"/>
      <point x="323" y="346"/>
      <point x="326" y="316"/>
      <point x="326" y="275" type="curve"/>
      <point x="326" y="230"/>
      <point x="317" y="194"/>
      <point x="299" y="166" type="curve"/>
      <point x="280" y="137"/>
      <point x="253" y="123"/>
    </contour>
    <contour>
      <point x="153" y="-182" type="curve"/>
      <point x="243" y="-182" type="line"/>
      <point x="218" y="-147"/>
      <point x="205" y="-108"/>
      <point x="205" y="-63" type="curve"/>
      <point x="205" y="-26"/>
      <point x="212" y="9"/>
      <point x="225" y="40" type="curve"/>
      <point x="229" y="40" type="line"/>
      <point x="296" y="40"/>
      <point x="347" y="78"/>
      <point x="382" y="153" type="curve"/>
      <point x="397" y="189"/>
      <point x="405" y="229"/>
      <point x="405" y="274" type="curve"/>
      <point x="405" y="294"/>
      <point x="403" y="323"/>
      <point x="398" y="360" type="curve"/>
      <point x="393" y="397"/>
      <point x="388" y="425"/>
      <point x="382" y="444" type="curve"/>
      <point x="78" y="444" type="line"/>
      <point x="80" y="545"/>
      <point x="112" y="619"/>
      <point x="174" y="666" type="curve"/>
      <point x="206" y="688"/>
      <point x="244" y="699"/>
      <point x="289" y="699" type="curve"/>
      <point x="356" y="699"/>
      <point x="409" y="670"/>
      <point x="448" y="611" type="curve"/>
      <point x="487" y="552"/>
      <point x="508" y="470"/>
      <point x="511" y="364" type="curve"/>
      <point x="585" y="364" type="line"/>
      <point x="585" y="476"/>
      <point x="560" y="574"/>
      <point x="511" y="657" type="curve"/>
      <point x="486" y="697"/>
      <point x="455" y="728"/>
      <point x="418" y="750" type="curve"/>
      <point x="381" y="771"/>
      <point x="338" y="782"/>
      <point x="290" y="782" type="curve"/>
      <point x="227" y="782"/>
      <point x="173" y="766"/>
      <point x="130" y="735" type="curve"/>
      <point x="86" y="704"/>
      <point x="53" y="659"/>
      <point x="31" y="601" type="curve"/>
      <point x="10" y="544"/>
      <point x="-1" y="480"/>
      <point x="-1" y="408" type="curve"/>
      <point x="-1" y="202"/>
      <point x="51" y="83"/>
      <point x="155" y="50" type="curve"/>
      <point x="134" y="13"/>
      <point x="123" y="-25"/>
      <point x="123" y="-64" type="curve"/>
      <point x="123" y="-113"/>
      <point x="133" y="-152"/>
    </contour>
  </outline>
</glyph>
<glyph name="_FA.init" format="2">
  <advance width="863"/>
  <outline>
    <contour>
      <point x="264" y="123" type="curve"/>
      <point x="173" y="123"/>
      <point x="127" y="203"/>
      <point x="124" y="364" type="curve"/>
      <point x="362" y="364" type="line"/>
      <point x="369" y="345"/>
      <point x="372" y="315"/>
      <point x="372" y="274" type="curve"/>
      <point x="372" y="229"/>
      <point x="363" y="193"/>
      <point x="344" y="165" type="curve"/>
      <point x="325" y="137"/>
      <point x="299" y="123"/>
    </contour>
    <contour>
      <point x="199" y="-182" type="curve"/>
      <point x="289" y="-182" type="line"/>
      <point x="264" y="-147"/>
      <point x="251" y="-108"/>
      <point x="251" y="-63" type="curve"/>
      <point x="251" y="-26"/>
      <point x="258" y="9"/>
      <point x="271" y="40" type="curve"/>
      <point x="280" y="40" type="line"/>
      <point x="309" y="40"/>
      <point x="336" y="49"/>
      <point x="362" y="68" type="curve"/>
      <point x="387" y="87"/>
      <point x="409" y="113"/>
      <point x="426" y="147" type="curve"/>
      <point x="443" y="182"/>
      <point x="451" y="223"/>
      <point x="451" y="272" type="curve"/>
      <point x="451" y="294"/>
      <point x="449" y="324"/>
      <point x="444" y="361" type="curve"/>
      <point x="439" y="398"/>
      <point x="434" y="425"/>
      <point x="428" y="444" type="curve"/>
      <point x="124" y="444" type="line"/>
      <point x="126" y="546"/>
      <point x="161" y="620"/>
      <point x="228" y="666" type="curve"/>
      <point x="262" y="688"/>
      <point x="303" y="699"/>
      <point x="352" y="699" type="curve"/>
      <point x="422" y="699"/>
      <point x="475" y="671"/>
      <point x="512" y="616" type="curve"/>
      <point x="549" y="561"/>
      <point x="571" y="477"/>
      <point x="579" y="364" type="curve"/>
      <point x="598" y="96" type="line"/>
      <point x="664" y="96" type="line"/>
      <point x="683" y="364" type="line"/>
      <point x="893" y="364" type="line"/>
      <point x="893" y="444" type="line"/>
      <point x="652" y="444" type="line"/>
      <point x="635" y="579"/>
      <point x="586" y="677"/>
      <point x="506" y="738" type="curve"/>
      <point x="465" y="767"/>
      <point x="413" y="782"/>
      <point x="352" y="782" type="curve"/>
      <point x="220" y="782"/>
      <point x="129" y="722"/>
      <point x="80" y="603" type="curve"/>
      <point x="57" y="547"/>
      <point x="45" y="482"/>
      <point x="45" y="408" type="curve"/>
      <point x="45" y="202"/>
      <point x="97" y="83"/>
      <point x="201" y="50" type="curve"/>
      <point x="180" y="13"/>
      <point x="169" y="-25"/>
      <point x="169" y="-64" type="curve"/>
      <point x="169" y="-113"/>
      <point x="179" y="-152"/>
    </contour>
  </outline>
</glyph>
<glyph name="_FA.medi" format="2">
  <advance width="817"/>
  <outline>
    <contour>
      <point x="218" y="123" type="curve"/>
      <point x="127" y="123"/>
      <point x="81" y="203"/>
      <point x="78" y="364" type="curve"/>
      <point x="316" y="364" type="line"/>
      <point x="323" y="345"/>
      <point x="326" y="315"/>
      <point x="326" y="274" type="curve"/>
      <point x="326" y="229"/>
      <point x="317" y="193"/>
      <point x="298" y="165" type="curve"/>
      <point x="279" y="137"/>
      <point x="253" y="123"/>
    </contour>
    <contour>
      <point x="153" y="-182" type="curve"/>
      <point x="243" y="-182" type="line"/>
      <point x="218" y="-147"/>
      <point x="205" y="-108"/>
      <point x="205" y="-63" type="curve"/>
      <point x="205" y="-26"/>
      <point x="212" y="9"/>
      <point x="225" y="40" type="curve"/>
      <point x="234" y="40" type="line"/>
      <point x="263" y="40"/>
      <point x="290" y="49"/>
      <point x="316" y="68" type="curve"/>
      <point x="341" y="87"/>
      <point x="363" y="113"/>
      <point x="380" y="147" type="curve"/>
      <point x="397" y="182"/>
      <point x="405" y="223"/>
      <point x="405" y="272" type="curve"/>
      <point x="405" y="294"/>
      <point x="403" y="324"/>
      <point x="398" y="361" type="curve"/>
      <point x="393" y="398"/>
      <point x="388" y="425"/>
      <point x="382" y="444" type="curve"/>
      <point x="78" y="444" type="line"/>
      <point x="80" y="546"/>
      <point x="115" y="620"/>
      <point x="182" y="666" type="curve"/>
      <point x="216" y="688"/>
      <point x="257" y="699"/>
      <point x="306" y="699" type="curve"/>
      <point x="376" y="699"/>
      <point x="429" y="671"/>
      <point x="466" y="616" type="curve"/>
      <point x="503" y="561"/>
      <point x="525" y="477"/>
      <point x="533" y="364" type="curve"/>
      <point x="552" y="96" type="line"/>
      <point x="618" y="96" type="line"/>
      <point x="637" y="364" type="line"/>
      <point x="847" y="364" type="line"/>
      <point x="847" y="444" type="line"/>
      <point x="606" y="444" type="line"/>
      <point x="589" y="579"/>
      <point x="540" y="677"/>
      <point x="460" y="738" type="curve"/>
      <point x="419" y="767"/>
      <point x="367" y="782"/>
      <point x="306" y="782" type="curve"/>
      <point x="174" y="782"/>
      <point x="83" y="722"/>
      <point x="34" y="603" type="curve"/>
      <point x="11" y="547"/>
      <point x="-1" y="482"/>
      <point x="-1" y="408" type="curve"/>
      <point x="-1" y="202"/>
      <point x="51" y="83"/>
      <point x="155" y="50" type="curve"/>
      <point x="134" y="13"/>
      <point x="123" y="-25"/>
      <point x="123" y="-64" type="curve"/>
      <point x="123" y="-113"/>
      <point x="133" y="-152"/>
    </contour>
  </outline>
</glyph>
<glyph name="_FAa.fina" format="2">
  <advance width="1124"/>
  <outline>
    <contour>
      <point x="218" y="123" type="curve"/>
      <point x="127" y="123"/>
      <point x="81" y="203"/>
      <point x="78" y="364" type="curve"/>
      <point x="316" y="364" type="line"/>
      <point x="323" y="345"/>
      <point x="326" y="314"/>
      <point x="326" y="271" type="curve"/>
      <point x="326" y="227"/>
      <point x="317" y="191"/>
      <point x="298" y="164" type="curve"/>
      <point x="279" y="137"/>
      <point x="253" y="123"/>
    </contour>
    <contour>
      <point x="818" y="-264" type="curve"/>
      <point x="900" y="-264" type="line"/>
      <point x="886" y="-237"/>
      <point x="879" y="-212"/>
      <point x="879" y="-187" type="curve"/>
      <point x="879" y="-157"/>
      <point x="884" y="-132"/>
      <point x="894" y="-111" type="curve"/>
      <point x="903" y="-90"/>
      <point x="921" y="-64"/>
      <point x="946" y="-31" type="curve"/>
      <point x="989" y="25"/>
      <point x="1022" y="75"/>
      <point x="1045" y="119" type="curve"/>
      <point x="1068" y="162"/>
      <point x="1079" y="204"/>
      <point x="1079" y="245" type="curve"/>
      <point x="1077" y="378"/>
      <point x="1000" y="444"/>
      <point x="848" y="444" type="curve"/>
      <point x="606" y="444" type="line"/>
      <point x="589" y="579"/>
      <point x="540" y="677"/>
      <point x="460" y="738" type="curve"/>
      <point x="419" y="767"/>
      <point x="367" y="782"/>
      <point x="306" y="782" type="curve"/>
      <point x="175" y="782"/>
      <point x="85" y="722"/>
      <point x="34" y="603" type="curve"/>
      <point x="11" y="547"/>
      <point x="-1" y="482"/>
      <point x="-1" y="408" type="curve"/>
      <point x="-1" y="202"/>
      <point x="51" y="83"/>
      <point x="155" y="50" type="curve"/>
      <point x="134" y="13"/>
      <point x="123" y="-25"/>
      <point x="123" y="-64" type="curve"/>
      <point x="123" y="-113"/>
      <point x="133" y="-152"/>
      <point x="153" y="-182" type="curve"/>
      <point x="243" y="-182" type="line"/>
      <point x="218" y="-147"/>
      <point x="205" y="-108"/>
      <point x="205" y="-63" type="curve"/>
      <point x="205" y="-26"/>
      <point x="212" y="9"/>
      <point x="225" y="40" type="curve"/>
      <point x="229" y="40" type="line"/>
      <point x="296" y="40"/>
      <point x="347" y="78"/>
      <point x="382" y="153" type="curve"/>
      <point x="397" y="188"/>
      <point x="405" y="228"/>
      <point x="405" y="273" type="curve"/>
      <point x="405" y="295"/>
      <point x="403" y="324"/>
      <point x="398" y="361" type="curve"/>
      <point x="393" y="398"/>
      <point x="388" y="425"/>
      <point x="382" y="444" type="curve"/>
      <point x="78" y="444" type="line"/>
      <point x="80" y="546"/>
      <point x="115" y="620"/>
      <point x="182" y="666" type="curve"/>
      <point x="216" y="688"/>
      <point x="257" y="699"/>
      <point x="306" y="699" type="curve"/>
      <point x="376" y="699"/>
      <point x="429" y="671"/>
      <point x="466" y="616" type="curve"/>
      <point x="503" y="561"/>
      <point x="525" y="477"/>
      <point x="533" y="364" type="curve"/>
      <point x="552" y="96" type="line"/>
      <point x="618" y="96" type="line"/>
      <point x="637" y="364" type="line"/>
      <point x="847" y="364" type="line"/>
      <point x="950" y="367"/>
      <point x="1001" y="326"/>
      <point x="1001" y="243" type="curve"/>
      <point x="1001" y="212"/>
      <point x="993" y="180"/>
      <point x="976" y="149" type="curve"/>
      <point x="959" y="117"/>
      <point x="932" y="77"/>
      <point x="894" y="28" type="curve"/>
      <point x="863" y="-13"/>
      <point x="839" y="-50"/>
      <point x="823" y="-83" type="curve"/>
      <point x="807" y="-116"/>
      <point x="799" y="-151"/>
      <point x="799" y="-187" type="curve"/>
      <point x="799" y="-214"/>
      <point x="805" y="-239"/>
    </contour>
  </outline>
</glyph>
<glyph name="_FAa.isol" format="2">
  <advance width="1170"/>
  <outline>
    <contour>
      <point x="264" y="123" type="curve"/>
      <point x="173" y="123"/>
      <point x="127" y="203"/>
      <point x="124" y="364" type="curve"/>
      <point x="362" y="364" type="line"/>
      <point x="369" y="345"/>
      <point x="372" y="314"/>
      <point x="372" y="271" type="curve"/>
      <point x="372" y="227"/>
      <point x="363" y="191"/>
      <point x="344" y="164" type="curve"/>
      <point x="325" y="137"/>
      <point x="299" y="123"/>
    </contour>
    <contour>
      <point x="864" y="-264" type="curve"/>
      <point x="946" y="-264" type="line"/>
      <point x="932" y="-237"/>
      <point x="925" y="-212"/>
      <point x="925" y="-187" type="curve"/>
      <point x="925" y="-157"/>
      <point x="930" y="-132"/>
      <point x="940" y="-111" type="curve"/>
      <point x="949" y="-90"/>
      <point x="967" y="-64"/>
      <point x="992" y="-31" type="curve"/>
      <point x="1035" y="25"/>
      <point x="1068" y="75"/>
      <point x="1091" y="119" type="curve"/>
      <point x="1114" y="162"/>
      <point x="1125" y="204"/>
      <point x="1125" y="245" type="curve"/>
      <point x="1123" y="378"/>
      <point x="1046" y="444"/>
      <point x="894" y="444" type="curve"/>
      <point x="652" y="444" type="line"/>
      <point x="635" y="579"/>
      <point x="586" y="677"/>
      <point x="506" y="738" type="curve"/>
      <point x="465" y="767"/>
      <point x="413" y="782"/>
      <point x="352" y="782" type="curve"/>
      <point x="221" y="782"/>
      <point x="131" y="722"/>
      <point x="80" y="603" type="curve"/>
      <point x="57" y="547"/>
      <point x="45" y="482"/>
      <point x="45" y="408" type="curve"/>
      <point x="45" y="202"/>
      <point x="97" y="83"/>
      <point x="201" y="50" type="curve"/>
      <point x="180" y="13"/>
      <point x="169" y="-25"/>
      <point x="169" y="-64" type="curve"/>
      <point x="169" y="-113"/>
      <point x="179" y="-152"/>
      <point x="199" y="-182" type="curve"/>
      <point x="289" y="-182" type="line"/>
      <point x="264" y="-147"/>
      <point x="251" y="-108"/>
      <point x="251" y="-63" type="curve"/>
      <point x="251" y="-26"/>
      <point x="258" y="9"/>
      <point x="271" y="40" type="curve"/>
      <point x="275" y="40" type="line"/>
      <point x="342" y="40"/>
      <point x="393" y="78"/>
      <point x="428" y="153" type="curve"/>
      <point x="443" y="188"/>
      <point x="451" y="228"/>
      <point x="451" y="273" type="curve"/>
      <point x="451" y="295"/>
      <point x="449" y="324"/>
      <point x="444" y="361" type="curve"/>
      <point x="439" y="398"/>
      <point x="434" y="425"/>
      <point x="428" y="444" type="curve"/>
      <point x="124" y="444" type="line"/>
      <point x="126" y="546"/>
      <point x="161" y="620"/>
      <point x="228" y="666" type="curve"/>
      <point x="262" y="688"/>
      <point x="303" y="699"/>
      <point x="352" y="699" type="curve"/>
      <point x="422" y="699"/>
      <point x="475" y="671"/>
      <point x="512" y="616" type="curve"/>
      <point x="549" y="561"/>
      <point x="571" y="477"/>
      <point x="579" y="364" type="curve"/>
      <point x="598" y="96" type="line"/>
      <point x="664" y="96" type="line"/>
      <point x="683" y="364" type="line"/>
      <point x="893" y="364" type="line"/>
      <point x="996" y="367"/>
      <point x="1047" y="326"/>
      <point x="1047" y="243" type="curve"/>
      <point x="1047" y="212"/>
      <point x="1039" y="180"/>
      <point x="1022" y="149" type="curve"/>
      <point x="1005" y="117"/>
      <point x="978" y="77"/>
      <point x="940" y="28" type="curve"/>
      <point x="909" y="-13"/>
      <point x="885" y="-50"/>
      <point x="869" y="-83" type="curve"/>
      <point x="853" y="-116"/>
      <point x="845" y="-151"/>
      <point x="845" y="-187" type="curve"/>
      <point x="845" y="-214"/>
      <point x="851" y="-239"/>
    </contour>
  </outline>
</glyph>
<glyph name="_FI.fina" format="2">
  <advance width="1167"/>
  <outline>
    <contour>
      <point x="264" y="123" type="curve"/>
      <point x="173" y="123"/>
      <point x="127" y="203"/>
      <point x="124" y="364" type="curve"/>
      <point x="362" y="364" type="line"/>
      <point x="369" y="346"/>
      <point x="372" y="316"/>
      <point x="372" y="275" type="curve"/>
      <point x="372" y="230"/>
      <point x="363" y="194"/>
      <point x="345" y="166" type="curve"/>
      <point x="326" y="137"/>
      <point x="299" y="123"/>
    </contour>
    <contour>
      <point x="199" y="-182" type="curve"/>
      <point x="289" y="-182" type="line"/>
      <point x="264" y="-147"/>
      <point x="251" y="-108"/>
      <point x="251" y="-63" type="curve"/>
      <point x="251" y="-26"/>
      <point x="258" y="9"/>
      <point x="271" y="40" type="curve"/>
      <point x="277" y="40" type="line"/>
      <point x="342" y="40"/>
      <point x="393" y="78"/>
      <point x="428" y="153" type="curve"/>
      <point x="443" y="188"/>
      <point x="451" y="228"/>
      <point x="451" y="273" type="curve"/>
      <point x="451" y="295"/>
      <point x="449" y="324"/>
      <point x="444" y="361" type="curve"/>
      <point x="439" y="398"/>
      <point x="434" y="425"/>
      <point x="428" y="444" type="curve"/>
      <point x="124" y="444" type="line"/>
      <point x="125" y="545"/>
      <point x="156" y="619"/>
      <point x="217" y="666" type="curve"/>
      <point x="248" y="688"/>
      <point x="285" y="699"/>
      <point x="330" y="699" type="curve"/>
      <point x="375" y="699"/>
      <point x="413" y="688"/>
      <point x="442" y="666" type="curve"/>
      <point x="471" y="643"/>
      <point x="495" y="610"/>
      <point x="513" y="567" type="curve"/>
      <point x="530" y="525"/>
      <point x="543" y="475"/>
      <point x="552" y="418" type="curve"/>
      <point x="567" y="328"/>
      <point x="589" y="247"/>
      <point x="616" y="176" type="curve"/>
      <point x="641" y="111"/>
      <point x="678" y="30"/>
      <point x="729" y="-67" type="curve"/>
      <point x="802" y="-31" type="line"/>
      <point x="721" y="113"/>
      <point x="667" y="245"/>
      <point x="642" y="364" type="curve"/>
      <point x="947" y="364" type="line"/>
      <point x="982" y="364"/>
      <point x="1007" y="357"/>
      <point x="1022" y="343" type="curve"/>
      <point x="1037" y="328"/>
      <point x="1045" y="307"/>
      <point x="1045" y="279" type="curve"/>
      <point x="1045" y="234"/>
      <point x="1038" y="195"/>
      <point x="1023" y="162" type="curve"/>
      <point x="1097" y="162" type="line"/>
      <point x="1114" y="198"/>
      <point x="1122" y="237"/>
      <point x="1122" y="279" type="curve"/>
      <point x="1123" y="389"/>
      <point x="1064" y="444"/>
      <point x="947" y="444" type="curve"/>
      <point x="627" y="444" type="line"/>
      <point x="602" y="589"/>
      <point x="554" y="688"/>
      <point x="481" y="741" type="curve"/>
      <point x="442" y="768"/>
      <point x="391" y="782"/>
      <point x="330" y="782" type="curve"/>
      <point x="267" y="782"/>
      <point x="215" y="766"/>
      <point x="172" y="735" type="curve"/>
      <point x="129" y="704"/>
      <point x="97" y="659"/>
      <point x="76" y="601" type="curve"/>
      <point x="55" y="544"/>
      <point x="45" y="480"/>
      <point x="45" y="408" type="curve"/>
      <point x="45" y="202"/>
      <point x="97" y="83"/>
      <point x="201" y="50" type="curve"/>
      <point x="180" y="13"/>
      <point x="169" y="-25"/>
      <point x="169" y="-64" type="curve"/>
      <point x="169" y="-113"/>
      <point x="179" y="-152"/>
    </contour>
  </outline>
</glyph>
<glyph name="_FI.medi" format="2">
  <advance width="871"/>
  <outline>
    <contour>
      <point x="218" y="123" type="curve"/>
      <point x="127" y="123"/>
      <point x="81" y="203"/>
      <point x="78" y="364" type="curve"/>
      <point x="316" y="364" type="line"/>
      <point x="323" y="346"/>
      <point x="326" y="316"/>
      <point x="326" y="275" type="curve"/>
      <point x="326" y="230"/>
      <point x="317" y="194"/>
      <point x="299" y="166" type="curve"/>
      <point x="280" y="137"/>
      <point x="253" y="123"/>
    </contour>
    <contour>
      <point x="153" y="-182" type="curve"/>
      <point x="243" y="-182" type="line"/>
      <point x="218" y="-147"/>
      <point x="205" y="-108"/>
      <point x="205" y="-63" type="curve"/>
      <point x="205" y="-26"/>
      <point x="212" y="9"/>
      <point x="225" y="40" type="curve"/>
      <point x="230" y="40" type="line"/>
      <point x="297" y="40"/>
      <point x="348" y="78"/>
      <point x="382" y="153" type="curve"/>
      <point x="397" y="189"/>
      <point x="405" y="229"/>
      <point x="405" y="274" type="curve"/>
      <point x="405" y="294"/>
      <point x="403" y="323"/>
      <point x="398" y="360" type="curve"/>
      <point x="393" y="397"/>
      <point x="388" y="425"/>
      <point x="382" y="444" type="curve"/>
      <point x="78" y="444" type="line"/>
      <point x="79" y="545"/>
      <point x="110" y="619"/>
      <point x="171" y="666" type="curve"/>
      <point x="202" y="688"/>
      <point x="239" y="699"/>
      <point x="284" y="699" type="curve"/>
      <point x="329" y="699"/>
      <point x="367" y="688"/>
      <point x="396" y="666" type="curve"/>
      <point x="425" y="643"/>
      <point x="449" y="610"/>
      <point x="467" y="567" type="curve"/>
      <point x="484" y="525"/>
      <point x="497" y="475"/>
      <point x="506" y="418" type="curve"/>
      <point x="521" y="328"/>
      <point x="543" y="247"/>
      <point x="570" y="176" type="curve"/>
      <point x="595" y="111"/>
      <point x="632" y="30"/>
      <point x="683" y="-67" type="curve"/>
      <point x="756" y="-31" type="line"/>
      <point x="675" y="113"/>
      <point x="621" y="245"/>
      <point x="596" y="364" type="curve"/>
      <point x="901" y="364" type="line"/>
      <point x="901" y="444" type="line"/>
      <point x="581" y="444" type="line"/>
      <point x="556" y="589"/>
      <point x="508" y="688"/>
      <point x="435" y="741" type="curve"/>
      <point x="396" y="768"/>
      <point x="345" y="782"/>
      <point x="284" y="782" type="curve"/>
      <point x="221" y="782"/>
      <point x="169" y="766"/>
      <point x="126" y="735" type="curve"/>
      <point x="83" y="704"/>
      <point x="51" y="659"/>
      <point x="30" y="601" type="curve"/>
      <point x="9" y="544"/>
      <point x="-1" y="480"/>
      <point x="-1" y="408" type="curve"/>
      <point x="-1" y="202"/>
      <point x="51" y="83"/>
      <point x="155" y="50" type="curve"/>
      <point x="134" y="13"/>
      <point x="123" y="-25"/>
      <point x="123" y="-64" type="curve"/>
      <point x="123" y="-113"/>
      <point x="133" y="-152"/>
    </contour>
  </outline>
</glyph>
<glyph name="_FO.fina" format="2">
  <advance width="751"/>
  <outline>
    <contour>
      <point x="622" y="444" type="curve"/>
      <point x="81" y="444" type="line"/>
      <point x="90" y="527"/>
      <point x="118" y="590"/>
      <point x="165" y="634" type="curve"/>
      <point x="211" y="677"/>
      <point x="276" y="699"/>
      <point x="359" y="699" type="curve"/>
      <point x="459" y="699"/>
      <point x="532" y="659"/>
      <point x="579" y="578" type="curve"/>
      <point x="601" y="539"/>
      <point x="615" y="495"/>
    </contour>
    <contour>
      <point x="202" y="123" type="curve"/>
      <point x="169" y="123"/>
      <point x="143" y="133"/>
      <point x="125" y="153" type="curve"/>
      <point x="106" y="172"/>
      <point x="94" y="201"/>
      <point x="88" y="240" type="curve"/>
      <point x="81" y="276"/>
      <point x="78" y="317"/>
      <point x="78" y="364" type="curve"/>
      <point x="313" y="364" type="line"/>
      <point x="313" y="281" type="line"/>
      <point x="313" y="234"/>
      <point x="303" y="196"/>
      <point x="284" y="167" type="curve"/>
      <point x="265" y="138"/>
      <point x="237" y="123"/>
    </contour>
    <contour>
      <point x="492" y="123" type="curve"/>
      <point x="425" y="123"/>
      <point x="392" y="177"/>
      <point x="392" y="286" type="curve"/>
      <point x="392" y="364" type="line"/>
      <point x="627" y="364" type="line"/>
      <point x="626" y="247"/>
      <point x="607" y="175"/>
      <point x="571" y="147" type="curve"/>
      <point x="552" y="131"/>
      <point x="525" y="123"/>
    </contour>
    <contour>
      <point x="152" y="-182" type="curve"/>
      <point x="242" y="-182" type="line"/>
      <point x="217" y="-147"/>
      <point x="204" y="-108"/>
      <point x="204" y="-63" type="curve"/>
      <point x="204" y="-24"/>
      <point x="211" y="11"/>
      <point x="225" y="41" type="curve"/>
      <point x="283" y="48"/>
      <point x="325" y="80"/>
      <point x="350" y="135" type="curve"/>
      <point x="380" y="72"/>
      <point x="427" y="40"/>
      <point x="492" y="40" type="curve"/>
      <point x="565" y="40"/>
      <point x="619" y="67"/>
      <point x="654" y="122" type="curve"/>
      <point x="689" y="176"/>
      <point x="706" y="260"/>
      <point x="706" y="375" type="curve"/>
      <point x="706" y="453"/>
      <point x="693" y="523"/>
      <point x="666" y="584" type="curve"/>
      <point x="639" y="645"/>
      <point x="601" y="694"/>
      <point x="550" y="729" type="curve"/>
      <point x="499" y="764"/>
      <point x="435" y="782"/>
      <point x="359" y="782" type="curve"/>
      <point x="284" y="782"/>
      <point x="220" y="765"/>
      <point x="167" y="732" type="curve"/>
      <point x="113" y="698"/>
      <point x="71" y="650"/>
      <point x="42" y="588" type="curve"/>
      <point x="13" y="527"/>
      <point x="-1" y="456"/>
      <point x="-1" y="375" type="curve"/>
      <point x="-1" y="276"/>
      <point x="12" y="199"/>
      <point x="37" y="145" type="curve"/>
      <point x="62" y="90"/>
      <point x="101" y="57"/>
      <point x="152" y="45" type="curve"/>
      <point x="132" y="10"/>
      <point x="122" y="-26"/>
      <point x="122" y="-64" type="curve"/>
      <point x="122" y="-113"/>
      <point x="132" y="-152"/>
    </contour>
  </outline>
</glyph>
<glyph name="_FO.isol" format="2">
  <advance width="797"/>
  <outline>
    <contour>
      <point x="668" y="444" type="curve"/>
      <point x="127" y="444" type="line"/>
      <point x="136" y="527"/>
      <point x="164" y="590"/>
      <point x="211" y="634" type="curve"/>
      <point x="257" y="677"/>
      <point x="322" y="699"/>
      <point x="405" y="699" type="curve"/>
      <point x="505" y="699"/>
      <point x="578" y="659"/>
      <point x="625" y="578" type="curve"/>
      <point x="647" y="539"/>
      <point x="661" y="495"/>
    </contour>
    <contour>
      <point x="248" y="123" type="curve"/>
      <point x="215" y="123"/>
      <point x="189" y="133"/>
      <point x="171" y="153" type="curve"/>
      <point x="152" y="172"/>
      <point x="140" y="201"/>
      <point x="134" y="240" type="curve"/>
      <point x="127" y="276"/>
      <point x="124" y="317"/>
      <point x="124" y="364" type="curve"/>
      <point x="359" y="364" type="line"/>
      <point x="359" y="281" type="line"/>
      <point x="359" y="234"/>
      <point x="349" y="196"/>
      <point x="330" y="167" type="curve"/>
      <point x="311" y="138"/>
      <point x="283" y="123"/>
    </contour>
    <contour>
      <point x="538" y="123" type="curve"/>
      <point x="471" y="123"/>
      <point x="438" y="177"/>
      <point x="438" y="286" type="curve"/>
      <point x="438" y="364" type="line"/>
      <point x="673" y="364" type="line"/>
      <point x="672" y="247"/>
      <point x="653" y="175"/>
      <point x="617" y="147" type="curve"/>
      <point x="598" y="131"/>
      <point x="571" y="123"/>
    </contour>
    <contour>
      <point x="198" y="-182" type="curve"/>
      <point x="288" y="-182" type="line"/>
      <point x="263" y="-147"/>
      <point x="250" y="-108"/>
      <point x="250" y="-63" type="curve"/>
      <point x="250" y="-24"/>
      <point x="257" y="11"/>
      <point x="271" y="41" type="curve"/>
      <point x="329" y="48"/>
      <point x="371" y="80"/>
      <point x="396" y="135" type="curve"/>
      <point x="426" y="72"/>
      <point x="473" y="40"/>
      <point x="538" y="40" type="curve"/>
      <point x="611" y="40"/>
      <point x="665" y="67"/>
      <point x="700" y="122" type="curve"/>
      <point x="735" y="176"/>
      <point x="752" y="260"/>
      <point x="752" y="375" type="curve"/>
      <point x="752" y="453"/>
      <point x="739" y="523"/>
      <point x="712" y="584" type="curve"/>
      <point x="685" y="645"/>
      <point x="647" y="694"/>
      <point x="596" y="729" type="curve"/>
      <point x="545" y="764"/>
      <point x="481" y="782"/>
      <point x="405" y="782" type="curve"/>
      <point x="330" y="782"/>
      <point x="266" y="765"/>
      <point x="213" y="732" type="curve"/>
      <point x="159" y="698"/>
      <point x="117" y="650"/>
      <point x="88" y="588" type="curve"/>
      <point x="59" y="527"/>
      <point x="45" y="456"/>
      <point x="45" y="375" type="curve"/>
      <point x="45" y="276"/>
      <point x="58" y="199"/>
      <point x="83" y="145" type="curve"/>
      <point x="108" y="90"/>
      <point x="147" y="57"/>
      <point x="198" y="45" type="curve"/>
      <point x="178" y="10"/>
      <point x="168" y="-26"/>
      <point x="168" y="-64" type="curve"/>
      <point x="168" y="-113"/>
      <point x="178" y="-152"/>
    </contour>
  </outline>
</glyph>
<glyph name="_FO.medi" format="2">
  <advance width="887"/>
  <outline>
    <contour>
      <point x="622" y="444" type="curve"/>
      <point x="81" y="444" type="line"/>
      <point x="91" y="527"/>
      <point x="119" y="590"/>
      <point x="165" y="634" type="curve"/>
      <point x="211" y="677"/>
      <point x="276" y="699"/>
      <point x="359" y="699" type="curve"/>
      <point x="459" y="699"/>
      <point x="532" y="659"/>
      <point x="579" y="578" type="curve"/>
      <point x="601" y="539"/>
      <point x="615" y="495"/>
    </contour>
    <contour>
      <point x="203" y="123" type="curve"/>
      <point x="170" y="123"/>
      <point x="144" y="133"/>
      <point x="125" y="153" type="curve"/>
      <point x="106" y="172"/>
      <point x="94" y="201"/>
      <point x="88" y="239" type="curve"/>
      <point x="81" y="276"/>
      <point x="78" y="317"/>
      <point x="78" y="364" type="curve"/>
      <point x="313" y="364" type="line"/>
      <point x="313" y="285" type="line"/>
      <point x="313" y="237"/>
      <point x="304" y="198"/>
      <point x="285" y="168" type="curve"/>
      <point x="266" y="138"/>
      <point x="239" y="123"/>
    </contour>
    <contour>
      <point x="492" y="123" type="curve"/>
      <point x="425" y="123"/>
      <point x="392" y="177"/>
      <point x="392" y="286" type="curve"/>
      <point x="392" y="364" type="line"/>
      <point x="627" y="364" type="line"/>
      <point x="626" y="247"/>
      <point x="607" y="175"/>
      <point x="571" y="147" type="curve"/>
      <point x="552" y="131"/>
      <point x="525" y="123"/>
    </contour>
    <contour>
      <point x="152" y="-182" type="curve"/>
      <point x="242" y="-182" type="line"/>
      <point x="217" y="-147"/>
      <point x="204" y="-108"/>
      <point x="204" y="-63" type="curve"/>
      <point x="204" y="-24"/>
      <point x="211" y="11"/>
      <point x="225" y="41" type="curve"/>
      <point x="283" y="48"/>
      <point x="325" y="80"/>
      <point x="350" y="135" type="curve"/>
      <point x="380" y="72"/>
      <point x="427" y="40"/>
      <point x="492" y="40" type="curve"/>
      <point x="635" y="40"/>
      <point x="707" y="148"/>
      <point x="706" y="364" type="curve"/>
      <point x="917" y="364" type="line"/>
      <point x="917" y="444" type="line"/>
      <point x="702" y="444" type="line"/>
      <point x="685" y="585"/>
      <point x="628" y="684"/>
      <point x="529" y="741" type="curve"/>
      <point x="481" y="768"/>
      <point x="424" y="782"/>
      <point x="359" y="782" type="curve"/>
      <point x="284" y="782"/>
      <point x="220" y="765"/>
      <point x="167" y="732" type="curve"/>
      <point x="113" y="698"/>
      <point x="71" y="650"/>
      <point x="42" y="588" type="curve"/>
      <point x="13" y="527"/>
      <point x="-1" y="456"/>
      <point x="-1" y="375" type="curve"/>
      <point x="-1" y="276"/>
      <point x="12" y="199"/>
      <point x="37" y="145" type="curve"/>
      <point x="62" y="90"/>
      <point x="101" y="57"/>
      <point x="152" y="45" type="curve"/>
      <point x="132" y="10"/>
      <point x="122" y="-26"/>
      <point x="122" y="-64" type="curve"/>
      <point x="122" y="-113"/>
      <point x="132" y="-152"/>
    </contour>
  </outline>
</glyph>
<glyph name="_FUe.fina" format="2">
  <advance width="1137"/>
  <outline>
    <contour>
      <point x="622" y="444" type="curve"/>
      <point x="81" y="444" type="line"/>
      <point x="90" y="527"/>
      <point x="118" y="590"/>
      <point x="165" y="634" type="curve"/>
      <point x="211" y="677"/>
      <point x="276" y="699"/>
      <point x="359" y="699" type="curve"/>
      <point x="459" y="699"/>
      <point x="532" y="659"/>
      <point x="579" y="578" type="curve"/>
      <point x="601" y="539"/>
      <point x="615" y="495"/>
    </contour>
    <contour>
      <point x="203" y="123" type="curve"/>
      <point x="170" y="123"/>
      <point x="144" y="133"/>
      <point x="125" y="153" type="curve"/>
      <point x="106" y="172"/>
      <point x="94" y="201"/>
      <point x="88" y="239" type="curve"/>
      <point x="81" y="276"/>
      <point x="78" y="317"/>
      <point x="78" y="364" type="curve"/>
      <point x="313" y="364" type="line"/>
      <point x="313" y="286" type="line"/>
      <point x="313" y="238"/>
      <point x="304" y="199"/>
      <point x="285" y="169" type="curve"/>
      <point x="266" y="138"/>
      <point x="239" y="123"/>
    </contour>
    <contour>
      <point x="492" y="123" type="curve"/>
      <point x="425" y="123"/>
      <point x="392" y="177"/>
      <point x="392" y="286" type="curve"/>
      <point x="392" y="364" type="line"/>
      <point x="627" y="364" type="line"/>
      <point x="626" y="247"/>
      <point x="607" y="175"/>
      <point x="571" y="147" type="curve"/>
      <point x="552" y="131"/>
      <point x="525" y="123"/>
    </contour>
    <contour>
      <point x="152" y="-182" type="curve"/>
      <point x="242" y="-182" type="line"/>
      <point x="217" y="-147"/>
      <point x="204" y="-108"/>
      <point x="204" y="-63" type="curve"/>
      <point x="204" y="-24"/>
      <point x="211" y="11"/>
      <point x="225" y="41" type="curve"/>
      <point x="283" y="48"/>
      <point x="325" y="80"/>
      <point x="350" y="135" type="curve"/>
      <point x="380" y="72"/>
      <point x="427" y="40"/>
      <point x="492" y="40" type="curve"/>
      <point x="635" y="40"/>
      <point x="707" y="148"/>
      <point x="706" y="364" type="curve"/>
      <point x="917" y="364" type="line"/>
      <point x="952" y="364"/>
      <point x="977" y="357"/>
      <point x="992" y="343" type="curve"/>
      <point x="1007" y="328"/>
      <point x="1015" y="307"/>
      <point x="1015" y="279" type="curve"/>
      <point x="1015" y="235"/>
      <point x="1008" y="196"/>
      <point x="993" y="162" type="curve"/>
      <point x="1067" y="162" type="line"/>
      <point x="1084" y="197"/>
      <point x="1092" y="236"/>
      <point x="1092" y="279" type="curve"/>
      <point x="1093" y="389"/>
      <point x="1034" y="444"/>
      <point x="917" y="444" type="curve"/>
      <point x="702" y="444" type="line"/>
      <point x="685" y="585"/>
      <point x="627" y="684"/>
      <point x="528" y="741" type="curve"/>
      <point x="479" y="768"/>
      <point x="423" y="782"/>
      <point x="359" y="782" type="curve"/>
      <point x="284" y="782"/>
      <point x="220" y="765"/>
      <point x="167" y="732" type="curve"/>
      <point x="113" y="698"/>
      <point x="71" y="650"/>
      <point x="42" y="588" type="curve"/>
      <point x="13" y="527"/>
      <point x="-1" y="456"/>
      <point x="-1" y="375" type="curve"/>
      <point x="-1" y="276"/>
      <point x="12" y="199"/>
      <point x="37" y="145" type="curve"/>
      <point x="62" y="90"/>
      <point x="101" y="57"/>
      <point x="152" y="45" type="curve"/>
      <point x="132" y="10"/>
      <point x="122" y="-26"/>
      <point x="122" y="-64" type="curve"/>
      <point x="122" y="-113"/>
      <point x="132" y="-152"/>
    </contour>
  </outline>
</glyph>
<glyph name="_FUe.isol" format="2">
  <advance width="1183"/>
  <outline>
    <contour>
      <point x="668" y="444" type="curve"/>
      <point x="127" y="444" type="line"/>
      <point x="136" y="527"/>
      <point x="164" y="590"/>
      <point x="211" y="634" type="curve"/>
      <point x="257" y="677"/>
      <point x="322" y="699"/>
      <point x="405" y="699" type="curve"/>
      <point x="505" y="699"/>
      <point x="578" y="659"/>
      <point x="625" y="578" type="curve"/>
      <point x="647" y="539"/>
      <point x="661" y="495"/>
    </contour>
    <contour>
      <point x="249" y="123" type="curve"/>
      <point x="216" y="123"/>
      <point x="190" y="133"/>
      <point x="171" y="153" type="curve"/>
      <point x="152" y="172"/>
      <point x="140" y="201"/>
      <point x="134" y="239" type="curve"/>
      <point x="127" y="276"/>
      <point x="124" y="317"/>
      <point x="124" y="364" type="curve"/>
      <point x="359" y="364" type="line"/>
      <point x="359" y="286" type="line"/>
      <point x="359" y="238"/>
      <point x="350" y="199"/>
      <point x="331" y="169" type="curve"/>
      <point x="312" y="138"/>
      <point x="285" y="123"/>
    </contour>
    <contour>
      <point x="538" y="123" type="curve"/>
      <point x="471" y="123"/>
      <point x="438" y="177"/>
      <point x="438" y="286" type="curve"/>
      <point x="438" y="364" type="line"/>
      <point x="673" y="364" type="line"/>
      <point x="672" y="247"/>
      <point x="653" y="175"/>
      <point x="617" y="147" type="curve"/>
      <point x="598" y="131"/>
      <point x="571" y="123"/>
    </contour>
    <contour>
      <point x="198" y="-182" type="curve"/>
      <point x="288" y="-182" type="line"/>
      <point x="263" y="-147"/>
      <point x="250" y="-108"/>
      <point x="250" y="-63" type="curve"/>
      <point x="250" y="-24"/>
      <point x="257" y="11"/>
      <point x="271" y="41" type="curve"/>
      <point x="329" y="48"/>
      <point x="371" y="80"/>
      <point x="396" y="135" type="curve"/>
      <point x="426" y="72"/>
      <point x="473" y="40"/>
      <point x="538" y="40" type="curve"/>
      <point x="681" y="40"/>
      <point x="753" y="148"/>
      <point x="752" y="364" type="curve"/>
      <point x="963" y="364" type="line"/>
      <point x="998" y="364"/>
      <point x="1023" y="357"/>
      <point x="1038" y="343" type="curve"/>
      <point x="1053" y="328"/>
      <point x="1061" y="307"/>
      <point x="1061" y="279" type="curve"/>
      <point x="1061" y="235"/>
      <point x="1054" y="196"/>
      <point x="1039" y="162" type="curve"/>
      <point x="1113" y="162" type="line"/>
      <point x="1130" y="197"/>
      <point x="1138" y="236"/>
      <point x="1138" y="279" type="curve"/>
      <point x="1139" y="389"/>
      <point x="1080" y="444"/>
      <point x="963" y="444" type="curve"/>
      <point x="748" y="444" type="line"/>
      <point x="731" y="585"/>
      <point x="673" y="684"/>
      <point x="574" y="741" type="curve"/>
      <point x="525" y="768"/>
      <point x="469" y="782"/>
      <point x="405" y="782" type="curve"/>
      <point x="330" y="782"/>
      <point x="266" y="765"/>
      <point x="213" y="732" type="curve"/>
      <point x="159" y="698"/>
      <point x="117" y="650"/>
      <point x="88" y="588" type="curve"/>
      <point x="59" y="527"/>
      <point x="45" y="456"/>
      <point x="45" y="375" type="curve"/>
      <point x="45" y="276"/>
      <point x="58" y="199"/>
      <point x="83" y="145" type="curve"/>
      <point x="108" y="90"/>
      <point x="147" y="57"/>
      <point x="198" y="45" type="curve"/>
      <point x="178" y="10"/>
      <point x="168" y="-26"/>
      <point x="168" y="-64" type="curve"/>
      <point x="168" y="-113"/>
      <point x="178" y="-152"/>
    </contour>
  </outline>
</glyph>
<glyph name="_G.fina" format="2">
  <advance width="668"/>
  <outline>
    <contour>
      <point x="362" y="-264" type="curve"/>
      <point x="444" y="-264" type="line"/>
      <point x="430" y="-237"/>
      <point x="423" y="-212"/>
      <point x="423" y="-187" type="curve"/>
      <point x="423" y="-158"/>
      <point x="428" y="-133"/>
      <point x="439" y="-111" type="curve"/>
      <point x="449" y="-90"/>
      <point x="466" y="-63"/>
      <point x="490" y="-31" type="curve"/>
      <point x="542" y="37"/>
      <point x="577" y="91"/>
      <point x="595" y="131" type="curve"/>
      <point x="614" y="171"/>
      <point x="623" y="209"/>
      <point x="623" y="245" type="curve"/>
      <point x="621" y="378"/>
      <point x="544" y="444"/>
      <point x="392" y="444" type="curve"/>
      <point x="0" y="444" type="line"/>
      <point x="0" y="364" type="line"/>
      <point x="39" y="220"/>
      <point x="96" y="76"/>
      <point x="173" y="-67" type="curve"/>
      <point x="246" y="-31" type="line"/>
      <point x="173" y="98"/>
      <point x="118" y="229"/>
      <point x="79" y="364" type="curve"/>
      <point x="391" y="364" type="line"/>
      <point x="494" y="365"/>
      <point x="545" y="325"/>
      <point x="545" y="245" type="curve"/>
      <point x="545" y="222"/>
      <point x="542" y="202"/>
      <point x="536" y="184" type="curve"/>
      <point x="529" y="166"/>
      <point x="518" y="145"/>
      <point x="503" y="120" type="curve"/>
      <point x="488" y="95"/>
      <point x="467" y="65"/>
      <point x="438" y="28" type="curve"/>
      <point x="407" y="-12"/>
      <point x="383" y="-49"/>
      <point x="367" y="-82" type="curve"/>
      <point x="351" y="-115"/>
      <point x="343" y="-150"/>
      <point x="343" y="-187" type="curve"/>
      <point x="343" y="-217"/>
      <point x="349" y="-243"/>
    </contour>
  </outline>
</glyph>
<glyph name="_GAa.fina" format="2">
  <advance width="973"/>
  <outline>
    <contour>
      <point x="667" y="-264" type="curve"/>
      <point x="749" y="-264" type="line"/>
      <point x="735" y="-237"/>
      <point x="728" y="-212"/>
      <point x="728" y="-187" type="curve"/>
      <point x="728" y="-158"/>
      <point x="733" y="-133"/>
      <point x="744" y="-110" type="curve"/>
      <point x="754" y="-88"/>
      <point x="771" y="-62"/>
      <point x="795" y="-31" type="curve"/>
      <point x="838" y="22"/>
      <point x="871" y="71"/>
      <point x="894" y="116" type="curve"/>
      <point x="917" y="161"/>
      <point x="928" y="204"/>
      <point x="928" y="245" type="curve"/>
      <point x="926" y="378"/>
      <point x="849" y="444"/>
      <point x="697" y="444" type="curve"/>
      <point x="455" y="444" type="line"/>
      <point x="441" y="565"/>
      <point x="405" y="648"/>
      <point x="348" y="692" type="curve"/>
      <point x="317" y="715"/>
      <point x="276" y="727"/>
      <point x="226" y="727" type="curve"/>
      <point x="134" y="727"/>
      <point x="67" y="678"/>
      <point x="25" y="581" type="curve"/>
      <point x="6" y="536"/>
      <point x="-3" y="481"/>
      <point x="-3" y="418" type="curve"/>
      <point x="-3" y="299"/>
      <point x="40" y="174"/>
      <point x="126" y="42" type="curve"/>
      <point x="197" y="85" type="line"/>
      <point x="156" y="144"/>
      <point x="125" y="200"/>
      <point x="106" y="251" type="curve"/>
      <point x="86" y="302"/>
      <point x="76" y="358"/>
      <point x="76" y="417" type="curve"/>
      <point x="76" y="492"/>
      <point x="89" y="549"/>
      <point x="116" y="587" type="curve"/>
      <point x="142" y="625"/>
      <point x="179" y="644"/>
      <point x="226" y="644" type="curve"/>
      <point x="265" y="644"/>
      <point x="295" y="633"/>
      <point x="317" y="610" type="curve"/>
      <point x="338" y="587"/>
      <point x="354" y="554"/>
      <point x="363" y="510" type="curve"/>
      <point x="372" y="467"/>
      <point x="378" y="418"/>
      <point x="382" y="361" type="curve"/>
      <point x="401" y="96" type="line"/>
      <point x="467" y="96" type="line"/>
      <point x="486" y="364" type="line"/>
      <point x="696" y="364" type="line"/>
      <point x="799" y="365"/>
      <point x="850" y="325"/>
      <point x="850" y="244" type="curve"/>
      <point x="850" y="212"/>
      <point x="842" y="180"/>
      <point x="825" y="148" type="curve"/>
      <point x="808" y="115"/>
      <point x="781" y="75"/>
      <point x="743" y="28" type="curve"/>
      <point x="712" y="-13"/>
      <point x="688" y="-50"/>
      <point x="672" y="-83" type="curve"/>
      <point x="656" y="-116"/>
      <point x="648" y="-151"/>
      <point x="648" y="-187" type="curve"/>
      <point x="648" y="-217"/>
      <point x="654" y="-243"/>
    </contour>
  </outline>
</glyph>
<glyph name="_GI.fina" format="2">
  <advance width="1012"/>
  <outline>
    <contour>
      <point x="574" y="-67" type="curve"/>
      <point x="647" y="-31" type="line"/>
      <point x="565" y="98"/>
      <point x="511" y="230"/>
      <point x="485" y="364" type="curve"/>
      <point x="792" y="364" type="line"/>
      <point x="827" y="364"/>
      <point x="852" y="357"/>
      <point x="867" y="343" type="curve"/>
      <point x="882" y="328"/>
      <point x="890" y="307"/>
      <point x="890" y="279" type="curve"/>
      <point x="890" y="235"/>
      <point x="883" y="196"/>
      <point x="868" y="162" type="curve"/>
      <point x="942" y="162" type="line"/>
      <point x="959" y="198"/>
      <point x="967" y="237"/>
      <point x="967" y="279" type="curve"/>
      <point x="968" y="389"/>
      <point x="909" y="444"/>
      <point x="792" y="444" type="curve"/>
      <point x="475" y="444" type="line"/>
      <point x="461" y="575"/>
      <point x="424" y="667"/>
      <point x="365" y="720" type="curve"/>
      <point x="333" y="747"/>
      <point x="291" y="760"/>
      <point x="239" y="760" type="curve"/>
      <point x="187" y="760"/>
      <point x="143" y="745"/>
      <point x="107" y="716" type="curve"/>
      <point x="70" y="686"/>
      <point x="43" y="644"/>
      <point x="24" y="591" type="curve"/>
      <point x="6" y="539"/>
      <point x="-3" y="481"/>
      <point x="-3" y="417" type="curve"/>
      <point x="-3" y="299"/>
      <point x="40" y="174"/>
      <point x="126" y="42" type="curve"/>
      <point x="197" y="85" type="line"/>
      <point x="156" y="144"/>
      <point x="125" y="200"/>
      <point x="106" y="251" type="curve"/>
      <point x="86" y="302"/>
      <point x="76" y="358"/>
      <point x="76" y="417" type="curve"/>
      <point x="76" y="466"/>
      <point x="82" y="509"/>
      <point x="93" y="548" type="curve"/>
      <point x="104" y="586"/>
      <point x="122" y="617"/>
      <point x="145" y="641" type="curve"/>
      <point x="169" y="665"/>
      <point x="200" y="677"/>
      <point x="239" y="677" type="curve"/>
      <point x="276" y="677"/>
      <point x="304" y="667"/>
      <point x="325" y="647" type="curve"/>
      <point x="346" y="627"/>
      <point x="362" y="597"/>
      <point x="373" y="556" type="curve"/>
      <point x="384" y="517"/>
      <point x="392" y="471"/>
      <point x="399" y="418" type="curve"/>
      <point x="423" y="246"/>
      <point x="481" y="84"/>
    </contour>
  </outline>
</glyph>
<glyph name="_GL.init" format="2">
  <advance width="714"/>
  <outline>
    <contour>
      <point x="377" y="703" type="curve"/>
      <point x="348" y="719"/>
      <point x="314" y="727"/>
      <point x="274" y="727" type="curve"/>
      <point x="229" y="727"/>
      <point x="189" y="715"/>
      <point x="154" y="690" type="curve"/>
      <point x="119" y="665"/>
      <point x="92" y="629"/>
      <point x="73" y="582" type="curve"/>
      <point x="54" y="535"/>
      <point x="45" y="480"/>
      <point x="45" y="417" type="curve"/>
      <point x="45" y="300"/>
      <point x="88" y="175"/>
      <point x="174" y="42" type="curve"/>
      <point x="245" y="85" type="line"/>
      <point x="203" y="147"/>
      <point x="172" y="203"/>
      <point x="153" y="254" type="curve"/>
      <point x="134" y="305"/>
      <point x="124" y="359"/>
      <point x="124" y="417" type="curve"/>
      <point x="124" y="494"/>
      <point x="138" y="551"/>
      <point x="165" y="588" type="curve"/>
      <point x="192" y="625"/>
      <point x="228" y="644"/>
      <point x="274" y="644" type="curve"/>
      <point x="309" y="644"/>
      <point x="337" y="635"/>
      <point x="357" y="618" type="curve"/>
      <point x="377" y="601"/>
      <point x="393" y="573"/>
      <point x="404" y="535" type="curve"/>
      <point x="415" y="496"/>
      <point x="424" y="439"/>
      <point x="430" y="364" type="curve"/>
      <point x="449" y="96" type="line"/>
      <point x="515" y="96" type="line"/>
      <point x="534" y="364" type="line"/>
      <point x="744" y="364" type="line"/>
      <point x="744" y="444" type="line"/>
      <point x="503" y="444" type="line"/>
      <point x="492" y="532"/>
      <point x="471" y="599"/>
      <point x="440" y="645" type="curve"/>
      <point x="444" y="709"/>
      <point x="465" y="775"/>
      <point x="502" y="843" type="curve"/>
      <point x="502" y="909" type="line"/>
      <point x="382" y="909" type="line"/>
      <point x="339" y="909"/>
      <point x="304" y="911"/>
      <point x="277" y="916" type="curve"/>
      <point x="250" y="920"/>
      <point x="225" y="930"/>
      <point x="202" y="945" type="curve"/>
      <point x="202" y="867" type="line"/>
      <point x="220" y="852"/>
      <point x="243" y="842"/>
      <point x="270" y="837" type="curve"/>
      <point x="297" y="832"/>
      <point x="335" y="829"/>
      <point x="382" y="829" type="curve"/>
      <point x="416" y="829" type="line"/>
      <point x="398" y="790"/>
      <point x="385" y="748"/>
    </contour>
  </outline>
</glyph>
<glyph name="_GM.init" format="2">
  <advance width="714"/>
  <outline>
    <contour>
      <point x="256" y="726" type="curve"/>
      <point x="219" y="723"/>
      <point x="185" y="711"/>
      <point x="154" y="690" type="curve"/>
      <point x="119" y="665"/>
      <point x="92" y="629"/>
      <point x="73" y="582" type="curve"/>
      <point x="54" y="535"/>
      <point x="45" y="480"/>
      <point x="45" y="417" type="curve"/>
      <point x="45" y="300"/>
      <point x="88" y="175"/>
      <point x="174" y="42" type="curve"/>
      <point x="245" y="85" type="line"/>
      <point x="203" y="147"/>
      <point x="172" y="203"/>
      <point x="153" y="254" type="curve"/>
      <point x="134" y="305"/>
      <point x="124" y="359"/>
      <point x="124" y="417" type="curve"/>
      <point x="124" y="494"/>
      <point x="138" y="551"/>
      <point x="165" y="588" type="curve"/>
      <point x="192" y="625"/>
      <point x="228" y="644"/>
      <point x="274" y="644" type="curve"/>
      <point x="309" y="644"/>
      <point x="337" y="635"/>
      <point x="357" y="618" type="curve"/>
      <point x="377" y="601"/>
      <point x="393" y="573"/>
      <point x="404" y="535" type="curve"/>
      <point x="415" y="496"/>
      <point x="424" y="439"/>
      <point x="430" y="364" type="curve"/>
      <point x="449" y="96" type="line"/>
      <point x="515" y="96" type="line"/>
      <point x="534" y="364" type="line"/>
      <point x="744" y="364" type="line"/>
      <point x="744" y="444" type="line"/>
      <point x="503" y="444" type="line"/>
      <point x="491" y="541"/>
      <point x="467" y="612"/>
      <point x="431" y="658" type="curve"/>
      <point x="405" y="691"/>
      <point x="370" y="712"/>
      <point x="328" y="722" type="curve"/>
      <point x="322" y="752"/>
      <point x="314" y="786"/>
      <point x="304" y="822" type="curve"/>
      <point x="340" y="822" type="line"/>
      <point x="387" y="822"/>
      <point x="424" y="824"/>
      <point x="451" y="829" type="curve"/>
      <point x="478" y="834"/>
      <point x="500" y="844"/>
      <point x="519" y="860" type="curve"/>
      <point x="519" y="937" type="line"/>
      <point x="484" y="914"/>
      <point x="424" y="902"/>
      <point x="340" y="902" type="curve"/>
      <point x="219" y="902" type="line"/>
      <point x="219" y="836" type="line"/>
      <point x="236" y="793"/>
      <point x="248" y="756"/>
    </contour>
  </outline>
</glyph>
<glyph name="_GM.medi" format="2">
  <advance width="666"/>
  <outline>
    <contour>
      <point x="206" y="726" type="curve"/>
      <point x="169" y="723"/>
      <point x="136" y="711"/>
      <point x="106" y="690" type="curve"/>
      <point x="71" y="665"/>
      <point x="44" y="629"/>
      <point x="25" y="582" type="curve"/>
      <point x="6" y="535"/>
      <point x="-3" y="480"/>
      <point x="-3" y="417" type="curve"/>
      <point x="-3" y="300"/>
      <point x="40" y="175"/>
      <point x="126" y="42" type="curve"/>
      <point x="197" y="85" type="line"/>
      <point x="155" y="147"/>
      <point x="124" y="203"/>
      <point x="105" y="254" type="curve"/>
      <point x="86" y="305"/>
      <point x="76" y="359"/>
      <point x="76" y="417" type="curve"/>
      <point x="76" y="494"/>
      <point x="90" y="551"/>
      <point x="117" y="588" type="curve"/>
      <point x="144" y="625"/>
      <point x="180" y="644"/>
      <point x="226" y="644" type="curve"/>
      <point x="261" y="644"/>
      <point x="289" y="635"/>
      <point x="309" y="618" type="curve"/>
      <point x="329" y="601"/>
      <point x="345" y="573"/>
      <point x="356" y="535" type="curve"/>
      <point x="367" y="496"/>
      <point x="376" y="439"/>
      <point x="382" y="364" type="curve"/>
      <point x="401" y="96" type="line"/>
      <point x="467" y="96" type="line"/>
      <point x="486" y="364" type="line"/>
      <point x="696" y="364" type="line"/>
      <point x="696" y="444" type="line"/>
      <point x="455" y="444" type="line"/>
      <point x="443" y="541"/>
      <point x="419" y="612"/>
      <point x="383" y="658" type="curve"/>
      <point x="356" y="692"/>
      <point x="321" y="713"/>
      <point x="278" y="722" type="curve"/>
      <point x="272" y="752"/>
      <point x="264" y="786"/>
      <point x="254" y="822" type="curve"/>
      <point x="290" y="822" type="line"/>
      <point x="337" y="822"/>
      <point x="374" y="824"/>
      <point x="401" y="829" type="curve"/>
      <point x="428" y="834"/>
      <point x="450" y="844"/>
      <point x="469" y="860" type="curve"/>
      <point x="469" y="937" type="line"/>
      <point x="434" y="914"/>
      <point x="374" y="902"/>
      <point x="290" y="902" type="curve"/>
      <point x="169" y="902" type="line"/>
      <point x="169" y="836" type="line"/>
      <point x="186" y="793"/>
      <point x="198" y="756"/>
    </contour>
  </outline>
</glyph>
<glyph name="_GO.medi" format="2">
  <advance width="838"/>
  <outline>
    <contour>
      <point x="455" y="123" type="curve"/>
      <point x="379" y="124"/>
      <point x="341" y="174"/>
      <point x="341" y="275" type="curve"/>
      <point x="341" y="308"/>
      <point x="346" y="338"/>
      <point x="357" y="364" type="curve"/>
      <point x="576" y="364" type="line"/>
      <point x="577" y="354"/>
      <point x="578" y="344"/>
      <point x="578" y="334" type="curve"/>
      <point x="578" y="303" type="line"/>
      <point x="578" y="236"/>
      <point x="560" y="185"/>
      <point x="524" y="148" type="curve"/>
      <point x="506" y="131"/>
      <point x="483" y="123"/>
    </contour>
    <contour>
      <point x="462" y="40" type="curve"/>
      <point x="538" y="40"/>
      <point x="595" y="82"/>
      <point x="632" y="165" type="curve"/>
      <point x="649" y="204"/>
      <point x="657" y="250"/>
      <point x="657" y="302" type="curve"/>
      <point x="657" y="334" type="line"/>
      <point x="657" y="344"/>
      <point x="656" y="354"/>
      <point x="655" y="364" type="curve"/>
      <point x="868" y="364" type="line"/>
      <point x="868" y="444" type="line"/>
      <point x="646" y="444" type="line"/>
      <point x="607" y="655"/>
      <point x="498" y="760"/>
      <point x="318" y="760" type="curve"/>
      <point x="190" y="760"/>
      <point x="97" y="704"/>
      <point x="38" y="592" type="curve"/>
      <point x="11" y="539"/>
      <point x="-2" y="477"/>
      <point x="-2" y="408" type="curve"/>
      <point x="-2" y="293"/>
      <point x="32" y="171"/>
      <point x="99" y="42" type="curve"/>
      <point x="172" y="73" type="line"/>
      <point x="109" y="198"/>
      <point x="77" y="309"/>
      <point x="77" y="405" type="curve"/>
      <point x="77" y="459"/>
      <point x="86" y="507"/>
      <point x="105" y="548" type="curve"/>
      <point x="124" y="589"/>
      <point x="151" y="620"/>
      <point x="187" y="643" type="curve"/>
      <point x="224" y="666"/>
      <point x="267" y="677"/>
      <point x="318" y="677" type="curve"/>
      <point x="456" y="677"/>
      <point x="539" y="599"/>
      <point x="567" y="444" type="curve"/>
      <point x="300" y="444" type="line"/>
      <point x="288" y="421"/>
      <point x="279" y="394"/>
      <point x="272" y="363" type="curve"/>
      <point x="265" y="332"/>
      <point x="262" y="303"/>
      <point x="262" y="275" type="curve"/>
      <point x="262" y="202"/>
      <point x="279" y="144"/>
      <point x="313" y="103" type="curve"/>
      <point x="347" y="61"/>
      <point x="397" y="40"/>
    </contour>
  </outline>
</glyph>
<glyph name="_GOI.init" format="2">
  <advance width="1180"/>
  <outline>
    <contour>
      <point x="502" y="123" type="curve"/>
      <point x="426" y="124"/>
      <point x="388" y="174"/>
      <point x="388" y="275" type="curve"/>
      <point x="388" y="308"/>
      <point x="393" y="338"/>
      <point x="404" y="364" type="curve"/>
      <point x="623" y="364" type="line"/>
      <point x="624" y="354"/>
      <point x="625" y="344"/>
      <point x="625" y="334" type="curve"/>
      <point x="625" y="303" type="line"/>
      <point x="625" y="236"/>
      <point x="607" y="185"/>
      <point x="571" y="148" type="curve"/>
      <point x="553" y="131"/>
      <point x="530" y="123"/>
    </contour>
    <contour>
      <point x="992" y="-67" type="curve"/>
      <point x="1065" y="-31" type="line"/>
      <point x="992" y="98"/>
      <point x="937" y="229"/>
      <point x="898" y="364" type="curve"/>
      <point x="1210" y="364" type="line"/>
      <point x="1210" y="444" type="line"/>
      <point x="693" y="444" type="line"/>
      <point x="654" y="655"/>
      <point x="545" y="760"/>
      <point x="365" y="760" type="curve"/>
      <point x="237" y="760"/>
      <point x="144" y="704"/>
      <point x="85" y="592" type="curve"/>
      <point x="58" y="539"/>
      <point x="45" y="477"/>
      <point x="45" y="408" type="curve"/>
      <point x="45" y="293"/>
      <point x="79" y="171"/>
      <point x="146" y="42" type="curve"/>
      <point x="219" y="73" type="line"/>
      <point x="156" y="198"/>
      <point x="124" y="309"/>
      <point x="124" y="405" type="curve"/>
      <point x="124" y="459"/>
      <point x="133" y="507"/>
      <point x="152" y="548" type="curve"/>
      <point x="171" y="589"/>
      <point x="198" y="620"/>
      <point x="234" y="643" type="curve"/>
      <point x="271" y="666"/>
      <point x="314" y="677"/>
      <point x="365" y="677" type="curve"/>
      <point x="503" y="677"/>
      <point x="586" y="599"/>
      <point x="614" y="444" type="curve"/>
      <point x="347" y="444" type="line"/>
      <point x="335" y="421"/>
      <point x="326" y="394"/>
      <point x="319" y="363" type="curve"/>
      <point x="312" y="332"/>
      <point x="309" y="303"/>
      <point x="309" y="275" type="curve"/>
      <point x="309" y="202"/>
      <point x="326" y="144"/>
      <point x="360" y="103" type="curve"/>
      <point x="394" y="61"/>
      <point x="444" y="40"/>
      <point x="509" y="40" type="curve"/>
      <point x="582" y="40"/>
      <point x="639" y="81"/>
      <point x="678" y="162" type="curve"/>
      <point x="695" y="201"/>
      <point x="704" y="246"/>
      <point x="704" y="298" type="curve"/>
      <point x="704" y="332" type="line"/>
      <point x="704" y="343"/>
      <point x="703" y="354"/>
      <point x="702" y="364" type="curve"/>
      <point x="819" y="364" type="line"/>
      <point x="858" y="219"/>
      <point x="915" y="75"/>
    </contour>
  </outline>
</glyph>
<glyph name="_GUe.isol" format="2">
  <advance width="1135"/>
  <outline>
    <contour>
      <point x="502" y="123" type="curve"/>
      <point x="426" y="124"/>
      <point x="388" y="174"/>
      <point x="388" y="275" type="curve"/>
      <point x="388" y="308"/>
      <point x="393" y="338"/>
      <point x="404" y="364" type="curve"/>
      <point x="623" y="364" type="line"/>
      <point x="624" y="354"/>
      <point x="625" y="344"/>
      <point x="625" y="334" type="curve"/>
      <point x="625" y="303" type="line"/>
      <point x="625" y="236"/>
      <point x="607" y="185"/>
      <point x="571" y="148" type="curve"/>
      <point x="553" y="131"/>
      <point x="530" y="123"/>
    </contour>
    <contour>
      <point x="510" y="40" type="curve"/>
      <point x="585" y="40"/>
      <point x="642" y="82"/>
      <point x="679" y="165" type="curve"/>
      <point x="696" y="204"/>
      <point x="704" y="250"/>
      <point x="704" y="303" type="curve"/>
      <point x="704" y="334" type="line"/>
      <point x="704" y="344"/>
      <point x="703" y="354"/>
      <point x="702" y="364" type="curve"/>
      <point x="915" y="364" type="line"/>
      <point x="950" y="364"/>
      <point x="975" y="357"/>
      <point x="990" y="343" type="curve"/>
      <point x="1005" y="328"/>
      <point x="1013" y="307"/>
      <point x="1013" y="279" type="curve"/>
      <point x="1013" y="235"/>
      <point x="1006" y="196"/>
      <point x="991" y="162" type="curve"/>
      <point x="1065" y="162" type="line"/>
      <point x="1082" y="196"/>
      <point x="1090" y="235"/>
      <point x="1090" y="279" type="curve"/>
      <point x="1091" y="389"/>
      <point x="1032" y="444"/>
      <point x="915" y="444" type="curve"/>
      <point x="693" y="444" type="line"/>
      <point x="654" y="655"/>
      <point x="545" y="760"/>
      <point x="365" y="760" type="curve"/>
      <point x="237" y="760"/>
      <point x="144" y="704"/>
      <point x="85" y="592" type="curve"/>
      <point x="58" y="539"/>
      <point x="45" y="477"/>
      <point x="45" y="408" type="curve"/>
      <point x="45" y="293"/>
      <point x="79" y="171"/>
      <point x="146" y="42" type="curve"/>
      <point x="219" y="73" type="line"/>
      <point x="156" y="198"/>
      <point x="124" y="309"/>
      <point x="124" y="405" type="curve"/>
      <point x="124" y="459"/>
      <point x="133" y="507"/>
      <point x="152" y="548" type="curve"/>
      <point x="171" y="589"/>
      <point x="198" y="620"/>
      <point x="234" y="643" type="curve"/>
      <point x="271" y="666"/>
      <point x="314" y="677"/>
      <point x="365" y="677" type="curve"/>
      <point x="503" y="677"/>
      <point x="586" y="599"/>
      <point x="614" y="444" type="curve"/>
      <point x="347" y="444" type="line"/>
      <point x="335" y="421"/>
      <point x="326" y="394"/>
      <point x="319" y="363" type="curve"/>
      <point x="312" y="332"/>
      <point x="309" y="303"/>
      <point x="309" y="275" type="curve"/>
      <point x="309" y="202"/>
      <point x="326" y="144"/>
      <point x="361" y="103" type="curve"/>
      <point x="395" y="61"/>
      <point x="445" y="40"/>
    </contour>
  </outline>
</glyph>
<glyph name="_GW.fina" format="2">
  <advance width="1087"/>
  <outline>
    <contour>
      <point x="689" y="-119" type="curve"/>
      <point x="728" y="-119"/>
      <point x="756" y="-108"/>
      <point x="771" y="-85" type="curve"/>
      <point x="771" y="6" type="line"/>
      <point x="754" y="-22"/>
      <point x="726" y="-36"/>
      <point x="689" y="-36" type="curve"/>
      <point x="654" y="-36"/>
      <point x="622" y="-10"/>
      <point x="591" y="41" type="curve"/>
      <point x="577" y="64"/>
      <point x="564" y="89"/>
      <point x="551" y="117" type="curve"/>
      <point x="516" y="193"/>
      <point x="493" y="275"/>
      <point x="482" y="364" type="curve"/>
      <point x="867" y="364" type="line"/>
      <point x="902" y="364"/>
      <point x="927" y="357"/>
      <point x="942" y="343" type="curve"/>
      <point x="957" y="328"/>
      <point x="965" y="307"/>
      <point x="965" y="279" type="curve"/>
      <point x="965" y="235"/>
      <point x="958" y="196"/>
      <point x="943" y="162" type="curve"/>
      <point x="1017" y="162" type="line"/>
      <point x="1034" y="196"/>
      <point x="1042" y="235"/>
      <point x="1042" y="279" type="curve"/>
      <point x="1043" y="389"/>
      <point x="984" y="444"/>
      <point x="867" y="444" type="curve"/>
      <point x="473" y="444" type="line"/>
      <point x="459" y="575"/>
      <point x="423" y="667"/>
      <point x="365" y="719" type="curve"/>
      <point x="333" y="746"/>
      <point x="291" y="760"/>
      <point x="239" y="760" type="curve"/>
      <point x="187" y="760"/>
      <point x="143" y="745"/>
      <point x="107" y="716" type="curve"/>
      <point x="70" y="686"/>
      <point x="43" y="644"/>
      <point x="24" y="590" type="curve"/>
      <point x="6" y="538"/>
      <point x="-3" y="480"/>
      <point x="-3" y="417" type="curve"/>
      <point x="-3" y="299"/>
      <point x="40" y="174"/>
      <point x="126" y="42" type="curve"/>
      <point x="197" y="85" type="line"/>
      <point x="156" y="144"/>
      <point x="125" y="200"/>
      <point x="106" y="251" type="curve"/>
      <point x="86" y="302"/>
      <point x="76" y="358"/>
      <point x="76" y="417" type="curve"/>
      <point x="76" y="466"/>
      <point x="82" y="509"/>
      <point x="93" y="548" type="curve"/>
      <point x="104" y="586"/>
      <point x="122" y="617"/>
      <point x="145" y="641" type="curve"/>
      <point x="169" y="665"/>
      <point x="200" y="677"/>
      <point x="239" y="677" type="curve"/>
      <point x="288" y="677"/>
      <point x="324" y="657"/>
      <point x="347" y="616" type="curve"/>
      <point x="370" y="575"/>
      <point x="387" y="509"/>
      <point x="397" y="418" type="curve"/>
      <point x="412" y="280"/>
      <point x="446" y="154"/>
      <point x="499" y="41" type="curve"/>
      <point x="524" y="-13"/>
      <point x="551" y="-53"/>
      <point x="580" y="-79" type="curve"/>
      <point x="609" y="-106"/>
      <point x="645" y="-119"/>
    </contour>
  </outline>
</glyph>
<glyph name="_GxA.medi" format="2">
  <advance width="666"/>
  <outline>
    <contour>
      <point x="307" y="-157" type="curve"/>
      <point x="350" y="-196" type="line"/>
      <point x="385" y="-160"/>
      <point x="431" y="-121"/>
      <point x="489" y="-80" type="curve"/>
      <point x="428" y="-11" type="line"/>
      <point x="389" y="-50"/>
      <point x="348" y="-99"/>
    </contour>
    <contour>
      <point x="126" y="42" type="curve"/>
      <point x="197" y="85" type="line"/>
      <point x="156" y="144"/>
      <point x="125" y="200"/>
      <point x="106" y="251" type="curve"/>
      <point x="86" y="302"/>
      <point x="76" y="358"/>
      <point x="76" y="417" type="curve"/>
      <point x="76" y="492"/>
      <point x="89" y="549"/>
      <point x="116" y="587" type="curve"/>
      <point x="143" y="625"/>
      <point x="180" y="644"/>
      <point x="227" y="644" type="curve"/>
      <point x="266" y="644"/>
      <point x="296" y="633"/>
      <point x="317" y="610" type="curve"/>
      <point x="338" y="587"/>
      <point x="354" y="554"/>
      <point x="363" y="510" type="curve"/>
      <point x="372" y="467"/>
      <point x="378" y="418"/>
      <point x="382" y="363" type="curve"/>
      <point x="401" y="96" type="line"/>
      <point x="467" y="96" type="line"/>
      <point x="486" y="364" type="line"/>
      <point x="696" y="364" type="line"/>
      <point x="696" y="444" type="line"/>
      <point x="455" y="444" type="line"/>
      <point x="441" y="565"/>
      <point x="405" y="648"/>
      <point x="348" y="692" type="curve"/>
      <point x="317" y="715"/>
      <point x="276" y="727"/>
      <point x="226" y="727" type="curve"/>
      <point x="134" y="727"/>
      <point x="67" y="679"/>
      <point x="26" y="582" type="curve"/>
      <point x="7" y="535"/>
      <point x="-3" y="480"/>
      <point x="-3" y="417" type="curve"/>
      <point x="-3" y="299"/>
      <point x="40" y="174"/>
    </contour>
    <contour>
      <point x="93" y="-157" type="curve"/>
      <point x="136" y="-196" type="line"/>
      <point x="171" y="-160"/>
      <point x="217" y="-121"/>
      <point x="275" y="-80" type="curve"/>
      <point x="214" y="-11" type="line"/>
      <point x="175" y="-50"/>
      <point x="134" y="-99"/>
    </contour>
  </outline>
</glyph>
<glyph name="_GxAa.isol" format="2">
  <advance width="1021"/>
  <outline>
    <contour>
      <point x="356" y="-157" type="curve"/>
      <point x="399" y="-196" type="line"/>
      <point x="434" y="-160"/>
      <point x="480" y="-121"/>
      <point x="538" y="-80" type="curve"/>
      <point x="477" y="-11" type="line"/>
      <point x="438" y="-50"/>
      <point x="397" y="-99"/>
    </contour>
    <contour>
      <point x="715" y="-264" type="curve"/>
      <point x="797" y="-264" type="line"/>
      <point x="783" y="-237"/>
      <point x="776" y="-212"/>
      <point x="776" y="-187" type="curve"/>
      <point x="776" y="-158"/>
      <point x="781" y="-133"/>
      <point x="792" y="-110" type="curve"/>
      <point x="802" y="-88"/>
      <point x="819" y="-62"/>
      <point x="843" y="-31" type="curve"/>
      <point x="886" y="22"/>
      <point x="919" y="71"/>
      <point x="942" y="116" type="curve"/>
      <point x="965" y="161"/>
      <point x="976" y="204"/>
      <point x="976" y="245" type="curve"/>
      <point x="974" y="378"/>
      <point x="897" y="444"/>
      <point x="745" y="444" type="curve"/>
      <point x="503" y="444" type="line"/>
      <point x="489" y="565"/>
      <point x="453" y="648"/>
      <point x="396" y="692" type="curve"/>
      <point x="365" y="715"/>
      <point x="324" y="727"/>
      <point x="274" y="727" type="curve"/>
      <point x="182" y="727"/>
      <point x="115" y="678"/>
      <point x="73" y="581" type="curve"/>
      <point x="54" y="536"/>
      <point x="45" y="481"/>
      <point x="45" y="418" type="curve"/>
      <point x="45" y="299"/>
      <point x="88" y="174"/>
      <point x="174" y="42" type="curve"/>
      <point x="245" y="85" type="line"/>
      <point x="204" y="144"/>
      <point x="173" y="200"/>
      <point x="154" y="251" type="curve"/>
      <point x="134" y="302"/>
      <point x="124" y="358"/>
      <point x="124" y="417" type="curve"/>
      <point x="124" y="492"/>
      <point x="137" y="549"/>
      <point x="164" y="587" type="curve"/>
      <point x="190" y="625"/>
      <point x="227" y="644"/>
      <point x="274" y="644" type="curve"/>
      <point x="313" y="644"/>
      <point x="343" y="633"/>
      <point x="365" y="610" type="curve"/>
      <point x="386" y="587"/>
      <point x="402" y="554"/>
      <point x="411" y="510" type="curve"/>
      <point x="420" y="467"/>
      <point x="426" y="418"/>
      <point x="430" y="361" type="curve"/>
      <point x="449" y="96" type="line"/>
      <point x="515" y="96" type="line"/>
      <point x="534" y="364" type="line"/>
      <point x="744" y="364" type="line"/>
      <point x="847" y="365"/>
      <point x="898" y="325"/>
      <point x="898" y="244" type="curve"/>
      <point x="898" y="212"/>
      <point x="890" y="180"/>
      <point x="873" y="148" type="curve"/>
      <point x="856" y="115"/>
      <point x="829" y="75"/>
      <point x="791" y="28" type="curve"/>
      <point x="760" y="-13"/>
      <point x="736" y="-50"/>
      <point x="720" y="-83" type="curve"/>
      <point x="704" y="-116"/>
      <point x="696" y="-151"/>
      <point x="696" y="-187" type="curve"/>
      <point x="696" y="-217"/>
      <point x="702" y="-243"/>
    </contour>
    <contour>
      <point x="141" y="-157" type="curve"/>
      <point x="184" y="-196" type="line"/>
      <point x="219" y="-160"/>
      <point x="265" y="-121"/>
      <point x="323" y="-80" type="curve"/>
      <point x="262" y="-11" type="line"/>
      <point x="223" y="-50"/>
      <point x="182" y="-99"/>
    </contour>
  </outline>
</glyph>
<glyph name="_GxI.isol" format="2">
  <advance width="1060"/>
  <outline>
    <contour>
      <point x="356" y="-157" type="curve"/>
      <point x="399" y="-196" type="line"/>
      <point x="434" y="-160"/>
      <point x="480" y="-121"/>
      <point x="538" y="-80" type="curve"/>
      <point x="477" y="-11" type="line"/>
      <point x="438" y="-50"/>
      <point x="397" y="-99"/>
    </contour>
    <contour>
      <point x="622" y="-67" type="curve"/>
      <point x="695" y="-31" type="line"/>
      <point x="613" y="98"/>
      <point x="559" y="230"/>
      <point x="533" y="364" type="curve"/>
      <point x="840" y="364" type="line"/>
      <point x="875" y="364"/>
      <point x="900" y="357"/>
      <point x="915" y="343" type="curve"/>
      <point x="930" y="328"/>
      <point x="938" y="307"/>
      <point x="938" y="279" type="curve"/>
      <point x="938" y="235"/>
      <point x="931" y="196"/>
      <point x="916" y="162" type="curve"/>
      <point x="990" y="162" type="line"/>
      <point x="1007" y="198"/>
      <point x="1015" y="237"/>
      <point x="1015" y="279" type="curve"/>
      <point x="1016" y="389"/>
      <point x="957" y="444"/>
      <point x="840" y="444" type="curve"/>
      <point x="523" y="444" type="line"/>
      <point x="509" y="575"/>
      <point x="472" y="667"/>
      <point x="413" y="720" type="curve"/>
      <point x="381" y="747"/>
      <point x="339" y="760"/>
      <point x="287" y="760" type="curve"/>
      <point x="235" y="760"/>
      <point x="191" y="745"/>
      <point x="155" y="716" type="curve"/>
      <point x="118" y="686"/>
      <point x="91" y="644"/>
      <point x="72" y="591" type="curve"/>
      <point x="54" y="539"/>
      <point x="45" y="481"/>
      <point x="45" y="417" type="curve"/>
      <point x="45" y="299"/>
      <point x="88" y="174"/>
      <point x="174" y="42" type="curve"/>
      <point x="245" y="85" type="line"/>
      <point x="204" y="144"/>
      <point x="173" y="200"/>
      <point x="154" y="251" type="curve"/>
      <point x="134" y="302"/>
      <point x="124" y="358"/>
      <point x="124" y="417" type="curve"/>
      <point x="124" y="466"/>
      <point x="130" y="509"/>
      <point x="141" y="548" type="curve"/>
      <point x="152" y="586"/>
      <point x="170" y="617"/>
      <point x="193" y="641" type="curve"/>
      <point x="217" y="665"/>
      <point x="248" y="677"/>
      <point x="287" y="677" type="curve"/>
      <point x="324" y="677"/>
      <point x="352" y="667"/>
      <point x="373" y="647" type="curve"/>
      <point x="394" y="627"/>
      <point x="410" y="597"/>
      <point x="421" y="556" type="curve"/>
      <point x="432" y="517"/>
      <point x="440" y="471"/>
      <point x="447" y="418" type="curve"/>
      <point x="471" y="246"/>
      <point x="529" y="84"/>
    </contour>
    <contour>
      <point x="141" y="-157" type="curve"/>
      <point x="184" y="-196" type="line"/>
      <point x="219" y="-160"/>
      <point x="265" y="-121"/>
      <point x="323" y="-80" type="curve"/>
      <point x="262" y="-11" type="line"/>
      <point x="223" y="-50"/>
      <point x="182" y="-99"/>
    </contour>
  </outline>
</glyph>
<glyph name="_GxI.medi" format="2">
  <advance width="762"/>
  <outline>
    <contour>
      <point x="286" y="-157" type="curve"/>
      <point x="329" y="-196" type="line"/>
      <point x="364" y="-160"/>
      <point x="410" y="-121"/>
      <point x="468" y="-80" type="curve"/>
      <point x="407" y="-11" type="line"/>
      <point x="368" y="-50"/>
      <point x="327" y="-99"/>
    </contour>
    <contour>
      <point x="574" y="-67" type="curve"/>
      <point x="647" y="-31" type="line"/>
      <point x="565" y="98"/>
      <point x="511" y="230"/>
      <point x="485" y="364" type="curve"/>
      <point x="792" y="364" type="line"/>
      <point x="792" y="444" type="line"/>
      <point x="475" y="444" type="line"/>
      <point x="461" y="575"/>
      <point x="424" y="667"/>
      <point x="365" y="720" type="curve"/>
      <point x="333" y="747"/>
      <point x="291" y="760"/>
      <point x="239" y="760" type="curve"/>
      <point x="187" y="760"/>
      <point x="143" y="745"/>
      <point x="107" y="716" type="curve"/>
      <point x="70" y="686"/>
      <point x="43" y="644"/>
      <point x="24" y="590" type="curve"/>
      <point x="6" y="538"/>
      <point x="-3" y="480"/>
      <point x="-3" y="417" type="curve"/>
      <point x="-3" y="299"/>
      <point x="40" y="174"/>
      <point x="126" y="42" type="curve"/>
      <point x="197" y="85" type="line"/>
      <point x="156" y="144"/>
      <point x="125" y="200"/>
      <point x="106" y="251" type="curve"/>
      <point x="86" y="302"/>
      <point x="76" y="358"/>
      <point x="76" y="417" type="curve"/>
      <point x="76" y="466"/>
      <point x="82" y="509"/>
      <point x="93" y="548" type="curve"/>
      <point x="104" y="586"/>
      <point x="122" y="617"/>
      <point x="145" y="641" type="curve"/>
      <point x="169" y="665"/>
      <point x="200" y="677"/>
      <point x="239" y="677" type="curve"/>
      <point x="272" y="677"/>
      <point x="299" y="669"/>
      <point x="320" y="652" type="curve"/>
      <point x="340" y="635"/>
      <point x="356" y="608"/>
      <point x="368" y="572" type="curve"/>
      <point x="379" y="542"/>
      <point x="389" y="491"/>
      <point x="399" y="418" type="curve"/>
      <point x="411" y="333"/>
      <point x="430" y="252"/>
      <point x="457" y="176" type="curve"/>
      <point x="485" y="96"/>
      <point x="524" y="15"/>
    </contour>
    <contour>
      <point x="71" y="-157" type="curve"/>
      <point x="114" y="-196" type="line"/>
      <point x="149" y="-160"/>
      <point x="195" y="-121"/>
      <point x="253" y="-80" type="curve"/>
      <point x="192" y="-11" type="line"/>
      <point x="153" y="-50"/>
      <point x="112" y="-99"/>
    </contour>
  </outline>
</glyph>
<glyph name="_GxO.init" format="2">
  <advance width="885"/>
  <outline>
    <contour>
      <point x="502" y="123" type="curve"/>
      <point x="426" y="124"/>
      <point x="388" y="174"/>
      <point x="388" y="275" type="curve"/>
      <point x="388" y="308"/>
      <point x="393" y="338"/>
      <point x="404" y="364" type="curve"/>
      <point x="623" y="364" type="line"/>
      <point x="624" y="354"/>
      <point x="625" y="344"/>
      <point x="625" y="334" type="curve"/>
      <point x="625" y="303" type="line"/>
      <point x="625" y="236"/>
      <point x="607" y="185"/>
      <point x="571" y="148" type="curve"/>
      <point x="553" y="131"/>
      <point x="530" y="123"/>
    </contour>
    <contour>
      <point x="400" y="-157" type="curve"/>
      <point x="443" y="-196" type="line"/>
      <point x="478" y="-160"/>
      <point x="524" y="-121"/>
      <point x="582" y="-80" type="curve"/>
      <point x="521" y="-11" type="line"/>
      <point x="482" y="-50"/>
      <point x="441" y="-99"/>
    </contour>
    <contour>
      <point x="509" y="40" type="curve"/>
      <point x="585" y="40"/>
      <point x="642" y="82"/>
      <point x="679" y="165" type="curve"/>
      <point x="696" y="204"/>
      <point x="704" y="250"/>
      <point x="704" y="302" type="curve"/>
      <point x="704" y="334" type="line"/>
      <point x="704" y="344"/>
      <point x="703" y="354"/>
      <point x="702" y="364" type="curve"/>
      <point x="915" y="364" type="line"/>
      <point x="915" y="444" type="line"/>
      <point x="693" y="444" type="line"/>
      <point x="654" y="655"/>
      <point x="545" y="760"/>
      <point x="365" y="760" type="curve"/>
      <point x="237" y="760"/>
      <point x="144" y="704"/>
      <point x="85" y="592" type="curve"/>
      <point x="58" y="539"/>
      <point x="45" y="477"/>
      <point x="45" y="408" type="curve"/>
      <point x="45" y="293"/>
      <point x="79" y="171"/>
      <point x="146" y="42" type="curve"/>
      <point x="219" y="73" type="line"/>
      <point x="156" y="198"/>
      <point x="124" y="309"/>
      <point x="124" y="405" type="curve"/>
      <point x="124" y="459"/>
      <point x="133" y="507"/>
      <point x="152" y="548" type="curve"/>
      <point x="171" y="589"/>
      <point x="198" y="620"/>
      <point x="234" y="643" type="curve"/>
      <point x="271" y="666"/>
      <point x="314" y="677"/>
      <point x="365" y="677" type="curve"/>
      <point x="503" y="677"/>
      <point x="586" y="599"/>
      <point x="614" y="444" type="curve"/>
      <point x="347" y="444" type="line"/>
      <point x="335" y="421"/>
      <point x="326" y="394"/>
      <point x="319" y="363" type="curve"/>
      <point x="312" y="332"/>
      <point x="309" y="303"/>
      <point x="309" y="275" type="curve"/>
      <point x="309" y="202"/>
      <point x="326" y="144"/>
      <point x="360" y="103" type="curve"/>
      <point x="394" y="61"/>
      <point x="444" y="40"/>
    </contour>
    <contour>
      <point x="141" y="-157" type="curve"/>
      <point x="184" y="-196" type="line"/>
      <point x="219" y="-160"/>
      <point x="265" y="-121"/>
      <point x="323" y="-80" type="curve"/>
      <point x="262" y="-11" type="line"/>
      <point x="223" y="-50"/>
      <point x="182" y="-99"/>
    </contour>
  </outline>
</glyph>
<glyph name="_GxO.isol" format="2">
  <advance width="749"/>
  <outline>
    <contour>
      <point x="502" y="123" type="curve"/>
      <point x="426" y="124"/>
      <point x="388" y="174"/>
      <point x="388" y="275" type="curve"/>
      <point x="388" y="308"/>
      <point x="393" y="338"/>
      <point x="404" y="364" type="curve"/>
      <point x="623" y="364" type="line"/>
      <point x="624" y="355"/>
      <point x="625" y="344"/>
      <point x="625" y="333" type="curve"/>
      <point x="625" y="301" type="line"/>
      <point x="625" y="234"/>
      <point x="607" y="183"/>
      <point x="571" y="147" type="curve"/>
      <point x="553" y="131"/>
      <point x="530" y="123"/>
    </contour>
    <contour>
      <point x="399" y="-157" type="curve"/>
      <point x="442" y="-196" type="line"/>
      <point x="477" y="-160"/>
      <point x="523" y="-121"/>
      <point x="581" y="-80" type="curve"/>
      <point x="520" y="-11" type="line"/>
      <point x="481" y="-50"/>
      <point x="440" y="-99"/>
    </contour>
    <contour>
      <point x="509" y="40" type="curve"/>
      <point x="585" y="40"/>
      <point x="642" y="82"/>
      <point x="679" y="165" type="curve"/>
      <point x="696" y="204"/>
      <point x="704" y="250"/>
      <point x="704" y="302" type="curve"/>
      <point x="704" y="437"/>
      <point x="678" y="546"/>
      <point x="626" y="627" type="curve"/>
      <point x="569" y="716"/>
      <point x="482" y="760"/>
      <point x="365" y="760" type="curve"/>
      <point x="237" y="760"/>
      <point x="144" y="704"/>
      <point x="85" y="592" type="curve"/>
      <point x="58" y="539"/>
      <point x="45" y="477"/>
      <point x="45" y="408" type="curve"/>
      <point x="45" y="293"/>
      <point x="79" y="171"/>
      <point x="146" y="42" type="curve"/>
      <point x="219" y="73" type="line"/>
      <point x="156" y="198"/>
      <point x="124" y="309"/>
      <point x="124" y="405" type="curve"/>
      <point x="124" y="459"/>
      <point x="133" y="507"/>
      <point x="152" y="548" type="curve"/>
      <point x="171" y="589"/>
      <point x="198" y="620"/>
      <point x="234" y="643" type="curve"/>
      <point x="271" y="666"/>
      <point x="314" y="677"/>
      <point x="365" y="677" type="curve"/>
      <point x="503" y="677"/>
      <point x="586" y="599"/>
      <point x="614" y="444" type="curve"/>
      <point x="347" y="444" type="line"/>
      <point x="335" y="421"/>
      <point x="326" y="394"/>
      <point x="319" y="363" type="curve"/>
      <point x="312" y="332"/>
      <point x="309" y="303"/>
      <point x="309" y="275" type="curve"/>
      <point x="309" y="202"/>
      <point x="326" y="144"/>
      <point x="360" y="103" type="curve"/>
      <point x="394" y="61"/>
      <point x="444" y="40"/>
    </contour>
    <contour>
      <point x="141" y="-157" type="curve"/>
      <point x="184" y="-196" type="line"/>
      <point x="219" y="-160"/>
      <point x="265" y="-121"/>
      <point x="323" y="-80" type="curve"/>
      <point x="262" y="-11" type="line"/>
      <point x="223" y="-50"/>
      <point x="182" y="-99"/>
    </contour>
  </outline>
</glyph>
<glyph name="_GxOI.medi" format="2">
  <advance width="1133"/>
  <outline>
    <contour>
      <point x="455" y="123" type="curve"/>
      <point x="379" y="124"/>
      <point x="341" y="174"/>
      <point x="341" y="275" type="curve"/>
      <point x="341" y="308"/>
      <point x="346" y="338"/>
      <point x="357" y="364" type="curve"/>
      <point x="576" y="364" type="line"/>
      <point x="577" y="354"/>
      <point x="578" y="344"/>
      <point x="578" y="334" type="curve"/>
      <point x="578" y="303" type="line"/>
      <point x="578" y="236"/>
      <point x="560" y="185"/>
      <point x="524" y="148" type="curve"/>
      <point x="506" y="131"/>
      <point x="483" y="123"/>
    </contour>
    <contour>
      <point x="353" y="-157" type="curve"/>
      <point x="396" y="-196" type="line"/>
      <point x="431" y="-160"/>
      <point x="477" y="-121"/>
      <point x="535" y="-80" type="curve"/>
      <point x="474" y="-11" type="line"/>
      <point x="435" y="-50"/>
      <point x="394" y="-99"/>
    </contour>
    <contour>
      <point x="945" y="-67" type="curve"/>
      <point x="1018" y="-31" type="line"/>
      <point x="945" y="98"/>
      <point x="890" y="229"/>
      <point x="851" y="364" type="curve"/>
      <point x="1163" y="364" type="line"/>
      <point x="1163" y="444" type="line"/>
      <point x="646" y="444" type="line"/>
      <point x="607" y="655"/>
      <point x="498" y="760"/>
      <point x="318" y="760" type="curve"/>
      <point x="190" y="760"/>
      <point x="97" y="704"/>
      <point x="38" y="592" type="curve"/>
      <point x="11" y="539"/>
      <point x="-2" y="477"/>
      <point x="-2" y="408" type="curve"/>
      <point x="-2" y="293"/>
      <point x="32" y="171"/>
      <point x="99" y="42" type="curve"/>
      <point x="172" y="73" type="line"/>
      <point x="109" y="198"/>
      <point x="77" y="309"/>
      <point x="77" y="405" type="curve"/>
      <point x="77" y="459"/>
      <point x="86" y="507"/>
      <point x="105" y="548" type="curve"/>
      <point x="124" y="589"/>
      <point x="151" y="620"/>
      <point x="187" y="643" type="curve"/>
      <point x="224" y="666"/>
      <point x="267" y="677"/>
      <point x="318" y="677" type="curve"/>
      <point x="456" y="677"/>
      <point x="539" y="599"/>
      <point x="567" y="444" type="curve"/>
      <point x="300" y="444" type="line"/>
      <point x="288" y="421"/>
      <point x="279" y="394"/>
      <point x="272" y="363" type="curve"/>
      <point x="265" y="332"/>
      <point x="262" y="303"/>
      <point x="262" y="275" type="curve"/>
      <point x="262" y="202"/>
      <point x="279" y="144"/>
      <point x="313" y="103" type="curve"/>
      <point x="347" y="61"/>
      <point x="397" y="40"/>
      <point x="462" y="40" type="curve"/>
      <point x="535" y="40"/>
      <point x="592" y="81"/>
      <point x="631" y="162" type="curve"/>
      <point x="648" y="201"/>
      <point x="657" y="246"/>
      <point x="657" y="298" type="curve"/>
      <point x="657" y="332" type="line"/>
      <point x="657" y="343"/>
      <point x="656" y="354"/>
      <point x="655" y="364" type="curve"/>
      <point x="772" y="364" type="line"/>
      <point x="811" y="219"/>
      <point x="868" y="75"/>
    </contour>
    <contour>
      <point x="94" y="-157" type="curve"/>
      <point x="137" y="-196" type="line"/>
      <point x="172" y="-160"/>
      <point x="218" y="-121"/>
      <point x="276" y="-80" type="curve"/>
      <point x="215" y="-11" type="line"/>
      <point x="176" y="-50"/>
      <point x="135" y="-99"/>
    </contour>
  </outline>
</glyph>
<glyph name="_GxW.init" format="2">
  <advance width="885"/>
  <outline>
    <contour>
      <point x="334" y="-157" type="curve"/>
      <point x="377" y="-196" type="line"/>
      <point x="412" y="-160"/>
      <point x="458" y="-121"/>
      <point x="516" y="-80" type="curve"/>
      <point x="455" y="-11" type="line"/>
      <point x="416" y="-50"/>
      <point x="375" y="-99"/>
    </contour>
    <contour>
      <point x="737" y="-119" type="curve"/>
      <point x="776" y="-119"/>
      <point x="804" y="-108"/>
      <point x="819" y="-85" type="curve"/>
      <point x="819" y="6" type="line"/>
      <point x="802" y="-22"/>
      <point x="774" y="-36"/>
      <point x="737" y="-36" type="curve"/>
      <point x="702" y="-36"/>
      <point x="670" y="-10"/>
      <point x="639" y="41" type="curve"/>
      <point x="625" y="64"/>
      <point x="612" y="89"/>
      <point x="599" y="117" type="curve"/>
      <point x="564" y="193"/>
      <point x="541" y="275"/>
      <point x="530" y="364" type="curve"/>
      <point x="915" y="364" type="line"/>
      <point x="915" y="444" type="line"/>
      <point x="521" y="444" type="line"/>
      <point x="507" y="575"/>
      <point x="471" y="667"/>
      <point x="413" y="719" type="curve"/>
      <point x="381" y="746"/>
      <point x="339" y="760"/>
      <point x="287" y="760" type="curve"/>
      <point x="235" y="760"/>
      <point x="191" y="745"/>
      <point x="155" y="716" type="curve"/>
      <point x="118" y="686"/>
      <point x="91" y="644"/>
      <point x="72" y="590" type="curve"/>
      <point x="54" y="538"/>
      <point x="45" y="480"/>
      <point x="45" y="417" type="curve"/>
      <point x="45" y="299"/>
      <point x="88" y="174"/>
      <point x="174" y="42" type="curve"/>
      <point x="245" y="85" type="line"/>
      <point x="204" y="144"/>
      <point x="173" y="200"/>
      <point x="154" y="251" type="curve"/>
      <point x="134" y="302"/>
      <point x="124" y="358"/>
      <point x="124" y="417" type="curve"/>
      <point x="124" y="466"/>
      <point x="130" y="509"/>
      <point x="141" y="548" type="curve"/>
      <point x="152" y="586"/>
      <point x="170" y="617"/>
      <point x="193" y="641" type="curve"/>
      <point x="217" y="665"/>
      <point x="248" y="677"/>
      <point x="287" y="677" type="curve"/>
      <point x="323" y="677"/>
      <point x="352" y="667"/>
      <point x="373" y="646" type="curve"/>
      <point x="394" y="625"/>
      <point x="410" y="594"/>
      <point x="421" y="553" type="curve"/>
      <point x="432" y="514"/>
      <point x="440" y="469"/>
      <point x="445" y="418" type="curve"/>
      <point x="460" y="280"/>
      <point x="494" y="154"/>
      <point x="547" y="41" type="curve"/>
      <point x="572" y="-13"/>
      <point x="599" y="-53"/>
      <point x="628" y="-79" type="curve"/>
      <point x="657" y="-106"/>
      <point x="693" y="-119"/>
    </contour>
    <contour>
      <point x="119" y="-157" type="curve"/>
      <point x="162" y="-196" type="line"/>
      <point x="197" y="-160"/>
      <point x="243" y="-121"/>
      <point x="301" y="-80" type="curve"/>
      <point x="240" y="-11" type="line"/>
      <point x="201" y="-50"/>
      <point x="160" y="-99"/>
    </contour>
  </outline>
</glyph>
<glyph name="_GxW.isol" format="2">
  <advance width="1135"/>
  <outline>
    <contour>
      <point x="333" y="-157" type="curve"/>
      <point x="376" y="-196" type="line"/>
      <point x="411" y="-160"/>
      <point x="457" y="-121"/>
      <point x="515" y="-80" type="curve"/>
      <point x="454" y="-11" type="line"/>
      <point x="415" y="-50"/>
      <point x="374" y="-99"/>
    </contour>
    <contour>
      <point x="737" y="-119" type="curve"/>
      <point x="776" y="-119"/>
      <point x="804" y="-108"/>
      <point x="819" y="-85" type="curve"/>
      <point x="819" y="6" type="line"/>
      <point x="802" y="-22"/>
      <point x="774" y="-36"/>
      <point x="737" y="-36" type="curve"/>
      <point x="702" y="-36"/>
      <point x="670" y="-10"/>
      <point x="639" y="41" type="curve"/>
      <point x="625" y="64"/>
      <point x="612" y="89"/>
      <point x="599" y="117" type="curve"/>
      <point x="564" y="193"/>
      <point x="541" y="275"/>
      <point x="530" y="364" type="curve"/>
      <point x="915" y="364" type="line"/>
      <point x="950" y="364"/>
      <point x="975" y="357"/>
      <point x="990" y="343" type="curve"/>
      <point x="1005" y="328"/>
      <point x="1013" y="307"/>
      <point x="1013" y="279" type="curve"/>
      <point x="1013" y="235"/>
      <point x="1006" y="196"/>
      <point x="991" y="162" type="curve"/>
      <point x="1065" y="162" type="line"/>
      <point x="1082" y="196"/>
      <point x="1090" y="235"/>
      <point x="1090" y="279" type="curve"/>
      <point x="1091" y="389"/>
      <point x="1032" y="444"/>
      <point x="915" y="444" type="curve"/>
      <point x="521" y="444" type="line"/>
      <point x="507" y="575"/>
      <point x="471" y="667"/>
      <point x="413" y="719" type="curve"/>
      <point x="381" y="746"/>
      <point x="339" y="760"/>
      <point x="287" y="760" type="curve"/>
      <point x="235" y="760"/>
      <point x="191" y="745"/>
      <point x="155" y="716" type="curve"/>
      <point x="118" y="686"/>
      <point x="91" y="644"/>
      <point x="72" y="590" type="curve"/>
      <point x="54" y="538"/>
      <point x="45" y="480"/>
      <point x="45" y="417" type="curve"/>
      <point x="45" y="299"/>
      <point x="88" y="174"/>
      <point x="174" y="42" type="curve"/>
      <point x="245" y="85" type="line"/>
      <point x="204" y="144"/>
      <point x="173" y="200"/>
      <point x="154" y="251" type="curve"/>
      <point x="134" y="302"/>
      <point x="124" y="358"/>
      <point x="124" y="417" type="curve"/>
      <point x="124" y="466"/>
      <point x="130" y="509"/>
      <point x="141" y="548" type="curve"/>
      <point x="152" y="586"/>
      <point x="170" y="617"/>
      <point x="193" y="641" type="curve"/>
      <point x="217" y="665"/>
      <point x="248" y="677"/>
      <point x="287" y="677" type="curve"/>
      <point x="336" y="677"/>
      <point x="372" y="657"/>
      <point x="395" y="616" type="curve"/>
      <point x="418" y="575"/>
      <point x="435" y="509"/>
      <point x="445" y="418" type="curve"/>
      <point x="460" y="280"/>
      <point x="494" y="154"/>
      <point x="547" y="41" type="curve"/>
      <point x="572" y="-13"/>
      <point x="599" y="-53"/>
      <point x="628" y="-79" type="curve"/>
      <point x="657" y="-106"/>
      <point x="693" y="-119"/>
    </contour>
    <contour>
      <point x="119" y="-157" type="curve"/>
      <point x="162" y="-196" type="line"/>
      <point x="197" y="-160"/>
      <point x="243" y="-121"/>
      <point x="301" y="-80" type="curve"/>
      <point x="240" y="-11" type="line"/>
      <point x="201" y="-50"/>
      <point x="160" y="-99"/>
    </contour>
  </outline>
</glyph>
<glyph name="_GxW.medi" format="2">
  <advance width="837"/>
  <outline>
    <contour>
      <point x="285" y="-157" type="curve"/>
      <point x="328" y="-196" type="line"/>
      <point x="363" y="-160"/>
      <point x="409" y="-121"/>
      <point x="467" y="-80" type="curve"/>
      <point x="406" y="-11" type="line"/>
      <point x="367" y="-50"/>
      <point x="326" y="-99"/>
    </contour>
    <contour>
      <point x="689" y="-119" type="curve"/>
      <point x="728" y="-119"/>
      <point x="756" y="-108"/>
      <point x="771" y="-85" type="curve"/>
      <point x="771" y="6" type="line"/>
      <point x="754" y="-22"/>
      <point x="726" y="-36"/>
      <point x="689" y="-36" type="curve"/>
      <point x="654" y="-36"/>
      <point x="622" y="-10"/>
      <point x="591" y="41" type="curve"/>
      <point x="577" y="64"/>
      <point x="564" y="89"/>
      <point x="551" y="117" type="curve"/>
      <point x="516" y="193"/>
      <point x="493" y="275"/>
      <point x="482" y="364" type="curve"/>
      <point x="867" y="364" type="line"/>
      <point x="867" y="444" type="line"/>
      <point x="473" y="444" type="line"/>
      <point x="459" y="575"/>
      <point x="423" y="667"/>
      <point x="365" y="719" type="curve"/>
      <point x="333" y="746"/>
      <point x="291" y="760"/>
      <point x="239" y="760" type="curve"/>
      <point x="187" y="760"/>
      <point x="143" y="745"/>
      <point x="107" y="716" type="curve"/>
      <point x="70" y="686"/>
      <point x="43" y="644"/>
      <point x="24" y="590" type="curve"/>
      <point x="6" y="538"/>
      <point x="-3" y="480"/>
      <point x="-3" y="417" type="curve"/>
      <point x="-3" y="299"/>
      <point x="40" y="174"/>
      <point x="126" y="42" type="curve"/>
      <point x="197" y="85" type="line"/>
      <point x="156" y="144"/>
      <point x="125" y="200"/>
      <point x="106" y="251" type="curve"/>
      <point x="86" y="302"/>
      <point x="76" y="358"/>
      <point x="76" y="417" type="curve"/>
      <point x="76" y="466"/>
      <point x="82" y="509"/>
      <point x="93" y="548" type="curve"/>
      <point x="104" y="586"/>
      <point x="122" y="617"/>
      <point x="145" y="641" type="curve"/>
      <point x="169" y="665"/>
      <point x="200" y="677"/>
      <point x="239" y="677" type="curve"/>
      <point x="275" y="677"/>
      <point x="304" y="667"/>
      <point x="325" y="646" type="curve"/>
      <point x="346" y="625"/>
      <point x="362" y="594"/>
      <point x="373" y="553" type="curve"/>
      <point x="384" y="514"/>
      <point x="392" y="469"/>
      <point x="397" y="418" type="curve"/>
      <point x="412" y="280"/>
      <point x="446" y="154"/>
      <point x="499" y="41" type="curve"/>
      <point x="524" y="-13"/>
      <point x="551" y="-53"/>
      <point x="580" y="-79" type="curve"/>
      <point x="609" y="-106"/>
      <point x="645" y="-119"/>
    </contour>
    <contour>
      <point x="71" y="-157" type="curve"/>
      <point x="114" y="-196" type="line"/>
      <point x="149" y="-160"/>
      <point x="195" y="-121"/>
      <point x="253" y="-80" type="curve"/>
      <point x="192" y="-11" type="line"/>
      <point x="153" y="-50"/>
      <point x="112" y="-99"/>
    </contour>
  </outline>
</glyph>
<glyph name="_H.init" format="2">
  <advance width="788"/>
  <outline>
    <contour>
      <point x="221" y="96" type="curve"/>
      <point x="299" y="96" type="line"/>
      <point x="289" y="268"/>
      <point x="258" y="377"/>
      <point x="206" y="423" type="curve"/>
      <point x="210" y="496"/>
      <point x="226" y="552"/>
      <point x="253" y="589" type="curve"/>
      <point x="280" y="626"/>
      <point x="316" y="644"/>
      <point x="362" y="644" type="curve"/>
      <point x="413" y="644"/>
      <point x="450" y="623"/>
      <point x="475" y="580" type="curve"/>
      <point x="500" y="537"/>
      <point x="512" y="470"/>
      <point x="512" y="378" type="curve"/>
      <point x="512" y="285"/>
      <point x="506" y="191"/>
      <point x="495" y="96" type="curve"/>
      <point x="573" y="96" type="line"/>
      <point x="587" y="192"/>
      <point x="594" y="281"/>
      <point x="594" y="364" type="curve"/>
      <point x="818" y="364" type="line"/>
      <point x="818" y="444" type="line"/>
      <point x="591" y="444" type="line"/>
      <point x="574" y="633"/>
      <point x="497" y="727"/>
      <point x="362" y="727" type="curve"/>
      <point x="271" y="727"/>
      <point x="206" y="682"/>
      <point x="165" y="593" type="curve"/>
      <point x="146" y="551"/>
      <point x="134" y="504"/>
      <point x="129" y="451" type="curve"/>
      <point x="96" y="450"/>
      <point x="68" y="444"/>
      <point x="45" y="433" type="curve"/>
      <point x="45" y="353" type="line"/>
      <point x="62" y="362"/>
      <point x="84" y="366"/>
      <point x="112" y="366" type="curve"/>
      <point x="149" y="366"/>
      <point x="175" y="342"/>
      <point x="189" y="294" type="curve"/>
      <point x="204" y="246"/>
      <point x="214" y="180"/>
    </contour>
  </outline>
</glyph>
<glyph name="_Hr.medi" format="2">
  <advance width="521"/>
  <outline>
    <contour>
      <point x="140" y="-182" type="curve"/>
      <point x="409" y="-57" type="line"/>
      <point x="335" y="78"/>
      <point x="297" y="219"/>
      <point x="295" y="364" type="curve"/>
      <point x="551" y="364" type="line"/>
      <point x="551" y="444" type="line"/>
      <point x="219" y="444" type="line"/>
      <point x="219" y="366" type="line"/>
      <point x="219" y="221"/>
      <point x="247" y="94"/>
      <point x="303" y="-17" type="curve"/>
      <point x="179" y="-72" type="line"/>
      <point x="110" y="54"/>
      <point x="75" y="199"/>
      <point x="75" y="364" type="curve"/>
      <point x="75" y="444" type="line"/>
      <point x="0" y="444" type="line"/>
      <point x="0" y="364" type="line"/>
      <point x="0" y="168"/>
      <point x="47" y="-14"/>
    </contour>
  </outline>
</glyph>
<glyph name="_Hx.init" format="2">
  <advance width="788"/>
  <outline>
    <contour>
      <point x="348" y="-179" type="curve"/>
      <point x="391" y="-218" type="line"/>
      <point x="426" y="-182"/>
      <point x="472" y="-143"/>
      <point x="530" y="-102" type="curve"/>
      <point x="469" y="-33" type="line"/>
      <point x="430" y="-72"/>
      <point x="389" y="-121"/>
    </contour>
    <contour>
      <point x="221" y="96" type="curve"/>
      <point x="299" y="96" type="line"/>
      <point x="289" y="268"/>
      <point x="258" y="377"/>
      <point x="206" y="423" type="curve"/>
      <point x="210" y="496"/>
      <point x="226" y="552"/>
      <point x="253" y="589" type="curve"/>
      <point x="280" y="626"/>
      <point x="316" y="644"/>
      <point x="362" y="644" type="curve"/>
      <point x="413" y="644"/>
      <point x="450" y="623"/>
      <point x="475" y="580" type="curve"/>
      <point x="500" y="537"/>
      <point x="512" y="470"/>
      <point x="512" y="378" type="curve"/>
      <point x="512" y="285"/>
      <point x="506" y="191"/>
      <point x="495" y="96" type="curve"/>
      <point x="573" y="96" type="line"/>
      <point x="587" y="192"/>
      <point x="594" y="281"/>
      <point x="594" y="364" type="curve"/>
      <point x="818" y="364" type="line"/>
      <point x="818" y="444" type="line"/>
      <point x="591" y="444" type="line"/>
      <point x="574" y="633"/>
      <point x="497" y="727"/>
      <point x="362" y="727" type="curve"/>
      <point x="271" y="727"/>
      <point x="206" y="682"/>
      <point x="165" y="593" type="curve"/>
      <point x="146" y="551"/>
      <point x="134" y="504"/>
      <point x="129" y="451" type="curve"/>
      <point x="96" y="450"/>
      <point x="68" y="444"/>
      <point x="45" y="433" type="curve"/>
      <point x="45" y="353" type="line"/>
      <point x="62" y="362"/>
      <point x="84" y="366"/>
      <point x="112" y="366" type="curve"/>
      <point x="149" y="366"/>
      <point x="175" y="342"/>
      <point x="189" y="294" type="curve"/>
      <point x="204" y="246"/>
      <point x="214" y="180"/>
    </contour>
    <contour>
      <point x="172" y="-102" type="curve"/>
      <point x="215" y="-141" type="line"/>
      <point x="250" y="-105"/>
      <point x="296" y="-66"/>
      <point x="354" y="-25" type="curve"/>
      <point x="293" y="44" type="line"/>
      <point x="254" y="5"/>
      <point x="213" y="-44"/>
    </contour>
  </outline>
</glyph>
<glyph name="_J.fina" format="2">
  <advance width="780"/>
  <outline>
    <contour>
      <point x="0" y="100" type="curve"/>
      <point x="0" y="5" type="line"/>
      <point x="43" y="44"/>
      <point x="89" y="77"/>
      <point x="137" y="103" type="curve"/>
      <point x="245" y="161" type="line"/>
      <point x="316" y="196"/>
      <point x="351" y="263"/>
      <point x="351" y="364" type="curve"/>
      <point x="560" y="364" type="line"/>
      <point x="595" y="364"/>
      <point x="620" y="357"/>
      <point x="635" y="343" type="curve"/>
      <point x="650" y="328"/>
      <point x="658" y="307"/>
      <point x="658" y="279" type="curve"/>
      <point x="658" y="235"/>
      <point x="651" y="196"/>
      <point x="636" y="162" type="curve"/>
      <point x="710" y="162" type="line"/>
      <point x="727" y="196"/>
      <point x="735" y="235"/>
      <point x="735" y="279" type="curve"/>
      <point x="736" y="389"/>
      <point x="677" y="444"/>
      <point x="560" y="444" type="curve"/>
      <point x="0" y="444" type="line"/>
      <point x="0" y="364" type="line"/>
      <point x="274" y="364" type="line"/>
      <point x="274" y="328"/>
      <point x="268" y="299"/>
      <point x="256" y="278" type="curve"/>
      <point x="244" y="256"/>
      <point x="224" y="237"/>
      <point x="196" y="222" type="curve"/>
      <point x="114" y="178" type="line"/>
      <point x="61" y="149"/>
      <point x="23" y="123"/>
    </contour>
  </outline>
</glyph>
<glyph name="_J.medi" format="2">
  <advance width="530"/>
  <outline>
    <contour>
      <point x="0" y="100" type="curve"/>
      <point x="0" y="5" type="line"/>
      <point x="43" y="44"/>
      <point x="89" y="77"/>
      <point x="137" y="103" type="curve"/>
      <point x="245" y="161" type="line"/>
      <point x="316" y="196"/>
      <point x="351" y="263"/>
      <point x="351" y="364" type="curve"/>
      <point x="560" y="364" type="line"/>
      <point x="560" y="444" type="line"/>
      <point x="0" y="444" type="line"/>
      <point x="0" y="364" type="line"/>
      <point x="274" y="364" type="line"/>
      <point x="274" y="328"/>
      <point x="268" y="299"/>
      <point x="256" y="278" type="curve"/>
      <point x="244" y="256"/>
      <point x="224" y="237"/>
      <point x="196" y="222" type="curve"/>
      <point x="114" y="178" type="line"/>
      <point x="62" y="150"/>
      <point x="24" y="124"/>
    </contour>
  </outline>
</glyph>
<glyph name="_K.fina" format="2">
  <advance width="620"/>
  <outline>
    <contour>
      <point x="259" y="-264" type="curve"/>
      <point x="341" y="-264" type="line"/>
      <point x="327" y="-237"/>
      <point x="320" y="-212"/>
      <point x="320" y="-187" type="curve"/>
      <point x="320" y="-156"/>
      <point x="326" y="-127"/>
      <point x="339" y="-101" type="curve"/>
      <point x="352" y="-76"/>
      <point x="373" y="-44"/>
      <point x="403" y="-7" type="curve"/>
      <point x="479" y="87"/>
      <point x="530" y="173"/>
      <point x="555" y="250" type="curve"/>
      <point x="568" y="293"/>
      <point x="575" y="339"/>
      <point x="575" y="388" type="curve"/>
      <point x="575" y="523"/>
      <point x="532" y="622"/>
      <point x="445" y="684" type="curve"/>
      <point x="402" y="713"/>
      <point x="348" y="727"/>
      <point x="284" y="727" type="curve"/>
      <point x="169" y="727"/>
      <point x="86" y="679"/>
      <point x="35" y="583" type="curve"/>
      <point x="12" y="537"/>
      <point x="0" y="482"/>
      <point x="0" y="419" type="curve"/>
      <point x="0" y="96" type="line"/>
      <point x="66" y="96" type="line"/>
      <point x="74" y="215" type="line"/>
      <point x="94" y="171"/>
      <point x="125" y="124"/>
      <point x="166" y="73" type="curve"/>
      <point x="228" y="128" type="line"/>
      <point x="165" y="201"/>
      <point x="123" y="265"/>
      <point x="100" y="320" type="curve"/>
      <point x="86" y="353"/>
      <point x="79" y="386"/>
      <point x="79" y="419" type="curve"/>
      <point x="79" y="490"/>
      <point x="97" y="546"/>
      <point x="132" y="585" type="curve"/>
      <point x="167" y="624"/>
      <point x="218" y="644"/>
      <point x="284" y="644" type="curve"/>
      <point x="352" y="644"/>
      <point x="405" y="621"/>
      <point x="442" y="575" type="curve"/>
      <point x="479" y="529"/>
      <point x="497" y="467"/>
      <point x="497" y="388" type="curve"/>
      <point x="497" y="304"/>
      <point x="476" y="229"/>
      <point x="433" y="164" type="curve"/>
      <point x="411" y="129"/>
      <point x="383" y="91"/>
      <point x="350" y="50" type="curve"/>
      <point x="312" y="3"/>
      <point x="284" y="-37"/>
      <point x="267" y="-72" type="curve"/>
      <point x="249" y="-107"/>
      <point x="240" y="-146"/>
      <point x="240" y="-187" type="curve"/>
      <point x="240" y="-213"/>
      <point x="246" y="-239"/>
    </contour>
  </outline>
</glyph>
<glyph name="_K.init" format="2">
  <advance width="429"/>
  <outline>
    <contour>
      <point x="244" y="35" type="curve"/>
      <point x="306" y="90" type="line"/>
      <point x="185" y="221"/>
      <point x="124" y="330"/>
      <point x="124" y="419" type="curve"/>
      <point x="124" y="511"/>
      <point x="145" y="576"/>
      <point x="187" y="614" type="curve"/>
      <point x="209" y="634"/>
      <point x="238" y="644"/>
      <point x="274" y="644" type="curve"/>
      <point x="313" y="644"/>
      <point x="343" y="633"/>
      <point x="365" y="610" type="curve"/>
      <point x="386" y="587"/>
      <point x="402" y="554"/>
      <point x="411" y="510" type="curve"/>
      <point x="420" y="468"/>
      <point x="426" y="419"/>
      <point x="429" y="364" type="curve"/>
      <point x="503" y="364" type="line"/>
      <point x="499" y="487"/>
      <point x="478" y="579"/>
      <point x="441" y="638" type="curve"/>
      <point x="404" y="697"/>
      <point x="348" y="727"/>
      <point x="274" y="727" type="curve"/>
      <point x="225" y="727"/>
      <point x="183" y="714"/>
      <point x="149" y="688" type="curve"/>
      <point x="114" y="662"/>
      <point x="88" y="625"/>
      <point x="71" y="577" type="curve"/>
      <point x="54" y="531"/>
      <point x="45" y="478"/>
      <point x="45" y="419" type="curve"/>
      <point x="45" y="96" type="line"/>
      <point x="111" y="96" type="line"/>
      <point x="119" y="215" type="line"/>
      <point x="146" y="158"/>
      <point x="187" y="98"/>
    </contour>
  </outline>
</glyph>
<glyph name="_K.medi" format="2">
  <advance width="384"/>
  <outline>
    <contour>
      <point x="199" y="35" type="curve"/>
      <point x="261" y="90" type="line"/>
      <point x="140" y="221"/>
      <point x="79" y="330"/>
      <point x="79" y="419" type="curve"/>
      <point x="79" y="511"/>
      <point x="100" y="576"/>
      <point x="142" y="614" type="curve"/>
      <point x="164" y="634"/>
      <point x="193" y="644"/>
      <point x="229" y="644" type="curve"/>
      <point x="268" y="644"/>
      <point x="298" y="633"/>
      <point x="320" y="610" type="curve"/>
      <point x="341" y="587"/>
      <point x="357" y="554"/>
      <point x="366" y="510" type="curve"/>
      <point x="375" y="468"/>
      <point x="381" y="419"/>
      <point x="384" y="364" type="curve"/>
      <point x="458" y="364" type="line"/>
      <point x="454" y="487"/>
      <point x="433" y="579"/>
      <point x="396" y="638" type="curve"/>
      <point x="359" y="697"/>
      <point x="303" y="727"/>
      <point x="229" y="727" type="curve"/>
      <point x="180" y="727"/>
      <point x="138" y="714"/>
      <point x="104" y="688" type="curve"/>
      <point x="69" y="662"/>
      <point x="43" y="625"/>
      <point x="26" y="577" type="curve"/>
      <point x="9" y="531"/>
      <point x="0" y="478"/>
      <point x="0" y="419" type="curve"/>
      <point x="0" y="96" type="line"/>
      <point x="66" y="96" type="line"/>
      <point x="74" y="215" type="line"/>
      <point x="101" y="158"/>
      <point x="142" y="98"/>
    </contour>
  </outline>
</glyph>
<glyph name="_K2.fina" format="2">
  <advance width="620"/>
  <outline>
    <contour>
      <point x="259" y="-264" type="curve"/>
      <point x="341" y="-264" type="line"/>
      <point x="327" y="-237"/>
      <point x="320" y="-212"/>
      <point x="320" y="-187" type="curve"/>
      <point x="320" y="-156"/>
      <point x="326" y="-127"/>
      <point x="339" y="-101" type="curve"/>
      <point x="352" y="-76"/>
      <point x="373" y="-44"/>
      <point x="403" y="-7" type="curve"/>
      <point x="452" y="54"/>
      <point x="490" y="111"/>
      <point x="518" y="163" type="curve"/>
      <point x="556" y="229"/>
      <point x="575" y="304"/>
      <point x="575" y="388" type="curve"/>
      <point x="575" y="523"/>
      <point x="532" y="622"/>
      <point x="445" y="684" type="curve"/>
      <point x="402" y="713"/>
      <point x="348" y="727"/>
      <point x="284" y="727" type="curve"/>
      <point x="165" y="727"/>
      <point x="81" y="677"/>
      <point x="32" y="576" type="curve"/>
      <point x="9" y="529"/>
      <point x="-2" y="472"/>
      <point x="-2" y="407" type="curve"/>
      <point x="-2" y="292"/>
      <point x="41" y="171"/>
      <point x="127" y="42" type="curve"/>
      <point x="198" y="85" type="line"/>
      <point x="126" y="184"/>
      <point x="86" y="277"/>
      <point x="79" y="364" type="curve"/>
      <point x="238" y="364" type="line"/>
      <point x="238" y="444" type="line"/>
      <point x="78" y="444" type="line"/>
      <point x="85" y="510"/>
      <point x="106" y="560"/>
      <point x="141" y="594" type="curve"/>
      <point x="176" y="627"/>
      <point x="224" y="644"/>
      <point x="284" y="644" type="curve"/>
      <point x="352" y="644"/>
      <point x="405" y="621"/>
      <point x="442" y="575" type="curve"/>
      <point x="479" y="529"/>
      <point x="497" y="467"/>
      <point x="497" y="388" type="curve"/>
      <point x="497" y="307"/>
      <point x="477" y="236"/>
      <point x="438" y="174" type="curve"/>
      <point x="415" y="135"/>
      <point x="385" y="94"/>
      <point x="350" y="50" type="curve"/>
      <point x="312" y="3"/>
      <point x="284" y="-37"/>
      <point x="267" y="-72" type="curve"/>
      <point x="249" y="-107"/>
      <point x="240" y="-146"/>
      <point x="240" y="-187" type="curve"/>
      <point x="240" y="-213"/>
      <point x="246" y="-239"/>
    </contour>
  </outline>
</glyph>
<glyph name="_K2.init" format="2">
  <advance width="428"/>
  <outline>
    <contour>
      <point x="174" y="42" type="curve"/>
      <point x="245" y="85" type="line"/>
      <point x="175" y="180"/>
      <point x="135" y="273"/>
      <point x="125" y="364" type="curve"/>
      <point x="285" y="364" type="line"/>
      <point x="285" y="444" type="line"/>
      <point x="125" y="444" type="line"/>
      <point x="129" y="509"/>
      <point x="144" y="559"/>
      <point x="170" y="593" type="curve"/>
      <point x="195" y="627"/>
      <point x="230" y="644"/>
      <point x="273" y="644" type="curve"/>
      <point x="312" y="644"/>
      <point x="342" y="633"/>
      <point x="364" y="610" type="curve"/>
      <point x="385" y="587"/>
      <point x="401" y="554"/>
      <point x="410" y="510" type="curve"/>
      <point x="419" y="468"/>
      <point x="425" y="419"/>
      <point x="428" y="364" type="curve"/>
      <point x="502" y="364" type="line"/>
      <point x="498" y="487"/>
      <point x="477" y="579"/>
      <point x="440" y="638" type="curve"/>
      <point x="403" y="697"/>
      <point x="347" y="727"/>
      <point x="273" y="727" type="curve"/>
      <point x="181" y="727"/>
      <point x="114" y="677"/>
      <point x="73" y="576" type="curve"/>
      <point x="54" y="529"/>
      <point x="45" y="472"/>
      <point x="45" y="407" type="curve"/>
      <point x="45" y="292"/>
      <point x="88" y="171"/>
    </contour>
  </outline>
</glyph>
<glyph name="_K2.medi" format="2">
  <advance width="381"/>
  <outline>
    <contour>
      <point x="127" y="42" type="curve"/>
      <point x="198" y="85" type="line"/>
      <point x="128" y="180"/>
      <point x="88" y="273"/>
      <point x="78" y="364" type="curve"/>
      <point x="238" y="364" type="line"/>
      <point x="238" y="444" type="line"/>
      <point x="78" y="444" type="line"/>
      <point x="82" y="509"/>
      <point x="97" y="559"/>
      <point x="123" y="593" type="curve"/>
      <point x="148" y="627"/>
      <point x="183" y="644"/>
      <point x="226" y="644" type="curve"/>
      <point x="265" y="644"/>
      <point x="295" y="633"/>
      <point x="317" y="610" type="curve"/>
      <point x="338" y="587"/>
      <point x="354" y="554"/>
      <point x="363" y="510" type="curve"/>
      <point x="372" y="468"/>
      <point x="378" y="419"/>
      <point x="381" y="364" type="curve"/>
      <point x="455" y="364" type="line"/>
      <point x="451" y="487"/>
      <point x="430" y="579"/>
      <point x="393" y="638" type="curve"/>
      <point x="356" y="697"/>
      <point x="300" y="727"/>
      <point x="226" y="727" type="curve"/>
      <point x="134" y="727"/>
      <point x="67" y="677"/>
      <point x="26" y="576" type="curve"/>
      <point x="7" y="529"/>
      <point x="-2" y="472"/>
      <point x="-2" y="407" type="curve"/>
      <point x="-2" y="292"/>
      <point x="41" y="171"/>
    </contour>
  </outline>
</glyph>
<glyph name="_K2Aa.isol" format="2">
  <advance width="1021"/>
  <outline>
    <contour>
      <point x="715" y="-264" type="curve"/>
      <point x="797" y="-264" type="line"/>
      <point x="783" y="-237"/>
      <point x="776" y="-212"/>
      <point x="776" y="-187" type="curve"/>
      <point x="776" y="-158"/>
      <point x="781" y="-133"/>
      <point x="792" y="-110" type="curve"/>
      <point x="802" y="-88"/>
      <point x="819" y="-62"/>
      <point x="843" y="-31" type="curve"/>
      <point x="886" y="22"/>
      <point x="919" y="71"/>
      <point x="942" y="116" type="curve"/>
      <point x="965" y="161"/>
      <point x="976" y="204"/>
      <point x="976" y="245" type="curve"/>
      <point x="974" y="378"/>
      <point x="897" y="444"/>
      <point x="745" y="444" type="curve"/>
      <point x="503" y="444" type="line"/>
      <point x="489" y="565"/>
      <point x="453" y="648"/>
      <point x="396" y="692" type="curve"/>
      <point x="365" y="715"/>
      <point x="324" y="727"/>
      <point x="274" y="727" type="curve"/>
      <point x="225" y="727"/>
      <point x="183" y="714"/>
      <point x="149" y="688" type="curve"/>
      <point x="114" y="662"/>
      <point x="88" y="625"/>
      <point x="71" y="577" type="curve"/>
      <point x="54" y="531"/>
      <point x="45" y="478"/>
      <point x="45" y="419" type="curve"/>
      <point x="45" y="96" type="line"/>
      <point x="111" y="96" type="line"/>
      <point x="119" y="215" type="line"/>
      <point x="146" y="158"/>
      <point x="187" y="98"/>
      <point x="244" y="35" type="curve"/>
      <point x="306" y="90" type="line"/>
      <point x="185" y="221"/>
      <point x="124" y="330"/>
      <point x="124" y="419" type="curve"/>
      <point x="124" y="511"/>
      <point x="145" y="576"/>
      <point x="187" y="614" type="curve"/>
      <point x="209" y="634"/>
      <point x="238" y="644"/>
      <point x="274" y="644" type="curve"/>
      <point x="313" y="644"/>
      <point x="343" y="633"/>
      <point x="365" y="611" type="curve"/>
      <point x="386" y="589"/>
      <point x="402" y="556"/>
      <point x="411" y="512" type="curve"/>
      <point x="420" y="470"/>
      <point x="426" y="421"/>
      <point x="430" y="364" type="curve"/>
      <point x="449" y="96" type="line"/>
      <point x="515" y="96" type="line"/>
      <point x="534" y="364" type="line"/>
      <point x="744" y="364" type="line"/>
      <point x="847" y="367"/>
      <point x="898" y="326"/>
      <point x="898" y="243" type="curve"/>
      <point x="898" y="212"/>
      <point x="890" y="180"/>
      <point x="873" y="149" type="curve"/>
      <point x="856" y="117"/>
      <point x="829" y="77"/>
      <point x="791" y="28" type="curve"/>
      <point x="760" y="-13"/>
      <point x="736" y="-50"/>
      <point x="720" y="-83" type="curve"/>
      <point x="704" y="-116"/>
      <point x="696" y="-151"/>
      <point x="696" y="-187" type="curve"/>
      <point x="696" y="-217"/>
      <point x="702" y="-243"/>
    </contour>
  </outline>
</glyph>
<glyph name="_K2I.init" format="2">
  <advance width="810"/>
  <outline>
    <contour>
      <point x="622" y="-67" type="curve"/>
      <point x="695" y="-31" type="line"/>
      <point x="613" y="98"/>
      <point x="559" y="230"/>
      <point x="533" y="364" type="curve"/>
      <point x="840" y="364" type="line"/>
      <point x="840" y="444" type="line"/>
      <point x="523" y="444" type="line"/>
      <point x="507" y="579"/>
      <point x="471" y="671"/>
      <point x="414" y="720" type="curve"/>
      <point x="383" y="747"/>
      <point x="340" y="760"/>
      <point x="287" y="760" type="curve"/>
      <point x="234" y="760"/>
      <point x="190" y="745"/>
      <point x="154" y="716" type="curve"/>
      <point x="117" y="687"/>
      <point x="90" y="645"/>
      <point x="72" y="591" type="curve"/>
      <point x="54" y="540"/>
      <point x="45" y="482"/>
      <point x="45" y="419" type="curve"/>
      <point x="45" y="96" type="line"/>
      <point x="111" y="96" type="line"/>
      <point x="119" y="215" type="line"/>
      <point x="146" y="158"/>
      <point x="187" y="98"/>
      <point x="244" y="35" type="curve"/>
      <point x="306" y="90" type="line"/>
      <point x="185" y="221"/>
      <point x="124" y="330"/>
      <point x="124" y="419" type="curve"/>
      <point x="124" y="468"/>
      <point x="130" y="511"/>
      <point x="141" y="550" type="curve"/>
      <point x="152" y="588"/>
      <point x="170" y="619"/>
      <point x="193" y="642" type="curve"/>
      <point x="217" y="665"/>
      <point x="248" y="677"/>
      <point x="287" y="677" type="curve"/>
      <point x="324" y="677"/>
      <point x="353" y="667"/>
      <point x="374" y="647" type="curve"/>
      <point x="395" y="626"/>
      <point x="411" y="596"/>
      <point x="422" y="555" type="curve"/>
      <point x="432" y="516"/>
      <point x="440" y="471"/>
      <point x="447" y="418" type="curve"/>
      <point x="470" y="251"/>
      <point x="528" y="89"/>
    </contour>
  </outline>
</glyph>
<glyph name="_K2I.medi" format="2">
  <advance width="765"/>
  <outline>
    <contour>
      <point x="577" y="-67" type="curve"/>
      <point x="650" y="-31" type="line"/>
      <point x="568" y="98"/>
      <point x="514" y="230"/>
      <point x="488" y="364" type="curve"/>
      <point x="795" y="364" type="line"/>
      <point x="795" y="444" type="line"/>
      <point x="478" y="444" type="line"/>
      <point x="462" y="579"/>
      <point x="426" y="671"/>
      <point x="369" y="720" type="curve"/>
      <point x="338" y="747"/>
      <point x="295" y="760"/>
      <point x="242" y="760" type="curve"/>
      <point x="189" y="760"/>
      <point x="145" y="745"/>
      <point x="109" y="716" type="curve"/>
      <point x="72" y="687"/>
      <point x="45" y="645"/>
      <point x="27" y="591" type="curve"/>
      <point x="9" y="540"/>
      <point x="0" y="482"/>
      <point x="0" y="419" type="curve"/>
      <point x="0" y="96" type="line"/>
      <point x="66" y="96" type="line"/>
      <point x="74" y="215" type="line"/>
      <point x="101" y="158"/>
      <point x="142" y="98"/>
      <point x="199" y="35" type="curve"/>
      <point x="261" y="90" type="line"/>
      <point x="140" y="221"/>
      <point x="79" y="330"/>
      <point x="79" y="419" type="curve"/>
      <point x="79" y="468"/>
      <point x="85" y="511"/>
      <point x="96" y="550" type="curve"/>
      <point x="107" y="588"/>
      <point x="125" y="619"/>
      <point x="148" y="642" type="curve"/>
      <point x="172" y="665"/>
      <point x="203" y="677"/>
      <point x="242" y="677" type="curve"/>
      <point x="279" y="677"/>
      <point x="308" y="667"/>
      <point x="329" y="647" type="curve"/>
      <point x="350" y="626"/>
      <point x="366" y="596"/>
      <point x="377" y="555" type="curve"/>
      <point x="387" y="516"/>
      <point x="395" y="471"/>
      <point x="402" y="418" type="curve"/>
      <point x="425" y="251"/>
      <point x="483" y="89"/>
    </contour>
  </outline>
</glyph>
<glyph name="_K2O.fina" format="2">
  <advance width="704"/>
  <outline>
    <contour>
      <point x="467" y="123" type="curve"/>
      <point x="398" y="124"/>
      <point x="363" y="174"/>
      <point x="363" y="275" type="curve"/>
      <point x="363" y="310"/>
      <point x="368" y="340"/>
      <point x="379" y="364" type="curve"/>
      <point x="578" y="364" type="line"/>
      <point x="579" y="354"/>
      <point x="580" y="344"/>
      <point x="580" y="334" type="curve"/>
      <point x="580" y="303" type="line"/>
      <point x="580" y="244"/>
      <point x="570" y="200"/>
      <point x="550" y="169" type="curve"/>
      <point x="529" y="138"/>
      <point x="502" y="123"/>
    </contour>
    <contour>
      <point x="179" y="35" type="curve"/>
      <point x="241" y="80" type="line"/>
      <point x="174" y="164"/>
      <point x="127" y="239"/>
      <point x="101" y="306" type="curve"/>
      <point x="86" y="343"/>
      <point x="79" y="381"/>
      <point x="79" y="419" type="curve"/>
      <point x="79" y="498"/>
      <point x="101" y="561"/>
      <point x="144" y="608" type="curve"/>
      <point x="187" y="654"/>
      <point x="245" y="677"/>
      <point x="320" y="677" type="curve"/>
      <point x="458" y="677"/>
      <point x="541" y="599"/>
      <point x="569" y="444" type="curve"/>
      <point x="322" y="444" type="line"/>
      <point x="310" y="421"/>
      <point x="301" y="394"/>
      <point x="294" y="363" type="curve"/>
      <point x="287" y="332"/>
      <point x="284" y="303"/>
      <point x="284" y="275" type="curve"/>
      <point x="284" y="202"/>
      <point x="300" y="145"/>
      <point x="332" y="103" type="curve"/>
      <point x="364" y="61"/>
      <point x="411" y="40"/>
      <point x="474" y="40" type="curve"/>
      <point x="546" y="40"/>
      <point x="600" y="82"/>
      <point x="636" y="167" type="curve"/>
      <point x="651" y="207"/>
      <point x="659" y="252"/>
      <point x="659" y="303" type="curve"/>
      <point x="659" y="440"/>
      <point x="633" y="549"/>
      <point x="580" y="628" type="curve"/>
      <point x="522" y="716"/>
      <point x="435" y="760"/>
      <point x="320" y="760" type="curve"/>
      <point x="192" y="760"/>
      <point x="99" y="705"/>
      <point x="40" y="595" type="curve"/>
      <point x="13" y="542"/>
      <point x="0" y="480"/>
      <point x="0" y="408" type="curve"/>
      <point x="0" y="76" type="line"/>
      <point x="66" y="76" type="line"/>
      <point x="74" y="192" type="line"/>
      <point x="97" y="148"/>
      <point x="132" y="96"/>
    </contour>
  </outline>
</glyph>
<glyph name="_K2O.medi" format="2">
  <advance width="840"/>
  <outline>
    <contour>
      <point x="467" y="123" type="curve"/>
      <point x="398" y="124"/>
      <point x="363" y="174"/>
      <point x="363" y="275" type="curve"/>
      <point x="363" y="310"/>
      <point x="368" y="340"/>
      <point x="379" y="364" type="curve"/>
      <point x="578" y="364" type="line"/>
      <point x="579" y="354"/>
      <point x="580" y="344"/>
      <point x="580" y="334" type="curve"/>
      <point x="580" y="303" type="line"/>
      <point x="580" y="244"/>
      <point x="570" y="200"/>
      <point x="550" y="169" type="curve"/>
      <point x="529" y="138"/>
      <point x="502" y="123"/>
    </contour>
    <contour>
      <point x="179" y="35" type="curve"/>
      <point x="241" y="80" type="line"/>
      <point x="176" y="161"/>
      <point x="129" y="236"/>
      <point x="102" y="304" type="curve"/>
      <point x="87" y="342"/>
      <point x="79" y="380"/>
      <point x="79" y="419" type="curve"/>
      <point x="79" y="498"/>
      <point x="101" y="561"/>
      <point x="144" y="608" type="curve"/>
      <point x="187" y="654"/>
      <point x="245" y="677"/>
      <point x="320" y="677" type="curve"/>
      <point x="458" y="677"/>
      <point x="541" y="599"/>
      <point x="569" y="444" type="curve"/>
      <point x="322" y="444" type="line"/>
      <point x="297" y="389"/>
      <point x="284" y="332"/>
      <point x="284" y="275" type="curve"/>
      <point x="284" y="202"/>
      <point x="300" y="145"/>
      <point x="332" y="103" type="curve"/>
      <point x="364" y="61"/>
      <point x="411" y="40"/>
      <point x="474" y="40" type="curve"/>
      <point x="545" y="40"/>
      <point x="599" y="82"/>
      <point x="635" y="166" type="curve"/>
      <point x="651" y="205"/>
      <point x="659" y="251"/>
      <point x="659" y="303" type="curve"/>
      <point x="659" y="334" type="line"/>
      <point x="659" y="344"/>
      <point x="658" y="354"/>
      <point x="657" y="364" type="curve"/>
      <point x="870" y="364" type="line"/>
      <point x="870" y="444" type="line"/>
      <point x="648" y="444" type="line"/>
      <point x="609" y="655"/>
      <point x="500" y="760"/>
      <point x="320" y="760" type="curve"/>
      <point x="255" y="760"/>
      <point x="199" y="746"/>
      <point x="151" y="718" type="curve"/>
      <point x="103" y="690"/>
      <point x="66" y="649"/>
      <point x="39" y="595" type="curve"/>
      <point x="13" y="542"/>
      <point x="0" y="480"/>
      <point x="0" y="408" type="curve"/>
      <point x="0" y="76" type="line"/>
      <point x="66" y="76" type="line"/>
      <point x="74" y="192" type="line"/>
      <point x="97" y="148"/>
      <point x="132" y="96"/>
    </contour>
  </outline>
</glyph>
<glyph name="_K2OI.init" format="2">
  <advance width="1176"/>
  <outline>
    <contour>
      <point x="512" y="123" type="curve"/>
      <point x="443" y="124"/>
      <point x="408" y="174"/>
      <point x="408" y="275" type="curve"/>
      <point x="408" y="310"/>
      <point x="413" y="340"/>
      <point x="424" y="364" type="curve"/>
      <point x="623" y="364" type="line"/>
      <point x="624" y="354"/>
      <point x="625" y="344"/>
      <point x="625" y="334" type="curve"/>
      <point x="625" y="303" type="line"/>
      <point x="625" y="244"/>
      <point x="615" y="200"/>
      <point x="595" y="169" type="curve"/>
      <point x="574" y="138"/>
      <point x="547" y="123"/>
    </contour>
    <contour>
      <point x="988" y="-67" type="curve"/>
      <point x="1061" y="-31" type="line"/>
      <point x="988" y="98"/>
      <point x="933" y="229"/>
      <point x="894" y="364" type="curve"/>
      <point x="1206" y="364" type="line"/>
      <point x="1206" y="444" type="line"/>
      <point x="693" y="444" type="line"/>
      <point x="654" y="655"/>
      <point x="545" y="760"/>
      <point x="365" y="760" type="curve"/>
      <point x="234" y="760"/>
      <point x="141" y="705"/>
      <point x="84" y="596" type="curve"/>
      <point x="58" y="543"/>
      <point x="45" y="481"/>
      <point x="45" y="409" type="curve"/>
      <point x="45" y="76" type="line"/>
      <point x="111" y="76" type="line"/>
      <point x="119" y="192" type="line"/>
      <point x="142" y="148"/>
      <point x="177" y="96"/>
      <point x="224" y="35" type="curve"/>
      <point x="286" y="80" type="line"/>
      <point x="217" y="166"/>
      <point x="171" y="241"/>
      <point x="146" y="304" type="curve"/>
      <point x="131" y="342"/>
      <point x="124" y="380"/>
      <point x="124" y="419" type="curve"/>
      <point x="124" y="498"/>
      <point x="146" y="561"/>
      <point x="189" y="608" type="curve"/>
      <point x="232" y="654"/>
      <point x="290" y="677"/>
      <point x="365" y="677" type="curve"/>
      <point x="503" y="677"/>
      <point x="586" y="599"/>
      <point x="614" y="444" type="curve"/>
      <point x="367" y="444" type="line"/>
      <point x="355" y="421"/>
      <point x="346" y="394"/>
      <point x="339" y="363" type="curve"/>
      <point x="332" y="332"/>
      <point x="329" y="303"/>
      <point x="329" y="275" type="curve"/>
      <point x="329" y="202"/>
      <point x="345" y="145"/>
      <point x="377" y="103" type="curve"/>
      <point x="409" y="61"/>
      <point x="456" y="40"/>
      <point x="519" y="40" type="curve"/>
      <point x="591" y="40"/>
      <point x="645" y="82"/>
      <point x="681" y="167" type="curve"/>
      <point x="696" y="207"/>
      <point x="704" y="252"/>
      <point x="704" y="303" type="curve"/>
      <point x="704" y="334" type="line"/>
      <point x="704" y="344"/>
      <point x="703" y="354"/>
      <point x="702" y="364" type="curve"/>
      <point x="815" y="364" type="line"/>
      <point x="854" y="220"/>
      <point x="911" y="76"/>
    </contour>
  </outline>
</glyph>
<glyph name="_K2OI.medi" format="2">
  <advance width="1131"/>
  <outline>
    <contour>
      <point x="467" y="123" type="curve"/>
      <point x="398" y="124"/>
      <point x="363" y="174"/>
      <point x="363" y="275" type="curve"/>
      <point x="363" y="310"/>
      <point x="368" y="340"/>
      <point x="379" y="364" type="curve"/>
      <point x="578" y="364" type="line"/>
      <point x="579" y="354"/>
      <point x="580" y="344"/>
      <point x="580" y="334" type="curve"/>
      <point x="580" y="303" type="line"/>
      <point x="580" y="244"/>
      <point x="570" y="200"/>
      <point x="550" y="169" type="curve"/>
      <point x="529" y="138"/>
      <point x="502" y="123"/>
    </contour>
    <contour>
      <point x="943" y="-67" type="curve"/>
      <point x="1016" y="-31" type="line"/>
      <point x="943" y="98"/>
      <point x="888" y="229"/>
      <point x="849" y="364" type="curve"/>
      <point x="1161" y="364" type="line"/>
      <point x="1161" y="444" type="line"/>
      <point x="648" y="444" type="line"/>
      <point x="609" y="655"/>
      <point x="500" y="760"/>
      <point x="320" y="760" type="curve"/>
      <point x="189" y="760"/>
      <point x="96" y="705"/>
      <point x="39" y="596" type="curve"/>
      <point x="13" y="543"/>
      <point x="0" y="481"/>
      <point x="0" y="409" type="curve"/>
      <point x="0" y="76" type="line"/>
      <point x="66" y="76" type="line"/>
      <point x="74" y="192" type="line"/>
      <point x="97" y="148"/>
      <point x="132" y="96"/>
      <point x="179" y="35" type="curve"/>
      <point x="241" y="80" type="line"/>
      <point x="172" y="166"/>
      <point x="126" y="241"/>
      <point x="101" y="304" type="curve"/>
      <point x="86" y="342"/>
      <point x="79" y="380"/>
      <point x="79" y="419" type="curve"/>
      <point x="79" y="498"/>
      <point x="101" y="561"/>
      <point x="144" y="608" type="curve"/>
      <point x="187" y="654"/>
      <point x="245" y="677"/>
      <point x="320" y="677" type="curve"/>
      <point x="458" y="677"/>
      <point x="541" y="599"/>
      <point x="569" y="444" type="curve"/>
      <point x="322" y="444" type="line"/>
      <point x="310" y="421"/>
      <point x="301" y="394"/>
      <point x="294" y="363" type="curve"/>
      <point x="287" y="332"/>
      <point x="284" y="303"/>
      <point x="284" y="275" type="curve"/>
      <point x="284" y="202"/>
      <point x="300" y="145"/>
      <point x="332" y="103" type="curve"/>
      <point x="364" y="61"/>
      <point x="411" y="40"/>
      <point x="474" y="40" type="curve"/>
      <point x="546" y="40"/>
      <point x="600" y="82"/>
      <point x="636" y="167" type="curve"/>
      <point x="651" y="207"/>
      <point x="659" y="252"/>
      <point x="659" y="303" type="curve"/>
      <point x="659" y="334" type="line"/>
      <point x="659" y="344"/>
      <point x="658" y="354"/>
      <point x="657" y="364" type="curve"/>
      <point x="770" y="364" type="line"/>
      <point x="809" y="220"/>
      <point x="866" y="76"/>
    </contour>
  </outline>
</glyph>
<glyph name="_K2Ue.fina" format="2">
  <advance width="1090"/>
  <outline>
    <contour>
      <point x="467" y="123" type="curve"/>
      <point x="398" y="124"/>
      <point x="363" y="174"/>
      <point x="363" y="275" type="curve"/>
      <point x="363" y="310"/>
      <point x="368" y="340"/>
      <point x="379" y="364" type="curve"/>
      <point x="578" y="364" type="line"/>
      <point x="579" y="354"/>
      <point x="580" y="344"/>
      <point x="580" y="334" type="curve"/>
      <point x="580" y="303" type="line"/>
      <point x="580" y="244"/>
      <point x="570" y="200"/>
      <point x="550" y="169" type="curve"/>
      <point x="529" y="138"/>
      <point x="502" y="123"/>
    </contour>
    <contour>
      <point x="179" y="35" type="curve"/>
      <point x="241" y="80" type="line"/>
      <point x="172" y="166"/>
      <point x="126" y="241"/>
      <point x="101" y="304" type="curve"/>
      <point x="86" y="342"/>
      <point x="79" y="380"/>
      <point x="79" y="419" type="curve"/>
      <point x="79" y="498"/>
      <point x="101" y="561"/>
      <point x="144" y="608" type="curve"/>
      <point x="187" y="654"/>
      <point x="245" y="677"/>
      <point x="320" y="677" type="curve"/>
      <point x="458" y="677"/>
      <point x="541" y="599"/>
      <point x="569" y="444" type="curve"/>
      <point x="322" y="444" type="line"/>
      <point x="310" y="421"/>
      <point x="301" y="394"/>
      <point x="294" y="363" type="curve"/>
      <point x="287" y="332"/>
      <point x="284" y="303"/>
      <point x="284" y="275" type="curve"/>
      <point x="284" y="202"/>
      <point x="300" y="145"/>
      <point x="332" y="103" type="curve"/>
      <point x="364" y="61"/>
      <point x="411" y="40"/>
      <point x="473" y="40" type="curve"/>
      <point x="545" y="40"/>
      <point x="599" y="82"/>
      <point x="635" y="166" type="curve"/>
      <point x="651" y="206"/>
      <point x="659" y="251"/>
      <point x="659" y="302" type="curve"/>
      <point x="659" y="334" type="line"/>
      <point x="659" y="344"/>
      <point x="658" y="354"/>
      <point x="657" y="364" type="curve"/>
      <point x="870" y="364" type="line"/>
      <point x="905" y="364"/>
      <point x="930" y="357"/>
      <point x="945" y="343" type="curve"/>
      <point x="960" y="328"/>
      <point x="968" y="307"/>
      <point x="968" y="279" type="curve"/>
      <point x="968" y="235"/>
      <point x="961" y="196"/>
      <point x="946" y="162" type="curve"/>
      <point x="1020" y="162" type="line"/>
      <point x="1037" y="196"/>
      <point x="1045" y="235"/>
      <point x="1045" y="279" type="curve"/>
      <point x="1046" y="389"/>
      <point x="987" y="444"/>
      <point x="870" y="444" type="curve"/>
      <point x="648" y="444" type="line"/>
      <point x="609" y="655"/>
      <point x="500" y="760"/>
      <point x="320" y="760" type="curve"/>
      <point x="255" y="760"/>
      <point x="199" y="746"/>
      <point x="151" y="718" type="curve"/>
      <point x="103" y="690"/>
      <point x="66" y="649"/>
      <point x="39" y="595" type="curve"/>
      <point x="13" y="542"/>
      <point x="0" y="480"/>
      <point x="0" y="408" type="curve"/>
      <point x="0" y="76" type="line"/>
      <point x="66" y="76" type="line"/>
      <point x="74" y="192" type="line"/>
      <point x="97" y="148"/>
      <point x="132" y="96"/>
    </contour>
  </outline>
</glyph>
<glyph name="_K2Ue.isol" format="2">
  <advance width="1135"/>
  <outline>
    <contour>
      <point x="512" y="123" type="curve"/>
      <point x="443" y="124"/>
      <point x="408" y="174"/>
      <point x="408" y="275" type="curve"/>
      <point x="408" y="310"/>
      <point x="413" y="340"/>
      <point x="424" y="364" type="curve"/>
      <point x="623" y="364" type="line"/>
      <point x="624" y="354"/>
      <point x="625" y="344"/>
      <point x="625" y="334" type="curve"/>
      <point x="625" y="303" type="line"/>
      <point x="625" y="244"/>
      <point x="615" y="200"/>
      <point x="595" y="169" type="curve"/>
      <point x="574" y="138"/>
      <point x="547" y="123"/>
    </contour>
    <contour>
      <point x="224" y="35" type="curve"/>
      <point x="286" y="80" type="line"/>
      <point x="217" y="166"/>
      <point x="171" y="241"/>
      <point x="146" y="304" type="curve"/>
      <point x="131" y="342"/>
      <point x="124" y="380"/>
      <point x="124" y="419" type="curve"/>
      <point x="124" y="498"/>
      <point x="146" y="561"/>
      <point x="189" y="608" type="curve"/>
      <point x="232" y="654"/>
      <point x="290" y="677"/>
      <point x="365" y="677" type="curve"/>
      <point x="503" y="677"/>
      <point x="586" y="599"/>
      <point x="614" y="444" type="curve"/>
      <point x="367" y="444" type="line"/>
      <point x="355" y="421"/>
      <point x="346" y="394"/>
      <point x="339" y="363" type="curve"/>
      <point x="332" y="332"/>
      <point x="329" y="303"/>
      <point x="329" y="275" type="curve"/>
      <point x="329" y="202"/>
      <point x="345" y="145"/>
      <point x="377" y="103" type="curve"/>
      <point x="409" y="61"/>
      <point x="456" y="40"/>
      <point x="518" y="40" type="curve"/>
      <point x="590" y="40"/>
      <point x="644" y="82"/>
      <point x="680" y="166" type="curve"/>
      <point x="696" y="206"/>
      <point x="704" y="251"/>
      <point x="704" y="302" type="curve"/>
      <point x="704" y="334" type="line"/>
      <point x="704" y="344"/>
      <point x="703" y="354"/>
      <point x="702" y="364" type="curve"/>
      <point x="915" y="364" type="line"/>
      <point x="950" y="364"/>
      <point x="975" y="357"/>
      <point x="990" y="343" type="curve"/>
      <point x="1005" y="328"/>
      <point x="1013" y="307"/>
      <point x="1013" y="279" type="curve"/>
      <point x="1013" y="235"/>
      <point x="1006" y="196"/>
      <point x="991" y="162" type="curve"/>
      <point x="1065" y="162" type="line"/>
      <point x="1082" y="196"/>
      <point x="1090" y="235"/>
      <point x="1090" y="279" type="curve"/>
      <point x="1091" y="389"/>
      <point x="1032" y="444"/>
      <point x="915" y="444" type="curve"/>
      <point x="693" y="444" type="line"/>
      <point x="654" y="655"/>
      <point x="545" y="760"/>
      <point x="365" y="760" type="curve"/>
      <point x="300" y="760"/>
      <point x="244" y="746"/>
      <point x="196" y="718" type="curve"/>
      <point x="148" y="690"/>
      <point x="111" y="649"/>
      <point x="84" y="595" type="curve"/>
      <point x="58" y="542"/>
      <point x="45" y="480"/>
      <point x="45" y="408" type="curve"/>
      <point x="45" y="76" type="line"/>
      <point x="111" y="76" type="line"/>
      <point x="119" y="192" type="line"/>
      <point x="142" y="148"/>
      <point x="177" y="96"/>
    </contour>
  </outline>
</glyph>
